<?xml version="1.0" encoding="UTF-8"?>
<svg id="Racoon" xmlns="http://www.w3.org/2000/svg" version="1.1" viewBox="0 0 1024 775.9">
  <!-- Generator: Adobe Illustrator 29.3.1, SVG Export Plug-In . SVG Version: 2.1.0 Build 151)  -->
  <defs>
    <style>
      .st0 {
        fill: none;
      }

      .st1 {
        fill: #465855;
      }

      .st2 {
        fill: #98958e;
      }

      .st3 {
        fill: #2b3c42;
      }

      .st4 {
        fill: #fff;
      }

      .st5 {
        fill: #142d34;
      }

      .st6 {
        fill: #132933;
      }
    </style>
  </defs>
  <path class="st0" d="M551.18,428.58c-.02-1.33-.03-2.68-.04-4.06,0,1.38.02,2.72.04,4.06Z"/>
  <path class="st0" d="M551.26,433.84c-.03-1.46-.05-2.95-.07-4.47.02,1.52.04,3.01.07,4.47Z"/>
  <path class="st0" d="M551.15,423.2c0-1.23,0-2.45,0-3.72,0,1.26,0,2.49,0,3.72Z"/>
  <path class="st0" d="M551.67,446.92c-.18-4.04-.31-8.34-.41-12.91.09,4.57.23,8.87.41,12.91Z"/>
  <path class="st0" d="M551.67,446.94c-.04-8.63-.27-17.36-.39-26.11.11,8.74.36,17.48.39,26.11h0Z"/>
  <path class="st0" d="M551.15,417.05c0-.94,0-1.86.02-2.81,0,.95-.01,1.88-.02,2.81Z"/>
  <path class="st0" d="M193.04,125.5s0,0,0,0c-.34-.36-.65-.74-.94-1.14.29.4.6.78.94,1.14Z"/>
  <path class="st0" d="M551.23,408.77c-.04,3.84-.01,7.69.04,11.54-.05-3.85-.08-7.7-.04-11.54Z"/>
  <path class="st0" d="M669.71,260.38c-3.71-.69-7.38-1.2-10.99-1.52,3.61.32,7.28.83,10.99,1.52Z"/>
  <path class="st0" d="M193.29,125.74s0,0,0,0c.32.32.66.62,1.03.89-.36-.28-.7-.58-1.02-.89Z"/>
  <path class="st0" d="M195.98,127.7c-.51-.26-1-.56-1.46-.9,0,0,0,0,0,0,.46.34.95.64,1.46.9,0,0,0,0,0,0Z"/>
  <path class="st0" d="M191.08,122.67c.21.43.45.84.71,1.24-.26-.4-.5-.81-.71-1.24Z"/>
  <path class="st0" d="M196.27,127.84s0,0,0,0c.52.25,1.06.47,1.63.64-.57-.17-1.11-.39-1.63-.64Z"/>
  <polygon class="st0" points="270.61 180.51 271.59 180.79 271.58 180.79 270.6 180.51 270.61 180.51"/>
  <path class="st0" d="M191.08,122.66s0,0,0,0c-.03-.06-.06-.11-.08-.17,0,0,0,0,0,0,.02.05.05.1.08.16Z"/>
  <path class="st0" d="M564.07,69.79c-4.27,7.38-18.18,21.49-32.68,32.77-4.39,3.41-5.54,9.57-2.69,14.34,2.86,4.77,8.82,6.67,13.91,4.41,16.83-7.47,36.01-12.96,44.05-12.86-8.27,25.21-38.04,46.81-38.34,47.02-4.95,3.53-6.09,10.41-2.56,15.35,3.16,4.42,8.98,5.79,13.72,3.51-4.63,1.93-10.15.5-13.19-3.76-3.53-4.95-2.39-11.82,2.56-15.35.29-.21,30.07-21.81,38.34-47.02-.05,0-.11,0-.16,0-8.18,0-27.16,5.44-43.89,12.86-5.08,2.26-11.05.36-13.91-4.41s-1.7-10.93,2.69-14.34c14.5-11.27,28.41-25.39,32.68-32.77-1.42-.12-3.37-.18-6-.04-11.24.6-24.14,4.76-37.3,10.77,12.97-5.88,25.68-9.94,36.77-10.53,2.63-.14,4.58-.09,6,.04Z"/>
  <path class="st0" d="M281.02,113.85c38.38,23.41,70.23,49.79,70.55,50.06,3.03,2.52,7.18,3.23,10.87,1.86l66.99-24.86c.15-.06.28-.14.43-.2l-66.88,24.82c-3.7,1.37-7.84.66-10.87-1.86-.32-.26-32.16-26.65-70.55-50.06-47.92-29.22-85.56-41.25-105.97-33.87-.76.28-1.5.59-2.22.93.55-.24,1.11-.48,1.69-.68,20.41-7.38,58.05,4.65,105.97,33.87Z"/>
  <path class="st0" d="M231.66,637.41c.89.49,1.79.95,2.68,1.44h.28c-.99-.48-1.98-.94-2.97-1.44Z"/>
  <path class="st0" d="M189.89,115.07c-.45,1.56-.54,3.13-.32,4.63.15-.95.3-1.82.44-2.53h0s0,.04,0,.06c.05-.8.18-1.6.41-2.4.91-3.12,3.09-5.52,5.81-6.83-2.97,1.23-5.38,3.75-6.35,7.07Z"/>
  <path class="st0" d="M714.86,194.88c-2.21,3.89-1.86,8.73.9,12.25,2.76,3.52,7.38,5.01,11.68,3.79l37.74-10.78-13.17,18.73c-1.83,2.6-2.43,5.88-1.67,8.97s2.84,5.71,5.67,7.16c.14.07,13.78,7.16,31.82,23.98,16.62,15.49,40.51,42.66,59.88,84.13,32.21,68.93,86.8,107.34,109.47,121.01-.9,1.37-1.84,2.7-2.78,4.01-.15.2-.3.4-.45.6-.86,1.17-1.75,2.32-2.64,3.45-.04.05-.08.11-.12.16.03.11.05.21.07.32,2.26-2.78,4.43-5.69,6.46-8.79-22.67-13.66-77.26-52.07-109.47-121-37.08-79.37-91.16-107.83-91.71-108.11-2.83-1.45-4.91-4.07-5.67-7.16-.76-3.09-.16-6.37,1.67-8.97l13.17-18.73-37.74,10.78c-4.3,1.23-8.92-.27-11.68-3.79-2.76-3.52-3.12-8.36-.91-12.25,1.43-2.51,32.61-56.31,86.6-80.64-54.32,24.21-85.7,78.36-87.13,80.88Z"/>
  <path class="st0" d="M190.42,120.92s0,0,0,.01c-.02-.06-.03-.12-.05-.18,0,0,0,.01,0,.02.01.05.03.1.04.15Z"/>
  <path class="st0" d="M303.55,210.11c-2.32,1.04-4.97,1.29-7.52.56l-37.74-10.78.35.49,36.87,10.53c2.74.78,5.61.45,8.05-.8Z"/>
  <path class="st0" d="M882.21,525.35c-.1,4.7,2.8,8.95,7.21,10.57,9.91,3.64,19.93,5.44,28.67,6.25-19.83,20.14-56.36,53.72-104.78,83.12-.48.29-.96.57-1.44.86.73-.42,1.47-.82,2.2-1.24,49.42-28.35,85.82-62.52,105.22-82.92-8.9-.79-19.17-2.58-29.34-6.31-4.42-1.62-7.31-5.87-7.21-10.57,0-.27.06-.54.08-.8-.18.09-.36.19-.54.28-.02.26-.07.51-.08.77Z"/>
  <path class="st0" d="M669.17,165.32c-2.55,1.09-5.46,1.2-8.13.2l-66.74-24.77c-.08.11-.17.23-.25.35l66.46,24.67c2.86,1.06,5.99.86,8.66-.45Z"/>
  <path class="st0" d="M847.89,79.98c10.41,3.76,16.85,13.07,19.7,28.44,14.55,78.57-9.12,150.64-22.74,183.43.09.13.18.27.26.4,13.58-32.49,37.65-104.99,23.01-184.07-2.85-15.37-9.29-24.67-19.7-28.44-14.12-5.1-36.47-.92-64.76,11.8,28.04-12.54,50.2-16.63,64.23-11.56Z"/>
  <path class="st0" d="M178.78,291.98c.04.09.07.18.11.26,11.1-16.77,22.51-30.38,33.07-41.21-.03-.04-.05-.09-.07-.13-10.11,10.35-21.67,23.94-33.1,41.08Z"/>
  <path class="st0" d="M134.04,535.68c-9.91,3.63-19.92,5.43-28.66,6.25.05.05.12.12.17.17,8.57-.85,18.32-2.64,27.97-6.18.18-.07.35-.16.52-.24Z"/>
  <polygon class="st0" points="246.69 221.67 240.48 212.83 246.69 221.67 246.69 221.67"/>
  <path class="st0" d="M222.41,174.37c-1.85,2.6-2.41,5.81-1.74,8.8-.67-2.99-.11-6.19,1.74-8.79,1-1.41,2.3-2.53,3.76-3.31,0,0-.02,0-.03.01-1.45.78-2.73,1.89-3.73,3.3Z"/>
  <path class="st1" d="M487.9,501.68c0,8.11,14.13,14.69,31.55,14.69s31.55-6.58,31.55-14.69-14.13-14.69-31.55-14.69-31.55,6.58-31.55,14.69Z"/>
  <path class="st2" d="M951.2,472.33s0,0,0,0c.04-.05.08-.11.12-.16-.04.05-.08.1-.13.16Z"/>
  <path class="st2" d="M234.4,170.17c-2.83-.81-5.78-.43-8.26.91,0,0,.02,0,.03-.01,2.47-1.33,5.41-1.69,8.23-.89l36.21,10.34s0,0,0,0l-36.2-10.34Z"/>
  <path class="st2" d="M93.13,456.97c74.07-43.67,119.82-119.88,190.93-166.88,4.29-2.84,8.67-5.54,13.14-8.09,2.23-1.27,4.49-2.51,6.76-3.71,4.55-2.39,9.18-4.62,13.89-6.66,7.07-3.07,14.31-5.73,21.73-7.92.83-.24,1.66-.48,2.49-.72,48.73-13.57,90.29,3.01,114.65,49.75.82,1.57,1.58,3.16,2.31,4.75.2.43.4.87.59,1.31.6,1.33,1.16,2.68,1.7,4.03.12.29.24.57.35.86.63,1.6,1.21,3.22,1.77,4.84.14.4.27.81.4,1.21.43,1.32.85,2.64,1.24,3.96.12.41.24.81.36,1.22.47,1.65.91,3.3,1.31,4.96.07.28.13.56.19.84.34,1.43.65,2.86.95,4.31.09.45.18.9.27,1.35.33,1.68.64,3.37.91,5.07,0,0,0,.01,0,.02.28,1.73.52,3.46.75,5.2.06.44.11.88.17,1.32.18,1.47.35,2.94.5,4.42.03.29.06.57.09.86.17,1.74.32,3.49.45,5.24.03.38.05.75.08,1.13.1,1.46.19,2.93.27,4.4.02.38.04.76.06,1.14.09,1.77.16,3.55.21,5.33,0,.19,0,.39.02.58.05,1.62.08,3.25.11,4.87,0,.39.01.78.02,1.17.05,3.65.05,7.31.02,10.96,0,.28,0,.56,0,.84-.02,1.8-.04,3.61-.06,5.41.05,2.07.07,4.15.08,6.22,0,.09,0,.19,0,.28,0,2.08,0,4.16-.01,6.24,0,0,0,0,0,0-.05,5.39-.16,10.78-.27,16.15,0,.25-.01.51-.02.76-.02.91-.04,1.81-.05,2.72-.03,1.71-.06,3.41-.08,5.12,0,.41-.01.83-.01,1.24-.02,1.82-.03,3.64-.04,5.46,0,.26,0,.52,0,.79,0,1.94.01,3.87.05,5.79-.18.03-.35.07-.53.1-.39,7.8-.99,16.01-1.91,23.77,4.89-3.29,10.44-6.03,16.47-8.08.16-.06.32-.11.48-.17.66-.22,1.32-.42,1.99-.63.28-.09.56-.17.84-.26.6-.18,1.22-.34,1.83-.5.36-.1.72-.19,1.08-.28.57-.14,1.14-.28,1.72-.41.42-.09.84-.19,1.26-.27.54-.11,1.08-.22,1.63-.32.47-.09.94-.17,1.42-.25.52-.09,1.03-.17,1.55-.25.52-.08,1.05-.15,1.57-.22.49-.06.97-.13,1.47-.18.58-.07,1.17-.12,1.76-.17.45-.04.89-.09,1.34-.12.68-.05,1.37-.09,2.06-.12.37-.02.73-.04,1.1-.06,1.06-.04,2.13-.06,3.2-.06s2.14.02,3.2.06c.37.01.74.04,1.1.06.68.03,1.37.07,2.05.12.45.03.89.08,1.34.12.59.05,1.18.11,1.76.17.49.05.97.12,1.46.18.53.07,1.06.14,1.58.22.52.08,1.03.16,1.54.25.48.08.95.16,1.42.25.55.1,1.09.21,1.63.32.42.09.84.18,1.26.27.58.13,1.15.26,1.72.41.36.09.71.18,1.07.28.62.16,1.23.33,1.84.51.28.08.55.17.82.25.68.2,1.35.41,2.01.63.14.05.28.1.42.15,6.04,2.05,11.59,4.78,16.5,8.08-.93-6.51-1.75-14.34-2.34-23.75-.15-.03-.3-.06-.45-.09.05-2.71.03-5.45.01-8.18,0,0,0-.01,0-.02-.18-4.04-.32-8.34-.41-12.91,0-.05,0-.11,0-.17-.03-1.46-.05-2.95-.07-4.47,0-.26,0-.53,0-.8-.01-1.33-.03-2.68-.04-4.06,0-.43,0-.88,0-1.32,0-1.23,0-2.45,0-3.72,0-.8,0-1.63.01-2.44,0-.94,0-1.86.02-2.81.02-1.79.04-3.61.07-5.47.01-1.47.04-2.95.07-4.42-.03-1.8-.05-3.61-.06-5.41,0-.28,0-.56,0-.84-.03-3.66-.03-7.31.02-10.96,0-.39.01-.78.02-1.17.03-1.63.06-3.25.11-4.87,0-.19,0-.39.02-.58.06-1.78.13-3.56.21-5.33.02-.38.04-.76.06-1.13.08-1.47.17-2.94.27-4.41.03-.37.05-.75.08-1.12.13-1.75.28-3.5.45-5.25.03-.28.06-.56.09-.85.15-1.48.32-2.96.5-4.43.05-.44.11-.88.17-1.32.23-1.74.47-3.47.75-5.2,0,0,0-.01,0-.02.28-1.7.59-3.38.91-5.07.09-.45.18-.89.27-1.34.29-1.44.61-2.87.95-4.3.07-.28.13-.57.2-.85.4-1.66.84-3.32,1.31-4.96.11-.4.24-.81.36-1.21.39-1.33.8-2.66,1.24-3.98.13-.4.26-.8.4-1.2.55-1.62,1.14-3.24,1.77-4.84.11-.29.24-.58.35-.86.54-1.35,1.11-2.69,1.71-4.03.19-.43.39-.87.59-1.3.74-1.59,1.5-3.18,2.32-4.75,15.99-30.67,39.38-48.35,67.35-53.05,5.33-.89,10.82-1.32,16.46-1.27,2.82.02,5.68.17,8.57.42,3.61.32,7.28.83,10.99,1.52s7.48,1.57,11.29,2.63c.83.23,1.66.47,2.49.72,2.47.73,4.92,1.51,7.36,2.34,4.87,1.66,9.66,3.53,14.37,5.58,4.71,2.05,9.35,4.27,13.89,6.66,3.12,1.64,6.19,3.38,9.23,5.17,3.61,2.12,7.17,4.31,10.67,6.62,71.11,47,116.86,123.21,190.93,166.88,5.22,3.08,19.22,8.79,21.2,15.04.03.11.04.21.07.32.04-.05.08-.1.13-.16.9-1.12,1.78-2.27,2.64-3.45.15-.2.3-.4.45-.6.95-1.31,1.88-2.64,2.78-4.01-22.67-13.67-77.27-52.07-109.47-121.01-19.38-41.47-43.26-68.64-59.88-84.13-18.04-16.81-31.69-23.91-31.82-23.98-2.83-1.45-4.91-4.07-5.67-7.16s-.16-6.37,1.67-8.97l13.17-18.73-37.74,10.78c-4.3,1.23-8.92-.27-11.68-3.79-2.76-3.52-3.12-8.36-.9-12.25,1.44-2.52,32.81-56.67,87.13-80.88,5.73-2.58,11.7-4.83,17.93-6.65,5.84-1.7,11.95,1.64,13.65,7.48.46,1.59.54,3.19.31,4.73,2.94,18.37,6.31,80.94-22.17,131.15,10.57,10.8,22,24.38,33.14,41.15,13.62-32.79,37.29-104.85,22.74-183.43-2.85-15.37-9.29-24.67-19.7-28.44-14.03-5.07-36.19-.98-64.23,11.56-12.62,5.68-26.43,13.05-41.21,22.07-38.38,23.41-70.23,49.79-70.55,50.06-.84.7-1.76,1.24-2.74,1.65-2.67,1.31-5.8,1.51-8.66.45l-66.46-24.67c-13.9,18.67-31.35,31.29-32.4,32.04-.69.49-1.42.88-2.16,1.2-4.73,2.28-10.56.91-13.72-3.51-3.53-4.95-2.39-11.82,2.56-15.35.29-.21,30.07-21.81,38.34-47.02-8.04-.1-27.22,5.39-44.05,12.86-5.09,2.26-11.05.36-13.91-4.41-2.86-4.77-1.7-10.93,2.69-14.34,14.5-11.27,28.41-25.39,32.68-32.77-1.42-.12-3.37-.18-6-.04-11.09.59-23.79,4.65-36.77,10.53-42.38,19.35-87.41,57.89-88,58.39-.99.85-2.13,1.53-3.36,1.98l-.1.04c-.15.06-.28.15-.43.2l-66.99,24.86c-3.69,1.37-7.84.66-10.87-1.86-.32-.26-32.16-26.65-70.55-50.06-47.92-29.22-85.56-41.25-105.97-33.87-.58.21-1.14.44-1.69.68-9.11,4.24-14.84,13.27-17.48,27.51-14.6,78.86,9.3,151.19,22.9,183.81,11.43-17.13,22.99-30.72,33.1-41.08-28.53-50.11-25.24-112.62-22.31-131.2-.22-1.51-.13-3.08.32-4.63.97-3.33,3.38-5.84,6.35-7.07,2.36-1.13,5.13-1.44,7.84-.65,64.99,18.98,102.95,84.51,104.54,87.29,2.21,3.89,1.86,8.73-.91,12.25-1.13,1.43-2.57,2.51-4.16,3.22-2.44,1.25-5.31,1.59-8.05.8l-36.87-10.53,12.82,18.24c1.84,2.61,2.45,5.9,1.67,9-.77,3.1-2.86,5.71-5.71,7.15-.51.26-54.6,28.73-91.68,108.09-32.21,68.93-86.8,107.34-109.47,121,1.82,2.77,3.76,5.4,5.76,7.92,2.24-6.16,15.94-11.77,21.1-14.81Z"/>
  <polygon class="st2" points="551.67 446.94 551.67 446.94 551.67 446.94 551.67 446.94 551.67 446.94"/>
  <path class="st2" d="M752.59,180.59c-.06.07-.12.14-.17.2l37.18-10.62c1.01-.29,2.03-.4,3.05-.4-1.18-.06-2.39.06-3.57.4l-36.49,10.42Z"/>
  <polygon class="st2" points="951.2 472.33 951.2 472.33 951.2 472.33 951.2 472.33"/>
  <path class="st2" d="M719.1,278.3c-4.55-2.39-9.18-4.62-13.89-6.66,4.71,2.05,9.34,4.27,13.89,6.66Z"/>
  <path class="st2" d="M551.31,404.35c-.03-1.8-.05-3.61-.06-5.41.02,1.8.04,3.61.06,5.41h0Z"/>
  <path class="st2" d="M471.82,398.94c-.02,1.8-.04,3.61-.06,5.41h0c.03-1.8.05-3.61.06-5.41Z"/>
  <path class="st2" d="M951.13,472.01c.03.11.05.21.07.32h0c-.03-.11-.04-.21-.07-.32Z"/>
  <path class="st2" d="M468.96,479c4.89-3.29,10.44-6.03,16.47-8.08-6.03,2.05-11.57,4.79-16.47,8.08Z"/>
  <path class="st2" d="M554.45,478.96c-4.9-3.29-10.46-6.03-16.5-8.08,6.04,2.05,11.59,4.78,16.5,8.08Z"/>
  <path class="st6" d="M353.69,488.32c.94.22,1.89.41,2.84.57,2.87.49,5.81.75,8.8.75,3.99,0,7.88-.45,11.64-1.31,2.82-.65,5.57-1.52,8.22-2.61.88-.36,1.76-.75,2.62-1.16,1.73-.82,3.41-1.73,5.05-2.72,1.64-1,3.23-2.08,4.76-3.24,2.3-1.74,4.49-3.67,6.54-5.76,1.37-1.39,2.68-2.86,3.92-4.39,9.32-11.49,15.01-26.75,15.01-43.5s-5.68-32.01-15.01-43.5c-1.24-1.53-2.55-3-3.92-4.39-2.05-2.09-4.24-4.01-6.54-5.76-1.54-1.16-3.13-2.24-4.76-3.24-1.64-1-3.32-1.91-5.05-2.72-.86-.41-1.74-.8-2.62-1.16-2.65-1.09-5.4-1.96-8.22-2.61-3.76-.86-7.65-1.31-11.64-1.31-2.99,0-5.93.25-8.8.75-.96.16-1.9.35-2.84.57-2.82.65-5.57,1.52-8.22,2.61-.88.36-1.76.75-2.62,1.16-1.73.82-3.41,1.73-5.05,2.72-1.64,1-3.23,2.08-4.76,3.24-15.36,11.63-25.47,31.31-25.47,53.64s10.1,42.02,25.47,53.64c1.54,1.16,3.13,2.24,4.76,3.24,1.64,1,3.32,1.91,5.05,2.72.86.41,1.74.8,2.62,1.16,2.65,1.09,5.4,1.96,8.22,2.61ZM334.47,461.06c-.99-1.16-1.93-2.37-2.82-3.63-6.23-8.83-9.96-20.15-9.96-32.49s3.74-23.66,9.96-32.49c.89-1.26,1.83-2.47,2.82-3.63,3.95-4.62,8.65-8.36,13.87-10.95.65-.32,1.31-.63,1.98-.91,4.68-2,9.73-3.1,15-3.1h0c.72,0,1.44.02,2.15.06.23.01.46.04.69.06.48.04.95.07,1.43.13.28.03.55.07.83.11.42.06.85.12,1.26.19.29.05.58.11.87.17.4.08.8.16,1.19.25.3.07.59.14.88.22.38.1.77.2,1.15.31.3.09.59.17.88.27.37.12.75.24,1.12.37.29.1.58.2.87.31.37.14.74.29,1.1.44.28.12.56.23.84.35.37.16.73.33,1.09.5.27.13.54.25.81.39.37.19.74.39,1.11.59.25.13.49.26.74.4.45.26.9.53,1.34.81.28.17.55.34.82.52.45.29.9.59,1.34.9.26.18.51.38.76.56.31.23.62.46.93.7.27.21.54.44.81.66.28.23.56.45.83.69.27.24.54.48.81.72.26.23.52.47.77.71.27.25.53.52.8.78.24.24.48.48.72.73.27.28.53.56.79.84.22.24.44.49.66.74.26.3.52.6.78.9.21.25.41.5.61.75.26.32.51.64.76.96.19.24.37.49.55.74.25.35.51.69.75,1.04.16.22.3.45.46.68.26.39.53.78.78,1.17.06.1.12.2.18.3.97,1.56,1.87,3.19,2.69,4.88.09.19.19.37.28.56.22.46.42.92.62,1.39.1.23.2.46.3.69.19.45.37.91.55,1.37.1.25.2.5.29.76.17.46.33.92.49,1.39.09.26.18.53.27.79.15.47.3.94.44,1.42.08.27.16.53.23.8.14.48.27.97.39,1.46.07.26.13.53.19.79.12.5.24,1.01.35,1.52.05.25.1.5.15.75.1.53.21,1.06.3,1.6.03.2.06.41.09.61.09.59.18,1.18.26,1.78,0,0,0,0,0,0,.49,1.29.92,2.62,1.3,3.99,0,.03.02.06.02.09.36,1.33.68,2.69.93,4.07.01.06.02.12.04.19.25,1.37.44,2.77.57,4.18,0,.07.02.13.02.2.13,1.47.2,2.95.2,4.46,0,0,0,0,0,0,0,2.68-.21,5.3-.61,7.84-.13.85-.29,1.68-.46,2.51-1.4,6.61-4.11,12.59-7.78,17.49-.73.98-1.5,1.92-2.31,2.81-.81.89-1.65,1.74-2.52,2.53-2.62,2.38-5.54,4.32-8.67,5.71-1.04.46-2.11.87-3.2,1.21-2.72.85-5.57,1.3-8.51,1.3-.9,0-1.79-.06-2.67-.14-.1,0-.2-.02-.3-.03-.9-.09-1.79-.23-2.66-.41,0,0,0,0,0,0-.95.17-1.92.29-2.89.38-.23.02-.46.04-.69.06-.98.08-1.97.13-2.97.13h0c-5.27,0-10.33-1.09-15-3.1-.67-.29-1.33-.59-1.98-.91-5.22-2.58-9.92-6.32-13.87-10.95Z"/>
  <path class="st6" d="M342.84,484.55c-1.73-.82-3.41-1.73-5.05-2.72,1.64,1,3.32,1.91,5.05,2.72Z"/>
  <path class="st6" d="M337.79,368.06c1.64-1,3.32-1.91,5.05-2.72-1.73.82-3.41,1.73-5.05,2.72Z"/>
  <path class="st6" d="M365.33,476.02h0c-5.27,0-10.33-1.09-15-3.1,4.68,2,9.73,3.1,15,3.1Z"/>
  <path class="st6" d="M408.49,417.44c-.08-.6-.17-1.19-.26-1.78.09.59.18,1.18.26,1.78h0Z"/>
  <path class="st6" d="M365.33,373.87c-5.27,0-10.33,1.09-15,3.1,4.68-2,9.73-3.1,15-3.1h0Z"/>
  <polygon class="st6" points="408.49 417.44 408.49 417.44 408.49 417.44 408.49 417.44"/>
  <path class="st6" d="M410.96,442.46c.4-2.54.61-5.16.61-7.84,0,0,0,0,0,0,0,0,0,0,0,0,0,2.68-.21,5.3-.61,7.84Z"/>
  <polygon class="st6" points="408.49 417.44 408.49 417.44 408.49 417.44 408.49 417.44"/>
  <path class="st6" d="M408.81,420.78c.02.24.03.48.05.72.07,1.14.11,2.29.11,3.45,0,1.49-.07,2.96-.17,4.42-.01.16-.02.33-.03.49-.11,1.38-.28,2.74-.48,4.09-.03.22-.06.44-.1.66-.22,1.32-.47,2.61-.77,3.89-.05.22-.11.44-.16.66-.32,1.28-.67,2.54-1.07,3.78-.06.17-.12.35-.18.52-.42,1.28-.88,2.54-1.39,3.76-.03.07-.06.13-.08.19-.52,1.24-1.08,2.45-1.68,3.63-.04.08-.08.16-.12.24-.6,1.16-1.24,2.28-1.91,3.38-.09.15-.18.3-.27.44-.66,1.06-1.36,2.08-2.09,3.07-.11.16-.23.31-.35.47-.74.98-1.5,1.93-2.3,2.85-.11.13-.23.25-.34.38-.83.93-1.68,1.82-2.57,2.67-.07.07-.14.13-.21.2-1.87,1.76-3.87,3.35-5.97,4.74-.1.06-.19.13-.29.2-1.01.65-2.04,1.25-3.1,1.81-.14.08-.28.15-.43.23-1.05.54-2.11,1.03-3.2,1.48-.15.06-.3.12-.45.18-1.11.44-2.23.83-3.38,1.16-.11.03-.23.06-.34.09-1.2.34-2.42.63-3.66.84h0c.88.18,1.76.31,2.66.41.1.01.2.02.3.03.88.08,1.77.14,2.67.14,2.94,0,5.79-.45,8.51-1.3,1.09-.34,2.16-.74,3.2-1.21,3.13-1.39,6.04-3.33,8.67-5.71.87-.79,1.72-1.64,2.52-2.53.81-.89,1.58-1.83,2.31-2.81,3.66-4.9,6.38-10.88,7.78-17.49.17-.83.33-1.66.46-2.51.4-2.54.61-5.16.61-7.84,0,0,0,0,0,0,0-1.51-.07-3-.2-4.46,0-.07-.01-.13-.02-.2-.13-1.42-.32-2.81-.57-4.18-.01-.06-.02-.13-.04-.19-.25-1.39-.57-2.74-.93-4.07,0-.03-.02-.06-.02-.09-.38-1.36-.81-2.69-1.3-3.99,0,0,0,0,0,0,.14,1.1.24,2.22.32,3.34Z"/>
  <path class="st6" d="M411.36,430.15c.13,1.47.2,2.95.2,4.46,0-1.51-.07-3-.2-4.46Z"/>
  <path class="st6" d="M392.68,464.73c-1.87,1.76-3.87,3.35-5.97,4.74,2.1-1.39,4.1-2.97,5.97-4.74Z"/>
  <path class="st6" d="M408.49,417.44h0c.14,1.1.24,2.22.32,3.34-.08-1.12-.18-2.24-.32-3.34Z"/>
  <path class="st6" d="M375.53,474.6c.11-.03.23-.06.34-.09,1.15-.33,2.27-.72,3.38-1.16.15-.06.3-.12.45-.18,1.09-.44,2.16-.94,3.2-1.48.14-.07.29-.15.43-.23,1.05-.56,2.09-1.16,3.1-1.81.1-.06.19-.13.29-.2,2.1-1.39,4.1-2.97,5.97-4.74.07-.07.14-.13.21-.2.89-.85,1.74-1.75,2.57-2.67.11-.13.23-.25.34-.38.8-.91,1.57-1.86,2.3-2.85.12-.15.23-.31.35-.47.73-.99,1.43-2.02,2.09-3.07.09-.15.18-.3.27-.44.67-1.1,1.31-2.22,1.91-3.38.04-.08.08-.16.12-.24.6-1.18,1.16-2.39,1.68-3.63.03-.06.06-.13.08-.19.51-1.23.97-2.48,1.39-3.76.06-.17.12-.35.18-.52.4-1.24.75-2.5,1.07-3.78.05-.22.11-.44.16-.66.3-1.28.56-2.58.77-3.89.04-.22.07-.44.1-.66.2-1.35.37-2.71.48-4.09.01-.16.02-.33.03-.49.11-1.46.17-2.93.17-4.42,0-1.16-.05-2.31-.11-3.45-.01-.24-.03-.48-.05-.72-.08-1.12-.18-2.24-.32-3.34,0,0,0,0,0,0-.67-1.78-1.44-3.49-2.3-5.13,0,0,0-.02-.01-.02-.86-1.62-1.8-3.16-2.83-4.62-.02-.03-.04-.05-.06-.08-1.02-1.43-2.11-2.78-3.28-4.03-.04-.04-.08-.09-.12-.13-.57-.61-1.16-1.2-1.77-1.76,0,0,0,0-.01,0-.61-.57-1.24-1.11-1.89-1.62-.07-.05-.13-.1-.2-.16-.58-.46-1.18-.9-1.78-1.31-.07-.05-.14-.1-.22-.15-.65-.44-1.32-.86-1.99-1.24-.09-.05-.18-.1-.27-.15-.59-.33-1.2-.64-1.81-.94-.13-.06-.26-.13-.39-.19-.69-.32-1.38-.61-2.09-.87-.1-.04-.19-.07-.29-.1-.62-.22-1.24-.42-1.87-.6-.17-.05-.34-.1-.52-.15-.72-.19-1.44-.36-2.18-.5-.07-.01-.15-.02-.22-.03-.67-.12-1.34-.21-2.02-.27-.19-.02-.39-.04-.59-.05-.75-.06-1.51-.1-2.28-.1-18.81,0-34.06,18.54-34.06,41.4,0,1.19.05,2.36.13,3.52,0,.14.02.28.03.42.09,1.1.21,2.19.37,3.27.03.18.05.36.08.55.17,1.06.36,2.1.59,3.13.04.17.08.34.12.5.25,1.05.52,2.08.83,3.09.03.1.07.21.1.31.67,2.13,1.48,4.17,2.42,6.12.04.09.08.17.12.26.46.94.95,1.85,1.47,2.74.06.11.12.21.18.32.52.88,1.08,1.74,1.65,2.57.06.08.11.16.17.23.6.85,1.23,1.68,1.89,2.47,0,.01.02.02.03.03,1.38,1.65,2.88,3.15,4.47,4.5.02.01.03.03.05.04.78.66,1.59,1.28,2.42,1.85.04.03.07.05.11.08.83.57,1.68,1.11,2.55,1.6.02.01.04.02.06.03,2.69,1.5,5.56,2.59,8.58,3.2h0c1.24-.22,2.45-.51,3.66-.84ZM372.62,414.81c.14-.66.33-1.3.59-1.91.39-.91.9-1.75,1.52-2.51.41-.5.88-.96,1.38-1.38.5-.41,1.04-.78,1.62-1.09s1.18-.57,1.82-.77c.95-.3,1.97-.46,3.02-.46s2.07.16,3.02.46c.64.2,1.25.46,1.82.77s1.12.68,1.62,1.09c.5.41.96.88,1.38,1.38.62.75,1.14,1.6,1.52,2.51.26.61.46,1.25.59,1.91.14.66.21,1.35.21,2.05,0,5.61-4.55,10.16-10.16,10.16s-10.16-4.55-10.16-10.16c0-.7.07-1.39.21-2.05Z"/>
  <path class="st6" d="M657.74,489.64c31.9,0,57.76-28.96,57.76-64.69s-25.86-64.69-57.76-64.69-57.76,28.96-57.76,64.69,25.86,64.69,57.76,64.69ZM611.7,430.15c0-.07.01-.13.02-.2.13-1.42.32-2.82.57-4.19.01-.06.02-.12.04-.18.25-1.39.57-2.75.93-4.08,0-.03.02-.06.02-.08.38-1.36.81-2.69,1.3-3.99.08-.6.17-1.2.26-1.8.03-.2.06-.4.09-.59.09-.54.2-1.08.3-1.62.05-.25.09-.49.15-.74.11-.51.23-1.02.35-1.53.06-.26.12-.52.19-.78.13-.49.26-.98.4-1.47.07-.26.15-.53.23-.79.14-.48.29-.96.45-1.43.09-.26.17-.52.26-.78.16-.47.33-.93.5-1.4.09-.25.19-.5.29-.75.18-.46.36-.93.56-1.38.1-.23.2-.46.3-.68.2-.47.41-.93.63-1.39.09-.19.18-.37.28-.56.82-1.69,1.72-3.32,2.69-4.88.06-.1.12-.2.18-.3.25-.4.52-.79.78-1.18.15-.22.3-.45.45-.67.25-.36.5-.7.76-1.05.18-.24.36-.49.54-.73.25-.33.51-.65.76-.97.2-.25.4-.5.61-.74.26-.3.51-.6.78-.9.22-.25.44-.5.66-.74.26-.28.52-.56.79-.84.24-.24.47-.49.71-.72.26-.26.53-.53.8-.78.25-.24.51-.47.77-.71.27-.24.54-.49.81-.73.27-.23.55-.46.83-.69.27-.22.54-.44.81-.66.31-.24.62-.47.93-.7.25-.19.5-.38.76-.56.44-.31.89-.61,1.34-.9.27-.18.55-.35.83-.52.44-.27.89-.55,1.34-.8.24-.14.5-.27.74-.4.37-.2.73-.4,1.11-.59.27-.13.54-.26.81-.39.36-.17.72-.34,1.09-.5.28-.12.56-.24.84-.35.36-.15.73-.3,1.1-.44.29-.11.58-.21.87-.31.37-.13.74-.25,1.11-.37.29-.09.59-.18.89-.27.38-.11.76-.21,1.15-.31.29-.07.59-.15.88-.22.39-.09.79-.17,1.19-.25.29-.06.58-.12.87-.17.42-.07.84-.13,1.26-.19.28-.04.55-.08.83-.11.47-.05.95-.09,1.43-.13.23-.02.46-.04.7-.06.71-.04,1.43-.06,2.15-.06,24.1,0,43.64,22.87,43.64,51.08s-19.54,51.08-43.64,51.08c-1,0-1.99-.05-2.97-.13-.23-.02-.46-.04-.68-.06-.97-.09-1.94-.21-2.89-.38,0,0,0,0,0,0-.88.18-1.76.31-2.66.41-.1.01-.2.02-.3.03-.88.08-1.77.14-2.67.14-18.81,0-34.06-18.54-34.06-41.4,0-1.51.07-3,.2-4.47Z"/>
  <path class="st6" d="M614.83,415.64c-.09.6-.19,1.19-.26,1.8,0,0,0,0,0,0,.08-.6.17-1.2.26-1.8Z"/>
  <path class="st6" d="M614.57,417.44c-.49,1.3-.92,2.63-1.3,3.99.38-1.36.81-2.69,1.3-3.99h0Z"/>
  <polygon class="st6" points="614.57 417.44 614.57 417.43 614.57 417.44 614.57 417.44 614.57 417.44"/>
  <path class="st6" d="M645.56,476.02c.9,0,1.79-.06,2.67-.14.1,0,.2-.02.3-.03.9-.09,1.79-.23,2.66-.41h0c-1.24-.22-2.45-.51-3.66-.84-.11-.03-.23-.06-.34-.09-1.15-.33-2.27-.72-3.38-1.16-.15-.06-.3-.12-.45-.18-1.09-.44-2.15-.94-3.2-1.48-.14-.07-.29-.15-.43-.23-1.05-.56-2.09-1.16-3.09-1.81-.1-.06-.2-.13-.29-.2-2.1-1.39-4.1-2.97-5.97-4.74-.07-.07-.14-.13-.21-.19-.89-.85-1.74-1.74-2.57-2.67-.11-.13-.23-.25-.34-.38-.8-.91-1.57-1.86-2.3-2.85-.12-.15-.23-.31-.34-.46-.73-.99-1.43-2.02-2.09-3.07-.09-.15-.18-.3-.27-.45-.67-1.1-1.31-2.22-1.91-3.38-.04-.08-.08-.17-.12-.25-.6-1.18-1.16-2.39-1.68-3.63-.03-.06-.06-.12-.08-.19-.51-1.23-.97-2.49-1.39-3.77-.06-.17-.12-.34-.17-.52-.4-1.24-.75-2.5-1.07-3.79-.05-.22-.11-.43-.16-.65-.3-1.28-.56-2.58-.77-3.9-.04-.22-.07-.43-.1-.65-.2-1.35-.37-2.71-.48-4.09-.01-.16-.02-.32-.03-.48-.11-1.46-.17-2.93-.17-4.42,0-1.16.05-2.31.11-3.45.01-.24.03-.48.05-.71.08-1.12.18-2.24.32-3.34-.49,1.29-.92,2.63-1.3,3.99,0,.03-.02.06-.02.08-.37,1.33-.68,2.69-.93,4.08-.01.06-.02.12-.04.18-.25,1.37-.44,2.77-.57,4.19,0,.07-.01.13-.02.2-.13,1.47-.2,2.96-.2,4.47,0,22.86,15.25,41.4,34.06,41.4Z"/>
  <path class="st6" d="M611.5,434.62c0-1.51.07-3,.2-4.47-.13,1.47-.2,2.96-.2,4.47Z"/>
  <path class="st6" d="M614.57,417.44c-.14,1.1-.24,2.22-.32,3.34.08-1.12.18-2.24.32-3.34,0,0,0,0,0,0Z"/>
  <path class="st6" d="M614.21,421.49c-.07,1.14-.11,2.29-.11,3.45,0,1.49.07,2.96.17,4.42-.11-1.46-.17-2.93-.17-4.42,0-1.16.04-2.31.11-3.45Z"/>
  <path class="st6" d="M651.19,475.45c-1.24-.22-2.45-.51-3.66-.84,1.2.34,2.42.63,3.66.84Z"/>
  <path class="st6" d="M679.62,434.63s0,0,0,0c0-2.68-.21-5.3-.61-7.84.4,2.54.61,5.16.61,7.84,0,0,0,0,0,0Z"/>
  <path class="st6" d="M659.83,472.21c.87-.49,1.72-1.02,2.55-1.6.04-.03.08-.05.11-.08.83-.58,1.64-1.2,2.42-1.85.01-.01.03-.03.04-.04,1.6-1.35,3.09-2.85,4.47-4.5,0-.01.02-.02.03-.03.66-.79,1.29-1.61,1.89-2.47.06-.08.11-.16.17-.24.58-.83,1.13-1.68,1.65-2.56.06-.11.12-.21.19-.32.52-.89,1.01-1.8,1.47-2.73.04-.09.08-.18.13-.27.94-1.94,1.75-3.98,2.42-6.11.03-.11.07-.21.1-.32.31-1.01.58-2.04.83-3.08.04-.17.08-.34.12-.51.23-1.03.43-2.07.59-3.13.03-.18.05-.37.08-.55.16-1.07.28-2.16.37-3.26.01-.14.02-.29.03-.43.08-1.16.13-2.33.13-3.51,0,0,0,0,0,0,0-2.68-.21-5.3-.61-7.84-.13-.85-.29-1.68-.46-2.51-1.4-6.61-4.11-12.59-7.78-17.49-.73-.98-1.5-1.92-2.31-2.81-.81-.89-1.65-1.74-2.52-2.53-2.62-2.38-5.54-4.32-8.67-5.71-1.04-.46-2.11-.87-3.2-1.21-2.72-.85-5.57-1.3-8.51-1.3-.77,0-1.52.04-2.28.1-.2.02-.39.03-.59.05-.68.07-1.36.16-2.02.27-.07.01-.15.02-.22.03-.74.13-1.46.3-2.18.5-.17.05-.34.1-.52.15-.63.18-1.26.38-1.87.6-.09.03-.19.06-.29.1-.71.26-1.4.56-2.09.87-.13.06-.26.12-.39.19-.61.29-1.21.6-1.81.94-.09.05-.18.1-.26.15-.68.39-1.34.8-2,1.24-.07.05-.14.1-.22.15-.6.42-1.2.85-1.78,1.31-.07.05-.14.1-.2.16-.64.52-1.27,1.05-1.88,1.62,0,0,0,0-.01,0-.61.56-1.2,1.15-1.77,1.76-.04.04-.08.08-.12.13-1.17,1.25-2.27,2.6-3.28,4.03-.02.03-.04.05-.06.08-1.03,1.46-1.98,3-2.83,4.62,0,0,0,.01,0,.02-.86,1.64-1.63,3.35-2.3,5.13-.14,1.1-.24,2.22-.32,3.34-.02.24-.03.48-.05.71-.07,1.14-.11,2.29-.11,3.45,0,1.49.07,2.96.17,4.42.01.16.02.32.03.48.11,1.38.28,2.75.48,4.09.03.22.06.43.1.65.22,1.32.47,2.62.77,3.9.05.22.1.43.16.65.32,1.28.67,2.55,1.07,3.79.06.17.12.34.17.52.43,1.28.88,2.54,1.39,3.77.03.06.06.12.08.19.52,1.24,1.08,2.45,1.68,3.63.04.08.08.17.12.25.6,1.16,1.24,2.28,1.91,3.38.09.15.18.3.27.45.66,1.06,1.36,2.08,2.09,3.07.11.16.23.31.34.46.74.98,1.5,1.93,2.3,2.85.11.13.23.25.34.38.83.93,1.68,1.82,2.57,2.67.07.07.14.13.21.19,1.87,1.76,3.87,3.35,5.97,4.74.1.07.2.13.29.2,1.01.65,2.04,1.25,3.09,1.81.14.08.29.15.43.23,1.05.54,2.11,1.03,3.2,1.48.15.06.3.12.45.18,1.11.44,2.23.83,3.38,1.16.11.03.23.06.34.09,1.2.34,2.42.63,3.66.84h0c3.01-.61,5.89-1.7,8.58-3.2.02-.01.04-.02.06-.03ZM640.49,427.02c-5.61,0-10.16-4.55-10.16-10.16,0-.7.07-1.39.21-2.05.14-.66.33-1.3.59-1.91.39-.91.9-1.75,1.52-2.51.41-.5.88-.96,1.38-1.38.5-.41,1.04-.78,1.62-1.09s1.18-.57,1.82-.77c.95-.3,1.97-.46,3.02-.46s2.07.16,3.02.46c.64.2,1.25.46,1.82.77s1.12.68,1.62,1.09c.5.41.96.88,1.38,1.38.62.75,1.14,1.6,1.52,2.51.26.61.46,1.25.59,1.91.14.66.21,1.35.21,2.05,0,5.61-4.55,10.16-10.16,10.16Z"/>
  <path class="st6" d="M636.35,469.46c-2.1-1.39-4.1-2.97-5.97-4.74,1.87,1.76,3.87,3.35,5.97,4.74Z"/>
  <g>
    <path class="st4" d="M551.67,446.94h0c.01,2.73.03,5.47-.01,8.18.04-2.5.05-5.01.04-7.53,0-.21-.02-.44-.03-.65Z"/>
    <path class="st4" d="M551.28,420.84c0-.18,0-.35,0-.53-.05-3.85-.08-7.69-.04-11.54-.03,1.86-.05,3.68-.07,5.47,0,.95-.01,1.88-.02,2.81,0,.81-.01,1.64-.01,2.44,0,1.26,0,2.49,0,3.72,0,.44,0,.89,0,1.32,0,1.38.02,2.72.04,4.06,0,.26,0,.54,0,.8.02,1.52.04,3.01.07,4.47,0,.06,0,.11,0,.17.09,4.57.23,8.87.41,12.91,0,0,0,.01,0,.02h0c-.04-8.63-.28-17.37-.39-26.11Z"/>
    <path class="st4" d="M882.83,524.3c.36-3.73,2.56-7,5.84-8.71.56-.29,1.13-.54,1.75-.74.14-.04,4.22-1.4,10.5-4.29,12.58-5.79,33.99-17.79,50.36-37.92-.02-.11-.04-.21-.07-.32,0,0,0,0,0,0-.03-.11-.04-.21-.07-.32-1.98-6.25-15.98-11.96-21.2-15.04-74.07-43.67-119.82-119.88-190.93-166.88-3.49-2.31-7.06-4.5-10.67-6.62-3.04-1.79-6.11-3.53-9.23-5.17-4.55-2.39-9.18-4.62-13.89-6.66-4.71-2.05-9.5-3.91-14.37-5.58-2.43-.83-4.89-1.61-7.36-2.34-.83-.24-1.66-.48-2.49-.72-3.81-1.06-7.57-1.94-11.29-2.63s-7.38-1.2-10.99-1.52c-2.89-.26-5.75-.4-8.57-.42-5.64-.05-11.13.38-16.46,1.27-27.97,4.7-51.36,22.38-67.35,53.05-.82,1.57-1.58,3.16-2.32,4.75-.2.43-.39.87-.59,1.3-.6,1.34-1.17,2.68-1.71,4.03-.12.29-.24.57-.35.86-.63,1.61-1.21,3.22-1.77,4.84-.14.4-.26.8-.4,1.2-.44,1.32-.85,2.65-1.24,3.98-.12.4-.24.8-.36,1.21-.47,1.65-.91,3.3-1.31,4.96-.07.28-.13.57-.2.85-.34,1.43-.65,2.86-.95,4.3-.09.45-.18.89-.27,1.34-.33,1.68-.64,3.37-.91,5.07,0,0,0,.01,0,.02-.28,1.73-.52,3.46-.75,5.2-.06.44-.11.88-.17,1.32-.18,1.47-.35,2.95-.5,4.43-.03.28-.06.56-.09.85-.17,1.74-.32,3.49-.45,5.25-.03.37-.05.75-.08,1.12-.1,1.47-.19,2.94-.27,4.41-.02.38-.04.75-.06,1.13-.09,1.77-.16,3.55-.21,5.33,0,.19,0,.39-.02.58-.05,1.62-.08,3.25-.11,4.87,0,.39-.01.78-.02,1.17-.05,3.65-.05,7.31-.02,10.96,0,.28,0,.56,0,.84.02,1.8.04,3.61.06,5.41.5-21.36,3.24-42.35,13.7-61.41,11.11-20.25,26.14-33.97,43.95-41.15,2.23-.9,4.5-1.69,6.81-2.39,1.16-.35,2.32-.67,3.5-.96,2.35-.59,4.74-1.08,7.17-1.47,2.43-.39,4.9-.67,7.4-.86,1.25-.09,2.51-.16,3.78-.2,3.72-.12,7.52-.01,11.38.3.21.02.42.04.64.06,4.86.43,9.81,1.2,14.87,2.32,1.68.37,3.38.79,5.08,1.24.85.22,1.69.47,2.54.72.84.25,1.69.51,2.53.76,1.52.46,3.04.95,4.55,1.46,3.73,1.26,7.43,2.67,11.1,4.22,3.67,1.55,7.31,3.23,10.92,5.04,1.96.98,3.91,1.99,5.85,3.04,3.74,2.03,7.45,4.15,11.13,6.42,2.24,1.38,4.46,2.8,6.67,4.26,4.43,2.92,8.81,6,13.16,9.21,10.86,8.02,21.47,16.87,31.86,26.17,3.15,2.82,6.28,5.7,9.4,8.59,3.04,2.82,6.07,5.67,9.07,8.54,28.37,27.13,55.16,55.94,81.05,77.99.75.64,2.2,1.71,4,3.02.77.56,1.6,1.17,2.48,1.8.58.42,1.18.86,1.78,1.3s1.22.89,1.83,1.35c1.84,1.36,3.69,2.76,5.32,4.07.54.44,1.06.86,1.55,1.27.49.41.94.81,1.36,1.18,1.66,1.51,2.69,2.71,2.55,3.32-45.16,42.12-105.8,83.6-167.78,78.92-18.03-1.36-36.17-6.61-54.07-16.9-41.43-23.8-66.32-72.3-116.78-80.47.15.02.3.06.45.09.59,9.41,1.41,17.24,2.34,23.75,13.57,9.11,22.15,22.49,22.15,37.4,0,23.65-21.55,43.43-50.42,48.47.23,8.04-.28,29-10,47.36,71.96-8.73,82.24-49.88,82.66-51.73,1.31-6.45,7.6-10.55,14.05-9.24,6.45,1.31,10.6,7.68,9.29,14.13-.55,2.69-14.59,65.86-118.21,71.85-2.8.16-5.55.24-8.26.24-52.45,0-87.32-29.31-103.82-47.34l-1.76,1.23c-1.89,1.32-4.1,1.98-6.3,1.98s-4.34-.64-6.21-1.92c-3.78-2.58-5.56-7.23-4.49-11.68,1.65-6.83,4.38-12.17,7.74-16.3.72-1.11,1.63-2.12,2.73-2.97,9.25-8.88,21.81-10.29,30.53-8.18,4.21,1.02,7.43,4.41,8.23,8.66.8,4.25-.97,8.58-4.52,11.06l-6.23,4.34c13.01,13.58,37.66,33.31,73.32,36.73,17.03-12.29,17.6-39.76,17.4-47.52-31.38-3.49-55.49-24.18-55.49-49.2,0-14.9,8.56-28.26,22.11-37.37.92-7.76,1.52-15.97,1.91-23.77.18-.03.35-.08.53-.1-50.45,8.16-75.34,56.66-116.78,80.47-17.91,10.29-36.05,15.54-54.07,16.9-61.99,4.68-122.63-36.8-167.78-78.92-.53-2.44,17.43-14.38,20.87-17.31,27.74-23.63,56.51-55.01,87.16-83.77,4.09-3.84,8.21-7.62,12.36-11.34,16.62-14.87,33.81-28.61,51.69-39.63,4.47-2.76,8.98-5.34,13.54-7.74,9.12-4.79,18.42-8.8,27.92-11.84,2.37-.76,4.76-1.46,7.16-2.09,5.21-1.38,10.33-2.4,15.34-3.06,1.67-.22,3.33-.4,4.98-.54,3.95-.34,7.84-.44,11.65-.32,1.27.04,2.53.11,3.78.2,2.5.18,4.97.47,7.4.86,2.43.39,4.82.88,7.17,1.47,1.18.3,2.34.62,3.5.96,2.31.69,4.58,1.49,6.81,2.39,17.81,7.19,32.84,20.9,43.95,41.15,10.46,19.06,13.21,40.05,13.7,61.41.03-1.8.05-3.61.06-5.41,0-.28,0-.56,0-.84.03-3.66.03-7.31-.02-10.96,0-.39-.01-.78-.02-1.17-.03-1.63-.06-3.25-.11-4.87,0-.19,0-.39-.02-.58-.06-1.78-.13-3.56-.21-5.33-.02-.38-.04-.76-.06-1.14-.08-1.47-.17-2.94-.27-4.4-.03-.38-.05-.75-.08-1.13-.13-1.75-.28-3.5-.45-5.24-.03-.29-.06-.57-.09-.86-.15-1.48-.32-2.95-.5-4.42-.05-.44-.11-.88-.17-1.32-.23-1.74-.47-3.47-.75-5.2,0,0,0-.01,0-.02-.28-1.7-.59-3.38-.91-5.07-.09-.45-.18-.9-.27-1.35-.29-1.44-.61-2.88-.95-4.31-.07-.28-.13-.56-.19-.84-.4-1.66-.84-3.32-1.31-4.96-.12-.41-.24-.81-.36-1.22-.39-1.33-.8-2.65-1.24-3.96-.13-.4-.26-.81-.4-1.21-.55-1.62-1.14-3.24-1.77-4.84-.11-.29-.24-.58-.35-.86-.54-1.35-1.11-2.69-1.7-4.03-.19-.44-.39-.87-.59-1.31-.73-1.59-1.5-3.18-2.31-4.75-24.37-46.73-65.92-63.32-114.65-49.75-.83.23-1.66.47-2.49.72-7.41,2.19-14.66,4.85-21.73,7.92-4.71,2.05-9.34,4.27-13.89,6.66-2.27,1.2-4.53,2.43-6.76,3.71-4.47,2.55-8.85,5.25-13.14,8.09-71.11,47-116.86,123.21-190.93,166.88-5.15,3.04-18.86,8.65-21.1,14.81,24.56,30.82,61.15,42.94,61.58,43.08,4.37,1.41,7.39,5.39,7.61,9.95,0,.1.03.2.03.3.09,4.7-2.79,8.94-7.2,10.55,0,0,0,0,0,0-.18.08-.34.17-.52.24-9.65,3.54-19.39,5.33-27.97,6.18,19.86,20.15,56.3,53.62,104.6,82.94,7.07,4.29,14.25,8.41,21.51,12.37.99.49,1.98.96,2.97,1.44h-.28c43.36,23.37,89.93,40.91,138.52,52.25,43.55,10.16,88.71,15.37,134.64,15.37,1.39,0,2.76,0,4.15-.01,46.5-.32,92.7-5.91,137.65-16.52,48.18-11.37,94.93-28.51,139.07-51.09,7.93-4.05,15.76-8.3,23.51-12.7.48-.29.96-.57,1.44-.86,48.43-29.4,84.95-62.98,104.78-83.12-8.74-.82-18.76-2.62-28.67-6.25-4.42-1.62-7.32-5.87-7.21-10.57,0-.26.05-.51.08-.77.18-.09.36-.19.54-.28Z"/>
    <path class="st4" d="M394.23,398.56c.61.42,1.2.85,1.78,1.31.07.05.13.1.2.16.64.52,1.27,1.05,1.89,1.62,0,0,0,0,.01,0,.61.56,1.2,1.15,1.77,1.76.04.04.08.09.12.13,1.17,1.25,2.27,2.6,3.28,4.03.02.03.04.05.06.08,1.03,1.46,1.97,3,2.83,4.62,0,0,0,.02.01.02.86,1.63,1.63,3.35,2.3,5.13,0,0,0,0,0,0-.08-.6-.17-1.19-.26-1.78-.03-.2-.06-.41-.09-.61-.09-.54-.19-1.07-.3-1.6-.05-.25-.1-.5-.15-.75-.11-.51-.22-1.01-.35-1.52-.06-.26-.13-.53-.19-.79-.12-.49-.26-.98-.39-1.46-.08-.27-.15-.53-.23-.8-.14-.48-.29-.95-.44-1.42-.09-.26-.18-.53-.27-.79-.16-.47-.32-.93-.49-1.39-.1-.25-.19-.51-.29-.76-.18-.46-.36-.92-.55-1.37-.1-.23-.2-.46-.3-.69-.2-.47-.41-.93-.62-1.39-.09-.19-.18-.37-.28-.56-.82-1.69-1.72-3.32-2.69-4.88-.06-.1-.12-.2-.18-.3-.25-.4-.52-.79-.78-1.17-.15-.23-.3-.46-.46-.68-.25-.35-.5-.7-.75-1.04-.18-.25-.36-.5-.55-.74-.25-.33-.5-.64-.76-.96-.2-.25-.4-.5-.61-.75-.25-.3-.51-.6-.78-.9-.22-.25-.44-.5-.66-.74-.26-.28-.52-.56-.79-.84-.24-.25-.48-.49-.72-.73-.26-.26-.53-.52-.8-.78-.25-.24-.51-.48-.77-.71-.27-.24-.54-.49-.81-.72-.27-.24-.55-.46-.83-.69-.27-.22-.53-.44-.81-.66-.31-.24-.62-.47-.93-.7-.25-.19-.5-.38-.76-.56-.44-.31-.89-.61-1.34-.9-.27-.18-.55-.35-.82-.52-.44-.28-.89-.55-1.34-.81-.24-.14-.49-.26-.74-.4-.37-.2-.74-.4-1.11-.59-.27-.13-.54-.26-.81-.39-.36-.17-.72-.34-1.09-.5-.28-.12-.56-.24-.84-.35-.37-.15-.73-.3-1.1-.44-.29-.11-.58-.21-.87-.31-.37-.13-.74-.25-1.12-.37-.29-.09-.59-.18-.88-.27-.38-.11-.76-.21-1.15-.31-.29-.07-.59-.15-.88-.22-.4-.09-.79-.17-1.19-.25-.29-.06-.58-.12-.87-.17-.42-.07-.84-.13-1.26-.19-.28-.04-.55-.08-.83-.11-.47-.05-.95-.09-1.43-.13-.23-.02-.46-.04-.69-.06-.71-.04-1.43-.06-2.15-.06-5.27,0-10.33,1.09-15,3.1-.67.29-1.33.59-1.98.91-5.22,2.58-9.92,6.32-13.87,10.95-.99,1.16-1.93,2.37-2.82,3.63-6.23,8.83-9.96,20.15-9.96,32.49s3.74,23.66,9.96,32.49c.89,1.26,1.83,2.47,2.82,3.63,3.95,4.62,8.65,8.36,13.87,10.95.65.32,1.31.63,1.98.91,4.68,2,9.73,3.1,15,3.1h0c1,0,1.99-.05,2.97-.13.23-.02.46-.04.69-.06.97-.09,1.94-.21,2.89-.38,0,0,0,0,0,0-3.01-.61-5.89-1.7-8.58-3.2-.02-.01-.04-.02-.06-.03-.87-.49-1.72-1.02-2.55-1.6-.04-.03-.07-.05-.11-.08-.83-.58-1.64-1.2-2.42-1.85-.02-.01-.03-.03-.05-.04-1.59-1.35-3.09-2.85-4.47-4.5,0-.01-.02-.02-.03-.03-.66-.79-1.29-1.62-1.89-2.47-.06-.08-.11-.16-.17-.23-.58-.83-1.13-1.68-1.65-2.57-.06-.1-.12-.21-.18-.32-.52-.89-1.01-1.8-1.47-2.74-.04-.09-.08-.17-.12-.26-.94-1.94-1.75-3.99-2.42-6.12-.03-.1-.07-.21-.1-.31-.31-1.01-.58-2.04-.83-3.09-.04-.17-.08-.33-.12-.5-.23-1.03-.43-2.07-.59-3.13-.03-.18-.05-.36-.08-.55-.16-1.08-.28-2.16-.37-3.27-.01-.14-.02-.28-.03-.42-.08-1.16-.13-2.34-.13-3.52,0-22.86,15.25-41.4,34.06-41.4.77,0,1.52.04,2.28.1.2.02.39.03.59.05.68.07,1.35.16,2.02.27.07.01.15.02.22.03.74.13,1.46.3,2.18.5.17.05.34.1.52.15.63.18,1.26.38,1.87.6.1.03.19.06.29.1.71.26,1.4.56,2.09.87.13.06.26.12.39.19.61.29,1.21.6,1.81.94.09.05.18.1.27.15.68.39,1.34.8,1.99,1.24.07.05.15.1.22.15Z"/>
    <path class="st4" d="M390.41,410.4c-.41-.5-.88-.96-1.38-1.38-.5-.41-1.04-.78-1.62-1.09s-1.19-.57-1.82-.77c-.95-.3-1.97-.46-3.02-.46s-2.07.16-3.02.46c-.64.2-1.25.46-1.82.77s-1.12.68-1.62,1.09c-.5.41-.96.88-1.38,1.38-.62.75-1.14,1.6-1.52,2.51-.26.61-.46,1.25-.59,1.91-.14.66-.21,1.35-.21,2.05,0,5.61,4.55,10.16,10.16,10.16s10.16-4.55,10.16-10.16c0-.7-.07-1.39-.21-2.05-.14-.66-.33-1.3-.59-1.91-.39-.91-.9-1.75-1.52-2.51Z"/>
    <path class="st4" d="M679.48,438.14c0,.14-.02.29-.03.43-.09,1.1-.21,2.19-.37,3.26-.03.18-.05.37-.08.55-.17,1.06-.36,2.1-.59,3.13-.04.17-.08.34-.12.51-.25,1.04-.52,2.07-.83,3.08-.03.11-.07.21-.1.32-.67,2.13-1.48,4.17-2.42,6.11-.04.09-.08.18-.13.27-.46.94-.95,1.85-1.47,2.73-.06.11-.12.21-.19.32-.52.88-1.07,1.74-1.65,2.56-.06.08-.11.16-.17.24-.6.85-1.23,1.68-1.89,2.47,0,.01-.02.02-.03.03-1.38,1.65-2.88,3.16-4.47,4.5-.01.01-.03.02-.04.04-.78.66-1.59,1.28-2.42,1.85-.04.03-.08.05-.11.08-.83.57-1.68,1.11-2.55,1.6-.02.01-.04.02-.06.03-2.69,1.5-5.57,2.59-8.58,3.2,0,0,0,0,0,0,.95.17,1.92.29,2.89.38.23.02.46.04.68.06.98.08,1.97.13,2.97.13,24.1,0,43.64-22.87,43.64-51.08s-19.54-51.08-43.64-51.08c-.72,0-1.44.02-2.15.06-.23.01-.46.04-.7.06-.48.04-.95.07-1.43.13-.28.03-.55.07-.83.11-.42.06-.84.12-1.26.19-.29.05-.58.11-.87.17-.4.08-.8.16-1.19.25-.3.07-.59.14-.88.22-.38.1-.77.2-1.15.31-.3.09-.59.17-.89.27-.37.12-.74.24-1.11.37-.29.1-.58.2-.87.31-.37.14-.73.29-1.1.44-.28.12-.56.23-.84.35-.37.16-.73.33-1.09.5-.27.13-.54.25-.81.39-.37.19-.74.39-1.11.59-.25.13-.5.26-.74.4-.45.26-.9.53-1.34.8-.28.17-.55.35-.83.52-.45.29-.9.59-1.34.9-.26.18-.51.38-.76.56-.31.23-.62.46-.93.7-.27.21-.54.44-.81.66-.28.23-.55.45-.83.69-.27.24-.54.48-.81.73-.26.23-.51.47-.77.71-.27.26-.54.52-.8.78-.24.24-.48.48-.71.72-.27.28-.53.56-.79.84-.22.24-.44.49-.66.74-.26.3-.52.6-.78.9-.21.25-.41.5-.61.74-.26.32-.51.64-.76.97-.18.24-.36.49-.54.73-.26.35-.51.7-.76,1.05-.15.22-.3.45-.45.67-.26.39-.53.78-.78,1.18-.06.1-.12.2-.18.3-.97,1.56-1.87,3.19-2.69,4.88-.09.19-.19.37-.28.56-.22.46-.42.93-.63,1.39-.1.23-.2.45-.3.68-.19.46-.38.92-.56,1.38-.1.25-.2.5-.29.75-.17.46-.34.93-.5,1.4-.09.26-.18.52-.26.78-.15.47-.3.95-.45,1.43-.08.26-.15.52-.23.79-.14.49-.27.98-.4,1.47-.07.26-.13.52-.19.78-.12.51-.24,1.02-.35,1.53-.05.24-.1.49-.15.74-.11.54-.21,1.07-.3,1.62-.03.2-.06.39-.09.59-.09.6-.19,1.19-.26,1.8h0c.67-1.78,1.44-3.5,2.3-5.13,0,0,0-.01,0-.02.86-1.62,1.8-3.16,2.83-4.62.02-.03.04-.05.06-.08,1.02-1.43,2.12-2.78,3.28-4.03.04-.04.08-.08.12-.13.57-.61,1.16-1.2,1.77-1.76,0,0,0,0,.01,0,.61-.57,1.24-1.1,1.88-1.62.07-.05.14-.1.2-.16.58-.46,1.17-.9,1.78-1.31.07-.05.14-.1.22-.15.65-.44,1.32-.86,2-1.24.09-.05.18-.1.26-.15.59-.33,1.2-.64,1.81-.94.13-.06.26-.13.39-.19.69-.32,1.38-.61,2.09-.87.09-.03.19-.06.29-.1.62-.22,1.24-.42,1.87-.6.17-.05.34-.1.52-.15.72-.19,1.44-.36,2.18-.5.07-.01.15-.02.22-.03.67-.12,1.34-.21,2.02-.27.19-.02.39-.04.59-.05.75-.06,1.51-.1,2.28-.1,2.94,0,5.79.45,8.51,1.3,1.09.34,2.16.74,3.2,1.21,3.13,1.39,6.04,3.33,8.67,5.71.87.79,1.72,1.64,2.52,2.53.81.89,1.58,1.83,2.31,2.81,3.66,4.9,6.38,10.88,7.78,17.49.17.83.33,1.66.46,2.51.4,2.54.61,5.16.61,7.84,0,0,0,0,0,0,0,1.18-.05,2.35-.13,3.51Z"/>
    <path class="st4" d="M648.33,410.4c-.41-.5-.88-.96-1.38-1.38-.5-.41-1.04-.78-1.62-1.09s-1.19-.57-1.82-.77c-.95-.3-1.97-.46-3.02-.46s-2.07.16-3.02.46c-.64.2-1.25.46-1.82.77s-1.12.68-1.62,1.09c-.5.41-.96.88-1.38,1.38-.62.75-1.14,1.6-1.52,2.51-.26.61-.46,1.25-.59,1.91-.14.66-.21,1.35-.21,2.05,0,5.61,4.55,10.16,10.16,10.16s10.16-4.55,10.16-10.16c0-.7-.07-1.39-.21-2.05-.14-.66-.33-1.3-.59-1.91-.39-.91-.9-1.75-1.52-2.51Z"/>
  </g>
  <g>
    <path class="st3" d="M471.75,404.35h0c-.5-21.36-3.24-42.35-13.7-61.41-11.11-20.25-26.14-33.97-43.95-41.15-2.23-.9-4.5-1.69-6.81-2.39-1.16-.35-2.32-.67-3.5-.96-2.35-.59-4.74-1.08-7.17-1.47-2.43-.39-4.9-.67-7.4-.86-1.25-.09-2.51-.16-3.78-.2-3.81-.12-7.69-.01-11.65.32-1.65.14-3.31.32-4.98.54-5.01.66-10.13,1.68-15.34,3.06-2.4.64-4.79,1.33-7.16,2.09-9.5,3.04-18.8,7.05-27.92,11.84-4.56,2.39-9.07,4.98-13.54,7.74-17.88,11.03-35.07,24.76-51.69,39.63-4.15,3.72-8.27,7.51-12.36,11.34-30.65,28.77-59.41,60.15-87.16,83.77-3.44,2.93-21.4,14.88-20.87,17.31,45.16,42.12,105.8,83.6,167.78,78.92,18.03-1.36,36.17-6.61,54.07-16.9,41.43-23.8,66.32-72.3,116.78-80.47-.03-1.92-.04-3.85-.05-5.79,0-.26,0-.52,0-.79,0-1.82.02-3.64.04-5.46,0-.41,0-.83.01-1.24.02-1.7.05-3.41.08-5.12.02-.91.03-1.81.05-2.72,0-.25.01-.51.02-.76.11-5.37.23-10.76.27-16.15,0,0,0,0,0,0,.02-2.08.02-4.16.01-6.24,0-.09,0-.19,0-.28-.01-2.08-.04-4.15-.08-6.22ZM333.03,371.3c1.54-1.16,3.13-2.24,4.76-3.24,1.64-1,3.32-1.91,5.05-2.72.86-.41,1.74-.8,2.62-1.16,2.65-1.09,5.4-1.96,8.22-2.61.94-.22,1.89-.41,2.84-.57,2.87-.49,5.81-.75,8.8-.75,3.99,0,7.88.45,11.64,1.31,2.82.65,5.57,1.52,8.22,2.61.88.36,1.76.75,2.62,1.16,1.73.82,3.41,1.73,5.05,2.72,1.64,1,3.23,2.08,4.76,3.24,2.3,1.74,4.49,3.67,6.54,5.76,1.37,1.39,2.68,2.86,3.92,4.39,9.32,11.49,15.01,26.75,15.01,43.5s-5.68,32.01-15.01,43.5c-1.24,1.53-2.55,3-3.92,4.39-2.05,2.09-4.24,4.01-6.54,5.76-1.54,1.16-3.13,2.24-4.76,3.24-1.64,1-3.32,1.91-5.05,2.72-.86.41-1.74.8-2.62,1.16-2.65,1.09-5.4,1.96-8.22,2.61-3.76.86-7.65,1.31-11.64,1.31-2.99,0-5.93-.25-8.8-.75-.96-.16-1.9-.35-2.84-.57-2.82-.65-5.57-1.52-8.22-2.61-.88-.36-1.76-.75-2.62-1.16-1.73-.82-3.41-1.73-5.05-2.72-1.64-1-3.23-2.08-4.76-3.24-15.36-11.63-25.47-31.31-25.47-53.64s10.1-42.02,25.47-53.64Z"/>
    <path class="st3" d="M887.74,470.25c-.42-.38-.87-.77-1.36-1.18-.49-.41-1.01-.84-1.55-1.27-1.63-1.31-3.48-2.7-5.32-4.07-.61-.45-1.23-.91-1.83-1.35s-1.2-.88-1.78-1.3c-.87-.63-1.71-1.24-2.48-1.8-1.8-1.31-3.24-2.38-4-3.02-25.89-22.05-52.68-50.86-81.05-77.99-3-2.87-6.03-5.71-9.07-8.54-3.11-2.89-6.24-5.77-9.4-8.59-10.39-9.3-21-18.15-31.86-26.17-4.34-3.21-8.73-6.29-13.16-9.21-2.21-1.46-4.44-2.88-6.67-4.26-3.68-2.27-7.39-4.39-11.13-6.42-1.94-1.05-3.89-2.06-5.85-3.04-3.61-1.81-7.25-3.49-10.92-5.04-3.67-1.55-7.37-2.96-11.1-4.22-1.51-.51-3.03-1-4.55-1.46-.84-.26-1.69-.51-2.53-.76-.84-.25-1.69-.49-2.54-.72-1.7-.45-3.4-.86-5.08-1.24-5.05-1.12-10.01-1.89-14.87-2.32-.21-.02-.42-.04-.64-.06-3.86-.32-7.66-.42-11.38-.3-1.27.04-2.53.11-3.78.2-2.5.18-4.97.47-7.4.86-2.43.39-4.82.88-7.17,1.47-1.18.3-2.34.62-3.5.96-2.31.69-4.58,1.49-6.81,2.39-17.81,7.19-32.84,20.9-43.95,41.15-10.46,19.06-13.21,40.05-13.7,61.41h0c-.03,1.47-.06,2.94-.07,4.42-.04,3.84-.01,7.69.04,11.54,0,.18,0,.35,0,.53.12,8.75.36,17.48.39,26.11h0c0,.21.02.44.03.65,0,2.52,0,5.03-.04,7.53,50.45,8.16,75.34,56.66,116.78,80.47,17.91,10.29,36.05,15.54,54.07,16.9,61.99,4.68,122.63-36.8,167.78-78.92.13-.61-.89-1.81-2.55-3.32ZM657.74,360.26c31.9,0,57.76,28.96,57.76,64.69s-25.86,64.69-57.76,64.69-57.76-28.96-57.76-64.69,25.86-64.69,57.76-64.69Z"/>
    <path class="st3" d="M211.95,251.04c13.92-14.27,26.38-23.75,34.74-29.37l-6.21-8.83-18.11-25.75c-.85-1.2-1.39-2.54-1.7-3.91-.67-2.99-.12-6.19,1.74-8.8,1-1.4,2.28-2.51,3.73-3.3,2.48-1.34,5.43-1.72,8.26-.91l36.2,10.34.98.28c-15.71-18.73-41.12-42.8-73.68-52.32-.57-.17-1.11-.39-1.63-.64,0,0-.01,0-.02,0-.08-.04-.16-.07-.24-.11-.01,0-.02-.02-.04-.02-.52-.26-1-.57-1.46-.9-.05-.03-.09-.07-.14-.1-.02-.02-.04-.04-.06-.05,0,0,0,0,0,0-.36-.28-.7-.58-1.03-.89-.05-.05-.1-.08-.15-.13-.03-.03-.07-.07-.1-.11-.34-.36-.65-.74-.94-1.14-.05-.07-.11-.12-.16-.19,0,0,0,0-.01-.01-.05-.08-.09-.16-.14-.24-.26-.4-.5-.81-.71-1.24,0,0,0,0,0,0-.03-.05-.05-.1-.08-.16,0,0,0,0,0,0-.23-.51-.43-1.03-.58-1.57,0,0,0,0,0-.01-.01-.05-.03-.1-.04-.15,0,0,0-.01,0-.02-.3-1.13-.43-2.32-.36-3.52h0s0-.04,0-.06h0c-.14.71-.29,1.58-.44,2.53-2.93,18.58-6.22,81.1,22.31,131.2.03.04.05.09.07.13Z"/>
    <path class="st3" d="M792.65,169.77c3.49,0,6.85,1.66,8.94,4.6,2.7,3.8,2.72,8.89.03,12.71l-24.32,34.58c8.29,5.57,20.62,14.95,34.4,29.03,28.48-50.21,25.11-112.78,22.17-131.15-.57,3.76-3.07,7.09-6.76,8.57-.33.13-.68.25-1.03.36-6.13,1.79-12.01,4.1-17.62,6.79-24.06,11.55-43.13,30.15-55.89,45.32l36.49-10.42c1.18-.34,2.39-.46,3.57-.4Z"/>
  </g>
  <path class="st5" d="M537.53,470.74c-.66-.22-1.34-.43-2.01-.63-.27-.08-.55-.17-.82-.25-.61-.18-1.22-.34-1.84-.51-.36-.09-.71-.19-1.07-.28-.57-.14-1.14-.28-1.72-.41-.42-.09-.84-.19-1.26-.27-.54-.11-1.08-.22-1.63-.32-.47-.09-.95-.17-1.42-.25-.51-.09-1.03-.17-1.54-.25-.52-.08-1.05-.15-1.58-.22-.49-.06-.97-.13-1.46-.18-.58-.07-1.17-.12-1.76-.17-.45-.04-.89-.09-1.34-.12-.68-.05-1.36-.08-2.05-.12-.37-.02-.73-.05-1.1-.06-1.06-.04-2.13-.06-3.2-.06s-2.14.02-3.2.06c-.37.01-.73.04-1.1.06-.69.03-1.37.07-2.06.12-.45.03-.89.08-1.34.12-.59.05-1.18.11-1.76.17-.49.05-.98.12-1.47.18-.53.07-1.05.14-1.57.22-.52.08-1.04.16-1.55.25-.47.08-.95.16-1.42.25-.55.1-1.09.21-1.63.32-.42.09-.84.18-1.26.27-.58.13-1.15.26-1.72.41-.36.09-.72.19-1.08.28-.61.16-1.22.33-1.83.5-.28.08-.56.17-.84.26-.67.2-1.33.41-1.99.63-.16.05-.32.11-.48.17-6.03,2.05-11.57,4.79-16.47,8.08-13.55,9.11-22.11,22.47-22.11,37.37,0,25.02,24.11,45.71,55.49,49.2.2,7.76-.38,35.23-17.4,47.52-35.66-3.43-60.31-23.15-73.32-36.73l6.23-4.34c3.55-2.48,5.32-6.81,4.52-11.06-.8-4.25-4.02-7.64-8.23-8.66-8.71-2.11-21.27-.7-30.53,8.18-1.1.85-2.01,1.85-2.73,2.97-3.36,4.13-6.09,9.47-7.74,16.3-1.08,4.45.71,9.09,4.49,11.68,1.87,1.28,4.04,1.92,6.21,1.92s4.41-.66,6.3-1.98l1.76-1.23c16.5,18.03,51.37,47.34,103.82,47.34,2.7,0,5.46-.08,8.26-.24,103.62-5.98,117.66-69.16,118.21-71.85,1.31-6.45-2.84-12.82-9.29-14.13-6.45-1.32-12.73,2.78-14.05,9.24-.42,1.85-10.7,42.99-82.66,51.73,9.72-18.35,10.22-39.32,10-47.36,28.87-5.04,50.42-24.82,50.42-48.47,0-14.92-8.58-28.29-22.15-37.4-4.9-3.29-10.46-6.02-16.5-8.08-.14-.05-.28-.1-.42-.15ZM551.01,501.68c0,8.11-14.13,14.69-31.55,14.69s-31.55-6.58-31.55-14.69,14.13-14.69,31.55-14.69,31.55,6.58,31.55,14.69Z"/>
  <path class="st5" d="M231.66,637.41c-7.26-3.97-14.44-8.08-21.51-12.37-48.29-29.32-84.74-62.79-104.6-82.94-.05-.05-.12-.12-.17-.17,8.74-.82,18.75-2.61,28.66-6.25,0,0,0,0,0,0,4.41-1.62,7.3-5.86,7.2-10.55,0-.1-.03-.2-.03-.3-.22-4.57-3.23-8.55-7.61-9.95-.43-.14-37.02-12.26-61.58-43.08-2.01-2.52-3.94-5.15-5.76-7.92,22.67-13.66,77.27-52.07,109.47-121,37.08-79.37,91.16-107.83,91.68-108.09,2.85-1.44,4.93-4.05,5.71-7.15.77-3.1.16-6.38-1.67-9l-12.82-18.24-.35-.49,37.74,10.78c2.55.72,5.2.48,7.52-.56,1.6-.71,3.04-1.79,4.16-3.22,2.76-3.52,3.12-8.36.91-12.25-1.58-2.78-39.55-68.31-104.54-87.29-2.71-.79-5.48-.48-7.84.65-2.72,1.3-4.9,3.71-5.81,6.83-.23.8-.36,1.6-.41,2.4h0c-.08,1.21.05,2.39.36,3.53.02.06.03.12.05.18.15.54.35,1.06.58,1.57.03.06.06.11.08.17.21.43.45.84.71,1.24.1.15.2.3.31.45.29.4.6.78.94,1.14,0,0,0,0,0,0,.08.08.17.16.25.24,0,0,0,0,0,0,.32.32.66.61,1.02.89.07.05.13.11.2.16,0,0,0,0,0,0,.46.33.95.63,1.46.9,0,0,0,0,0,0,.1.05.2.09.29.14,0,0,0,0,0,0,.52.25,1.06.47,1.63.64,32.56,9.51,57.97,33.58,73.68,52.32,0,0,0,0,0,0l-.98-.28-36.21-10.34c-2.82-.8-5.76-.43-8.23.89-1.46.78-2.75,1.9-3.76,3.31-1.85,2.6-2.41,5.81-1.74,8.79.31,1.38.86,2.71,1.7,3.91l18.11,25.75,6.21,8.83s0,0,0,0c-8.36,5.62-20.82,15.1-34.74,29.37-10.56,10.83-21.96,24.43-33.07,41.21-.04-.09-.07-.18-.11-.26-13.6-32.62-37.5-104.94-22.9-183.81,2.64-14.24,8.37-23.27,17.48-27.51.72-.34,1.46-.65,2.22-.93,20.41-7.38,58.05,4.65,105.97,33.87,38.38,23.41,70.23,49.79,70.55,50.06,3.03,2.52,7.17,3.23,10.87,1.86l66.88-24.82.1-.04c1.23-.46,2.36-1.13,3.36-1.98.59-.51,45.62-39.04,88-58.39,13.16-6.01,26.06-10.17,37.3-10.77,2.63-.14,4.58-.09,6,.04-4.27,7.38-18.18,21.49-32.68,32.77-4.39,3.41-5.54,9.57-2.69,14.34s8.82,6.67,13.91,4.41c16.72-7.42,35.7-12.86,43.89-12.86.05,0,.11,0,.16,0-8.27,25.21-38.05,46.81-38.34,47.02-4.95,3.53-6.09,10.41-2.56,15.35,3.04,4.26,8.56,5.69,13.19,3.76.75-.31,1.48-.7,2.16-1.2,1.05-.75,18.5-13.37,32.4-32.04.08-.11.17-.23.25-.35l66.74,24.77c2.67.99,5.58.88,8.13-.2.97-.41,1.9-.96,2.74-1.65.32-.26,32.16-26.65,70.55-50.06,14.79-9.02,28.59-16.39,41.21-22.07,28.29-12.72,50.64-16.9,64.76-11.8,10.41,3.77,16.85,13.07,19.7,28.44,14.64,79.08-9.43,151.58-23.01,184.07-.09-.13-.18-.27-.26-.4-11.14-16.77-22.57-30.35-33.14-41.15-13.78-14.08-26.11-23.45-34.4-29.03l24.32-34.58c2.68-3.82,2.67-8.91-.03-12.71-2.09-2.94-5.45-4.6-8.94-4.6-1.01,0-2.04.11-3.05.4l-37.18,10.62c.06-.07.12-.14.17-.2,12.75-15.17,31.83-33.77,55.89-45.32,5.61-2.69,11.49-5,17.62-6.79.35-.1.69-.22,1.03-.36,3.69-1.48,6.19-4.8,6.76-8.57.23-1.53.15-3.14-.31-4.73-1.7-5.84-7.82-9.18-13.65-7.48-6.23,1.82-12.21,4.07-17.93,6.65-53.99,24.33-85.17,78.13-86.6,80.64-2.21,3.89-1.86,8.73.91,12.25,2.76,3.52,7.38,5.01,11.68,3.79l37.74-10.78-13.17,18.73c-1.83,2.6-2.43,5.88-1.67,8.97.76,3.09,2.84,5.71,5.67,7.16.54.28,54.62,28.74,91.71,108.11,32.21,68.93,86.8,107.34,109.47,121-2.03,3.09-4.2,6.01-6.46,8.79-16.37,20.13-37.79,32.13-50.36,37.92-6.28,2.89-10.36,4.24-10.5,4.29-.61.19-1.19.45-1.75.74-3.28,1.71-5.48,4.98-5.84,8.71-.03.27-.08.53-.08.8-.1,4.7,2.8,8.95,7.21,10.57,10.17,3.73,20.44,5.53,29.34,6.31-19.39,20.4-55.8,54.57-105.22,82.92-.73.42-1.47.82-2.2,1.24-7.75,4.4-15.59,8.65-23.51,12.7h45.4c74.07-44.7,116.91-98.83,118.76-101.2,2.75-3.52,3.09-8.35.88-12.23-2.21-3.88-6.56-6.04-11-5.46-.11.01-5.43.69-13.3.52,18.11-11.13,39.8-28.99,53.54-55.71,1.35-2.62,1.58-5.67.67-8.46-.92-2.8-2.92-5.11-5.55-6.43-.72-.36-72.41-36.82-109.56-116.34-2.99-6.4-6.08-12.48-9.24-18.28,11.08-22.61,49.43-110.54,30.81-211.1-5.4-29.13-21.39-40.62-33.87-45.13-27.63-9.98-69.73,2.09-125.13,35.91-31.07,18.97-57.35,39.28-67.96,47.75l-57.17-21.22c1.14-2.61,2.14-5.27,2.96-7.98,3.68-12.16-1.39-18.93-4.73-21.88-5.61-4.95-14.56-5.92-24.56-4.72,7.98-10.62,10.3-19.13,7.49-26.65-3.47-9.3-13.35-13.59-29.37-12.73-51.45,2.74-125.08,63.15-136.96,73.17l-59.28,22c-10.61-8.47-36.89-28.78-67.96-47.75-55.4-33.82-97.49-45.89-125.13-35.91-22.6,8.17-30.89,29.05-33.87,45.13-18.62,100.56,19.73,188.49,30.81,211.1-3.16,5.8-6.25,11.88-9.24,18.28-37.16,79.53-108.84,115.99-109.55,116.34-2.64,1.31-4.65,3.62-5.57,6.42-.92,2.8-.68,5.85.67,8.47,13.74,26.72,35.43,44.57,53.54,55.71-7.86.15-13.18-.51-13.28-.52-4.49-.6-8.9,1.61-11.09,5.57-2.2,3.97-1.74,8.87,1.15,12.36,1.9,2.29,45.8,54.72,118.98,100.95h43.69c-.89-.48-1.79-.95-2.68-1.44Z"/>
  <path class="st5" d="M213.21,652.34c39.75,22.55,82.22,40.26,126.53,52.91,53.74,15.34,110.18,23.24,167.76,23.24,1.43,0,2.87,0,4.3-.01,54.47-.37,108.54-7.74,160.79-21.7,53.2-14.21,104.52-35.26,152.45-62.76,2.96-1.7,5.86-3.42,8.73-5.15h-45.4c-44.14,22.58-90.89,39.72-139.07,51.09-44.95,10.61-91.15,16.2-137.65,16.52-1.39,0-2.76.01-4.15.01-45.92,0-91.08-5.21-134.64-15.37-48.59-11.34-95.15-28.87-138.52-52.25h-43.69c2.65,1.68,5.34,3.35,8.07,5.01,4.78,2.91,9.62,5.72,14.49,8.48Z"/>
  <path class="st5" d="M194.38,126.69s.09.07.14.1c-.07-.05-.13-.1-.2-.16,0,0,0,0,0,0,.02.02.04.04.06.05Z"/>
  <path class="st5" d="M193.29,125.74c-.08-.08-.17-.16-.25-.24.03.04.07.07.1.11.05.05.1.08.15.13Z"/>
  <path class="st5" d="M196.26,127.83s.01,0,.02,0c-.1-.05-.2-.09-.29-.14.01,0,.02.02.04.02.08.04.16.07.24.11Z"/>
  <path class="st5" d="M191.93,124.15s0,0,.01.01c.05.07.11.13.16.19h0c-.11-.15-.21-.3-.31-.45h0c.05.08.09.16.14.24Z"/>
</svg>