<?xml version="1.0" encoding="UTF-8"?>
<svg id="Layer_1" xmlns="http://www.w3.org/2000/svg" version="1.1" viewBox="0 0 800 800">
  <!-- Generator: Adobe Illustrator 29.3.1, SVG Export Plug-In . SVG Version: 2.1.0 Build 151)  -->
  <defs>
    <style>
      .st0, .st1, .st2, .st3 {
        fill: none;
      }

      .st4 {
        fill: #8e9994;
      }

      .st5 {
        fill: #2b3d43;
      }

      .st6 {
        fill: #475956;
      }

      .st7, .st8 {
        fill: #587652;
      }

      .st7, .st9, .st1, .st2, .st3 {
        stroke: #2b3d43;
      }

      .st7, .st9, .st2, .st3 {
        stroke-width: 12px;
      }

      .st7, .st9, .st3 {
        stroke-miterlimit: 10;
      }

      .st9 {
        fill: #374f34;
      }

      .st10 {
        fill: #fff;
      }

      .st1 {
        stroke-width: 13px;
      }

      .st1, .st2 {
        stroke-linecap: round;
        stroke-linejoin: round;
      }

      .st11 {
        fill: #142d34;
      }

      .st12 {
        fill: #132933;
      }

      .st13 {
        fill: #99968f;
      }
    </style>
  </defs>
  <g>
    <path class="st7" d="M578.46,415.03H200.87l26.98,267.86h0c3.93,31.66,74.86,56.88,161.81,56.88s158.49-25.44,161.85-57.29h.01l26.93-267.46Z"/>
    <path class="st7" d="M560.57,370.86c-34.92-18.35-98.06-30.6-170.15-30.6s-135.22,12.25-170.15,30.6h-28.89v33.04c0,35.15,89.11,63.64,199.04,63.64s199.04-28.49,199.04-63.64v-33.04h-28.89Z"/>
    <g>
      <path class="st8" d="M389.67,428.67c-53.18,0-103.24-5.16-140.97-14.52-41.37-10.27-62.35-23.88-62.35-40.46s20.98-30.19,62.35-40.46c37.73-9.36,87.79-14.52,140.97-14.52s103.24,5.16,140.97,14.52c41.37,10.27,62.35,23.88,62.35,40.46s-20.98,30.19-62.35,40.46c-37.73,9.37-87.79,14.52-140.97,14.52Z"/>
      <path class="st5" d="M389.67,324.71c108.98,0,197.32,21.93,197.32,48.98s-88.34,48.98-197.32,48.98-197.32-21.93-197.32-48.98,88.34-48.98,197.32-48.98M389.67,312.71c-53.65,0-104.23,5.22-142.42,14.7-19.24,4.78-34.54,10.45-45.47,16.87-14.22,8.35-21.43,18.24-21.43,29.41s7.21,21.07,21.43,29.41c10.93,6.42,26.23,12.09,45.47,16.87,38.19,9.48,88.76,14.7,142.42,14.7s104.23-5.22,142.42-14.7c19.24-4.78,34.54-10.45,45.47-16.87,14.22-8.35,21.43-18.24,21.43-29.41s-7.21-21.07-21.43-29.41c-10.93-6.42-26.23-12.09-45.47-16.87-38.19-9.48-88.76-14.7-142.42-14.7h0Z"/>
    </g>
    <ellipse class="st5" cx="389.67" cy="369.82" rx="185.78" ry="38.88"/>
    <path class="st3" d="M552.88,657.9c-30.61,24.39-91.61,41.01-161.87,41.01s-134.94-17.65-164.56-43.25"/>
    <rect class="st9" x="255.3" y="473.17" width="19.67" height="182.34" rx="9.83" ry="9.83" transform="translate(-45.42 23.66) rotate(-4.71)"/>
    <rect class="st9" x="512.24" y="473.17" width="19.67" height="182.34" rx="9.83" ry="9.83" transform="translate(996.07 1169.62) rotate(-175.29)"/>
    <rect class="st9" x="380.92" y="492.85" width="22.21" height="173.65" rx="11.1" ry="11.1" transform="translate(784.04 1159.34) rotate(180)"/>
    <rect class="st9" x="319.63" y="490.16" width="22.21" height="173.65" rx="11.1" ry="11.1" transform="translate(685.08 1139.77) rotate(177.63)"/>
    <rect class="st9" x="443.24" y="490.16" width="22.21" height="173.65" rx="11.1" ry="11.1" transform="translate(24.29 -18.33) rotate(2.37)"/>
  </g>
  <path class="st10" d="M549.98,192.31c-8.66-18.52-19.32-30.66-26.75-37.58-8.06-7.51-14.16-10.68-14.22-10.71-1.27-.65-2.19-1.82-2.53-3.2s-.07-2.85.75-4.01l5.88-8.37-16.86,4.82c-1.92.55-3.98-.12-5.22-1.69-1.23-1.57-1.39-3.73-.4-5.47.71-1.24,17.67-30.51,46.7-39,2.6-.76,5.34.73,6.1,3.34.76,2.61-.73,5.34-3.34,6.1-14.54,4.25-25.9,15-32.91,23.37l16.61-4.75c2-.57,4.15.18,5.36,1.88s1.21,3.97.02,5.68l-10.87,15.46c2.87,1.93,6.81,4.88,11.3,9.03,5.35,4.94,12.23,12.35,18.98,22.52,6.06-14.5,16.84-46.91,10.29-82.26-1.27-6.87-4.15-11.02-8.8-12.7-9.12-3.3-25.93,2.08-47.34,15.13-17.15,10.46-31.37,22.24-31.51,22.36-1.35,1.13-3.2,1.44-4.85.83l-29.81-11.06c-6.23,8.42-14.12,14.13-14.59,14.47-2.21,1.58-5.28,1.07-6.86-1.14-1.58-2.21-1.07-5.28,1.14-6.86.13-.09,13.43-9.74,17.13-21.01-3.59-.04-12.16,2.41-19.68,5.75-2.27,1.01-4.94.16-6.21-1.97-1.28-2.13-.76-4.88,1.2-6.41,6.48-5.04,12.69-11.34,14.6-14.64-.63-.05-1.51-.08-2.68-.02-21.19,1.13-55.63,30.6-55.97,30.9-.44.38-.95.68-1.5.88l-29.92,11.11c-1.65.61-3.5.3-4.85-.83-.14-.12-14.37-11.9-31.51-22.36-21.41-13.05-38.22-18.43-47.34-15.13-4.65,1.68-7.53,5.84-8.8,12.7-6.55,35.35,4.23,67.76,10.29,82.26,6.75-10.18,13.63-17.58,18.98-22.52,4.49-4.15,8.44-7.09,11.3-9.03l-10.87-15.46c-1.2-1.7-1.19-3.98.02-5.68,1.21-1.7,3.35-2.45,5.36-1.88l16.61,4.75c-7.02-8.37-18.37-19.12-32.91-23.37-2.61-.76-4.1-3.49-3.34-6.1.76-2.61,3.5-4.1,6.1-3.34,29.03,8.48,45.99,37.75,46.7,39,.99,1.74.83,3.9-.4,5.47-1.23,1.57-3.3,2.24-5.22,1.69l-16.86-4.82,5.88,8.37c.82,1.17,1.09,2.63.75,4.02s-1.28,2.55-2.55,3.2c-.05.02-6.14,3.19-14.2,10.7-7.43,6.92-18.09,19.06-26.75,37.58-14.39,30.79-38.77,47.95-48.9,54.06,10.76,16.39,29.87,22.72,30.08,22.78,2,.64,3.37,2.49,3.41,4.58s-1.25,3.99-3.22,4.71c-4.43,1.62-8.9,2.43-12.81,2.79,8.86,8.99,25.17,23.99,46.81,37.13,32.97,20.02,68.83,21.49,69.19,21.5,2.71.09,4.84,2.37,4.74,5.08-.09,2.66-2.27,4.75-4.91,4.75-.06,0-.11,0-.17,0-.41-.01-3.24-.13-7.82-.66,0,0,0,0,0,0-3.3,5.46-8.69,15.21-10.56,23.37,2.71,2.58,4.82,5.31,6.46,7.9,6.2,9.78,6.97,19.58,7,19.99,0,.03,0,.06,0,.08,0,.09,0,.19,0,.29,0,.09,0,.18,0,.27,0,.03,0,.06,0,.09,0,.05-.01.1-.02.15,0,.1-.02.2-.03.3-.01.08-.03.16-.04.23,0,.01,0,.02,0,.04,19.24,1.4,39.68,2.12,60.66,2.12,13.31,0,26.4-.29,39.1-.86,1-6.57,3.7-13.1,7.87-18.85,7.74-10.67,20.57-17.59,35.16-19.23,0,0,0,0,0,0,.37-4.68.42-10.09-.28-15.65h0c-3.22.32-5.19.4-5.53.41-.06,0-.11,0-.17,0-2.64,0-4.82-2.09-4.91-4.75-.09-2.71,2.03-4.99,4.75-5.08.36-.01,36.22-1.48,69.19-21.5,21.63-13.13,37.95-28.13,46.81-37.13-3.9-.36-8.38-1.17-12.81-2.79-1.97-.72-3.27-2.62-3.22-4.72.05-2.1,1.42-3.94,3.42-4.58.2-.06,19.31-6.39,30.07-22.78-10.13-6.1-34.52-23.26-48.9-54.06Z"/>
  <path class="st10" d="M424.28,178.75c10.88-20.88,29.45-28.29,51.22-22.22.37.1.74.21,1.11.32,8.83,2.61,17.13,6.71,24.8,11.78,31.76,21,52.2,55.04,85.29,74.55,2.33,1.37,8.59,3.92,9.47,6.72.89,2.8-2.39,4.94-4.21,6.45-3.39,2.81-7.21,5.01-10.81,7.52-29.55,20.53-72.97,34.29-106.21,14.2-20.29-12.27-32.48-37.27-57.19-41.48.31-19.38-2.65-40.2,6.54-57.83ZM381.85,236.58c-24.71,4.21-36.9,29.21-57.19,41.48-33.24,20.1-76.66,6.33-106.21-14.2-3.6-2.5-7.42-4.71-10.81-7.52-1.82-1.51-5.1-3.65-4.21-6.45s7.14-5.34,9.47-6.72c33.09-19.51,53.53-53.55,85.29-74.55,7.67-5.07,15.97-9.17,24.8-11.78.37-.11.74-.22,1.11-.32,21.77-6.06,40.33,1.35,51.22,22.22,9.19,17.62,6.23,38.45,6.54,57.83Z"/>
  <g>
    <path class="st13" d="M281.92,370.86c-13.91,0-26.35,5.69-33.26,15.22-4.03,5.56-6.32,12.26-6.27,18.4.01,1.96.34,5.58,2.36,7.79,1.41,1.54,3.84,2.3,6.61,2.1-.57-9.15,3.31-19.27,7.9-25.75,1.33-1.87,2.65-3.44,4.06-4.8,2.12-2.04,5.49-1.98,7.53.14,2.04,2.12,1.98,5.49-.14,7.53-.92.89-1.83,1.96-2.76,3.28-4.11,5.81-7.42,15.51-5.45,22.03.87,2.86,2.65,4.73,5.62,5.87,1.72.66,3.71.46,5.48-.55,1.56-.89,2.71-2.31,3.23-3.89-.46-2-.7-4.15-.7-6.43,0-17.32,9.87-27.12,10.29-27.53,2.11-2.05,5.48-2.01,7.53.1,2.04,2.1,2.01,5.45-.08,7.51-.36.36-7.09,7.34-7.09,19.92,0,4.9,1.55,8.47,4.15,9.55,1.89.78,4.22.11,6.08-1.75,4.42-4.43,4.22-15.9,3.8-19.56-.18-1.57.34-3.14,1.43-4.28,1.09-1.14,2.64-1.75,4.2-1.65l10.75.7c-2.69-8.83-10.87-23.96-35.28-23.96Z"/>
    <path class="st11" d="M329.11,400.2c-.03-.41-.8-10.21-7-19.99-5.78-9.12-17.45-20-40.19-20-17.32,0-32.97,7.33-41.88,19.62-5.42,7.47-8.37,16.25-8.3,24.73.03,4.26.95,10.31,5.15,14.9,3.3,3.61,8.26,5.6,13.68,5.6,1.04,0,2.11-.07,3.18-.22.25-.03.49-.09.72-.16,2.22,3.59,5.55,6.3,9.84,7.94,1.91.73,3.92,1.1,5.93,1.1,2.97,0,5.95-.79,8.66-2.34,1.38-.79,2.63-1.75,3.73-2.83,1.25,1.1,2.66,2,4.23,2.65,1.87.77,3.82,1.15,5.77,1.15,4.26,0,8.52-1.8,11.92-5.21,5.88-5.88,7.07-15.58,7.14-22.01l11.77.77s.08,0,.13,0c.07,0,.14,0,.21,0,.1,0,.19,0,.29,0,.03,0,.07,0,.1,0,.07,0,.14-.02.2-.03.07,0,.15-.02.22-.03.11-.02.22-.04.32-.06.06-.01.13-.03.19-.04.11-.03.22-.06.33-.1.05-.02.11-.03.16-.05.11-.04.23-.09.34-.14.05-.02.09-.04.14-.06.11-.05.22-.11.32-.17.04-.03.09-.05.13-.08.1-.06.2-.12.29-.19.05-.03.09-.07.14-.1.09-.06.17-.13.25-.2.05-.04.1-.09.15-.13.07-.07.14-.13.21-.2.06-.06.11-.11.16-.17.06-.06.11-.13.17-.2.06-.07.11-.14.16-.21.05-.06.09-.13.13-.19.05-.08.1-.16.15-.24.04-.06.08-.13.11-.2.05-.08.09-.17.13-.25.03-.07.06-.14.1-.22.04-.08.07-.17.1-.25.03-.08.06-.16.08-.25.02-.08.05-.16.07-.24.02-.09.04-.19.06-.28.02-.08.03-.15.04-.23.02-.1.03-.2.03-.3,0-.05.01-.1.02-.15,0-.03,0-.06,0-.09,0-.09,0-.18,0-.27,0-.1,0-.19,0-.29,0-.03,0-.06,0-.08ZM306.44,394.11c-1.57-.1-3.11.5-4.2,1.65-1.09,1.14-1.61,2.72-1.43,4.28.42,3.67.63,15.14-3.8,19.56-1.86,1.86-4.19,2.53-6.08,1.75-2.6-1.08-4.15-4.65-4.15-9.55,0-12.58,6.73-19.56,7.09-19.92,2.08-2.05,2.12-5.41.08-7.51-2.05-2.11-5.42-2.15-7.53-.1-.42.41-10.29,10.21-10.29,27.53,0,2.28.24,4.44.7,6.43-.51,1.58-1.67,3-3.23,3.89-1.76,1.01-3.76,1.21-5.48.55-2.97-1.14-4.75-3.01-5.62-5.87-1.97-6.52,1.33-16.22,5.45-22.03.94-1.32,1.84-2.4,2.76-3.28,2.12-2.04,2.18-5.41.14-7.53-2.04-2.12-5.41-2.18-7.53-.14-1.41,1.36-2.74,2.93-4.06,4.8-4.59,6.48-8.48,16.6-7.9,25.75-2.77.2-5.2-.56-6.61-2.1-2.02-2.21-2.35-5.83-2.36-7.79-.05-6.13,2.24-12.84,6.27-18.4,6.91-9.53,19.35-15.22,33.26-15.22,24.41,0,32.58,15.12,35.28,23.96l-10.75-.7Z"/>
  </g>
  <g>
    <path class="st5" d="M381.86,242.36c-22.54,3.65-33.66,25.31-52.17,35.95-35.51,20.4-73.07-3.42-99.11-27.71-.24-1.09,7.79-6.43,9.32-7.73,26.44-22.52,54.96-60.8,89.27-69.87,19.86-5.25,36.79,1.17,46.72,19.26,8.38,15.27,5.68,33.32,5.97,50.11Z"/>
    <g>
      <ellipse class="st12" cx="334.48" cy="228.87" rx="25.8" ry="28.9"/>
      <ellipse class="st10" cx="334.48" cy="228.87" rx="19.49" ry="22.82"/>
      <ellipse class="st12" cx="339.92" cy="233.2" rx="15.21" ry="18.49"/>
      <circle class="st10" cx="342.18" cy="225.26" r="4.54"/>
    </g>
    <g>
      <path class="st4" d="M560.04,390.74l1.1-.35-.07-.13c-.34.16-.69.32-1.04.47Z"/>
      <path class="st4" d="M266.58,330.39c-3.96,4.77-16.1,20.83-20.21,42.5,9.11-8.05,21.8-12.69,35.55-12.69,16.29,0,26.89,5.58,33.72,12.1,1.86-8.16,7.26-17.91,10.56-23.37-11.91-1.39-35.67-5.65-59.62-18.54Z"/>
      <path class="st4" d="M540.52,386.87c-.38-25.09-13.93-44.67-18.74-50.84-21.37,9.27-41.02,12.22-50.27,13.15.71,5.56.65,10.97.28,15.65,2.21-.25,4.45-.38,6.73-.38,22.74,0,34.41,10.88,40.19,20,1.62,2.56,2.87,5.12,3.83,7.51,6.56-1.43,12.59-2.97,18.01-4.59-.02-.16-.03-.32-.03-.49Z"/>
      <path class="st4" d="M525.34,401.66l2.79-.88c-.93.21-1.88.43-2.83.64.02.08.03.16.04.24Z"/>
    </g>
    <g>
      <path class="st5" d="M423.68,192.24c9.93-18.09,26.86-24.51,46.72-19.26,34.3,9.08,62.83,47.36,89.27,69.87,1.54,1.31,9.56,6.65,9.32,7.73-26.04,24.29-63.6,48.11-99.11,27.71-18.51-10.63-29.63-32.3-52.17-35.95.28-16.8-2.42-34.84,5.97-50.11Z"/>
      <g>
        <ellipse class="st12" cx="465.1" cy="228.87" rx="25.8" ry="28.9"/>
        <ellipse class="st10" cx="465.1" cy="228.87" rx="19.49" ry="22.82"/>
        <ellipse class="st12" cx="459.66" cy="233.2" rx="15.21" ry="18.49"/>
        <circle class="st10" cx="457.4" cy="225.26" r="4.54"/>
      </g>
    </g>
  </g>
  <path class="st2" d="M355.13,290.54s-9.72-2.35-12.38,8.64"/>
  <g>
    <ellipse class="st5" cx="399.88" cy="269.71" rx="28.98" ry="22.21"/>
    <ellipse class="st6" cx="403.33" cy="263.15" rx="14.09" ry="6.56"/>
  </g>
  <path class="st1" d="M345.9,293.62s17.41,26.65,50.21,24.76c42.73-2.47,47.89-27.84,47.89-27.84"/>
  <path class="st1" d="M400.95,290.32s1.63,19.41-10.65,27.42"/>
  <path class="st13" d="M549.98,192.31c-8.66-18.52-19.32-30.66-26.75-37.58-8.06-7.51-14.16-10.68-14.22-10.71-1.27-.65-2.19-1.82-2.53-3.2s-.07-2.85.75-4.01l5.88-8.37-16.86,4.82c-1.92.55-3.98-.12-5.22-1.69-1.23-1.57-1.39-3.73-.4-5.47.71-1.24,17.67-30.51,46.7-39,2.6-.76,5.34.73,6.1,3.34.76,2.61-.73,5.34-3.34,6.1-14.54,4.25-25.9,15-32.91,23.37l16.61-4.75c2-.57,4.15.18,5.36,1.88s1.21,3.97.02,5.68l-10.87,15.46c2.87,1.93,6.81,4.88,11.3,9.03,5.35,4.94,12.23,12.35,18.98,22.52,6.06-14.5,16.84-46.91,10.29-82.26-1.27-6.87-4.15-11.02-8.8-12.7-9.12-3.3-25.93,2.08-47.34,15.13-17.15,10.46-31.37,22.24-31.51,22.36-1.35,1.13-3.2,1.44-4.85.83l-29.81-11.06c-6.23,8.42-14.12,14.13-14.59,14.47-2.21,1.58-5.28,1.07-6.86-1.14-1.58-2.21-1.07-5.28,1.14-6.86.13-.09,13.43-9.74,17.13-21.01-3.59-.04-12.16,2.41-19.68,5.75-2.27,1.01-4.94.16-6.21-1.97-1.28-2.13-.76-4.88,1.2-6.41,6.48-5.04,12.69-11.34,14.6-14.64-.63-.05-1.51-.08-2.68-.02-21.19,1.13-55.63,30.6-55.97,30.9-.44.38-.95.68-1.5.88l-29.92,11.11c-1.65.61-3.5.3-4.85-.83-.14-.12-14.37-11.9-31.51-22.36-21.41-13.05-38.22-18.43-47.34-15.13-4.65,1.68-7.53,5.84-8.8,12.7-6.55,35.35,4.23,67.76,10.29,82.26,6.75-10.18,13.63-17.58,18.98-22.52,4.49-4.15,8.44-7.09,11.3-9.03l-10.87-15.46c-1.2-1.7-1.19-3.98.02-5.68,1.21-1.7,3.35-2.45,5.36-1.88l16.61,4.75c-7.02-8.37-18.37-19.12-32.91-23.37-2.61-.76-4.1-3.49-3.34-6.1.76-2.61,3.5-4.1,6.1-3.34,29.03,8.48,45.99,37.75,46.7,39,.99,1.74.83,3.9-.4,5.47-1.23,1.57-3.3,2.24-5.22,1.69l-16.86-4.82,5.88,8.37c.82,1.17,1.09,2.63.75,4.02s-1.28,2.55-2.55,3.2c-.05.02-6.14,3.19-14.2,10.7-7.43,6.92-18.09,19.06-26.75,37.58-14.39,30.79-38.77,47.95-48.9,54.06.86,1.31,1.77,2.54,2.72,3.73.02-.07.02-.13.05-.2.88-2.79,7.14-5.34,9.47-6.72,33.09-19.51,53.53-53.55,85.29-74.55,7.67-5.07,15.97-9.17,24.8-11.78.37-.11.74-.22,1.11-.32,21.77-6.06,40.33,1.35,51.22,22.22,6.56,12.57,6.93,26.78,6.72,40.92.18,7.57-.28,15.25-.16,22.68-.08.01-.16.03-.24.05-.17,3.48-.44,7.15-.85,10.62,5.1-3.43,11.78-5.52,19.11-5.52s13.99,2.08,19.08,5.5c-.42-2.91-.78-6.41-1.05-10.61-.07-.01-.13-.03-.2-.04.02-1.12.02-2.24.02-3.36-.24-5.37-.33-11.74-.17-19.32-.21-14.14.16-28.35,6.72-40.92,10.88-20.88,29.45-28.29,51.22-22.22.37.1.74.21,1.11.32,8.83,2.61,17.13,6.71,24.8,11.78,31.76,21,52.2,55.04,85.29,74.55,2.33,1.37,8.59,3.92,9.47,6.72.02.05.02.1.03.14.94-1.17,1.84-2.39,2.68-3.67-10.13-6.1-34.52-23.26-48.9-54.06Z"/>
  <g>
    <path class="st0" d="M265.97,331.13c.06-.07.11-.14.17-.21-.05.07-.11.14-.17.21Z"/>
    <path class="st0" d="M256.32,92.99s.01.05.02.07c0-.02-.01-.05-.02-.07Z"/>
    <path class="st0" d="M265.43,331.82c.07-.09.15-.19.22-.28-.07.09-.15.18-.22.28Z"/>
    <path class="st0" d="M256.61,93.77s.02.05.03.07c-.01-.02-.02-.05-.03-.07Z"/>
    <path class="st0" d="M270.15,332.25c.73.37,1.45.72,2.17,1.07-.72-.35-1.45-.71-2.17-1.07Z"/>
    <path class="st0" d="M266.58,330.39c.93.5,1.86.98,2.78,1.46-.93-.47-1.85-.96-2.78-1.46Z"/>
    <path class="st0" d="M264.85,332.56c.09-.12.18-.23.27-.34-.09.11-.18.23-.27.34Z"/>
    <path class="st0" d="M473.17,349c.08,0,.16-.02.24-.03-.08,0-.16.02-.24.03Z"/>
    <path class="st0" d="M257.02,94.51s0,0,0,0c0,0,0,0,0,0Z"/>
    <path class="st0" d="M264.23,333.38c.1-.14.2-.27.3-.4-.1.13-.2.26-.3.4Z"/>
    <path class="st0" d="M474.15,348.89c.16-.02.33-.04.5-.06-.17.02-.33.04-.5.06Z"/>
    <path class="st0" d="M263.15,334.84c.26-.36.52-.71.76-1.05-.25.33-.5.68-.76,1.05Z"/>
    <path class="st0" d="M307.68,345.68c.59.14,1.17.27,1.75.4-.58-.13-1.16-.26-1.75-.4Z"/>
    <path class="st0" d="M258.11,95.64s.07.05.11.08c-.04-.03-.07-.05-.11-.08Z"/>
    <path class="st0" d="M270.19,147.1c-.33.31-.67.62-1.01.94.34-.32.68-.64,1.01-.94Z"/>
    <path class="st0" d="M257.56,95.16s-.03-.04-.05-.06c.02.02.03.04.05.06Z"/>
    <path class="st0" d="M296.73,342.78c.84.25,1.67.49,2.49.73-.82-.23-1.65-.48-2.49-.73Z"/>
    <path class="st0" d="M314.8,347.18c.54.1,1.06.2,1.58.29-.52-.09-1.05-.19-1.58-.29Z"/>
    <path class="st0" d="M272.99,333.65c.92.44,1.83.87,2.75,1.28-.91-.42-1.83-.84-2.75-1.28Z"/>
    <path class="st0" d="M291.13,340.99c.78.26,1.56.52,2.33.77-.77-.25-1.55-.5-2.33-.77Z"/>
    <path class="st0" d="M294.16,341.98c.71.23,1.42.45,2.13.66-.7-.21-1.41-.43-2.13-.66Z"/>
    <path class="st0" d="M319.2,347.95c.4.06.79.13,1.18.19-.39-.06-.78-.12-1.18-.19Z"/>
    <path class="st0" d="M309.95,346.19c.72.16,1.42.31,2.12.45-.69-.14-1.4-.29-2.12-.45Z"/>
    <path class="st0" d="M302.37,344.37c1.6.42,3.16.81,4.67,1.17-1.52-.36-3.08-.75-4.67-1.17Z"/>
    <path class="st0" d="M299.78,343.66c.66.18,1.31.36,1.95.54-.65-.17-1.3-.35-1.95-.54Z"/>
    <path class="st0" d="M312.54,346.74c.54.11,1.07.21,1.6.32-.53-.1-1.06-.21-1.6-.32Z"/>
    <path class="st0" d="M316.76,347.54c.61.11,1.21.21,1.8.31-.59-.1-1.19-.2-1.8-.31Z"/>
    <path class="st0" d="M475.35,348.74c.24-.03.49-.06.74-.1-.25.03-.5.07-.74.1Z"/>
    <path class="st0" d="M282.04,337.63c.91.37,1.81.72,2.7,1.06-.9-.34-1.8-.7-2.7-1.06Z"/>
    <path class="st0" d="M279.31,336.5c.81.34,1.61.68,2.42,1.01-.8-.33-1.61-.66-2.42-1.01Z"/>
    <path class="st0" d="M276.28,335.17c.75.34,1.5.67,2.25.99-.75-.32-1.5-.65-2.25-.99Z"/>
    <path class="st0" d="M285.44,338.95c.71.27,1.41.53,2.11.78-.7-.25-1.4-.51-2.11-.78Z"/>
    <path class="st0" d="M288.21,339.98c.88.32,1.76.62,2.63.92-.87-.3-1.75-.6-2.63-.92Z"/>
    <path class="st0" d="M324.78,348.76c.26.03.52.06.77.1-.25-.03-.51-.06-.77-.1Z"/>
    <path class="st0" d="M323.12,348.54c.33.04.65.09.96.13-.31-.04-.64-.09-.96-.13Z"/>
    <path class="st0" d="M321.01,348.23c.52.08,1.03.15,1.53.22-.49-.07-1-.14-1.53-.22Z"/>
    <path class="st0" d="M258.84,96.1s.07.03.11.05c-.04-.02-.07-.03-.11-.05Z"/>
    <path class="st0" d="M248.29,364.92c.16-.56.33-1.12.51-1.67-.17.55-.34,1.11-.51,1.67Z"/>
    <path class="st0" d="M498.77,344.07c.72-.2,1.45-.4,2.19-.61-.74.21-1.47.41-2.19.61Z"/>
    <path class="st0" d="M248.86,363.03c.95-3.01,2.03-5.87,3.18-8.56-1.15,2.69-2.23,5.55-3.18,8.56Z"/>
    <path class="st0" d="M496.61,344.63c.6-.15,1.21-.31,1.82-.48-.61.16-1.22.32-1.82.48Z"/>
    <path class="st0" d="M247.73,366.93c.16-.58.32-1.16.48-1.73-.17.57-.33,1.15-.48,1.73Z"/>
    <path class="st0" d="M494.32,345.21c.57-.14,1.14-.28,1.72-.43-.58.15-1.15.29-1.72.43Z"/>
    <path class="st0" d="M491.91,345.78c.67-.15,1.35-.31,2.03-.48-.69.17-1.36.32-2.03.48Z"/>
    <path class="st0" d="M252.83,352.69c1.18-2.61,2.41-5.05,3.65-7.29-1.24,2.24-2.47,4.68-3.65,7.29Z"/>
    <path class="st0" d="M489.92,346.22c.52-.11,1.05-.23,1.59-.35-.54.12-1.07.24-1.59.35Z"/>
    <path class="st0" d="M252.1,354.34c.22-.52.45-1.02.67-1.53-.23.5-.45,1.01-.67,1.53Z"/>
    <path class="st0" d="M262.51,335.74c.15-.22.3-.43.45-.64-.15.21-.3.42-.45.64Z"/>
    <path class="st0" d="M516.85,338.07c.6-.24,1.21-.48,1.81-.73-.61.25-1.21.49-1.81.73Z"/>
    <path class="st0" d="M511.45,340.1c.72-.26,1.44-.52,2.17-.79-.73.27-1.45.53-2.17.79Z"/>
    <path class="st0" d="M513.81,339.24c.79-.29,1.58-.6,2.37-.91-.79.31-1.59.61-2.37.91Z"/>
    <path class="st0" d="M519.36,337.06c.81-.33,1.61-.67,2.42-1.03-.81.35-1.62.69-2.42,1.03Z"/>
    <path class="st0" d="M487.81,346.67c.51-.1,1.03-.21,1.56-.33-.53.11-1.05.22-1.56.33Z"/>
    <path class="st0" d="M246.37,372.89c.38-2.01.83-3.97,1.34-5.87-.51,1.91-.96,3.86-1.34,5.87Z"/>
    <path class="st0" d="M508.97,340.96c.6-.2,1.2-.41,1.81-.62-.61.21-1.21.42-1.81.62Z"/>
    <path class="st0" d="M503.83,342.61c.66-.2,1.33-.41,2-.62-.67.21-1.34.42-2,.62Z"/>
    <path class="st0" d="M506.1,341.9c.76-.24,1.53-.49,2.3-.75-.77.26-1.54.51-2.3.75Z"/>
    <path class="st0" d="M501.42,343.32c.59-.17,1.18-.34,1.78-.52-.6.18-1.19.35-1.78.52Z"/>
    <path class="st0" d="M260.26,339.08c.19-.3.39-.59.58-.88-.19.29-.38.58-.58.88Z"/>
    <path class="st0" d="M256.56,345.25c.23-.41.45-.81.68-1.21-.23.4-.45.8-.68,1.21Z"/>
    <path class="st0" d="M261.04,337.89c.17-.26.35-.52.52-.77-.17.25-.34.51-.52.77Z"/>
    <path class="st0" d="M481.99,347.75c.43-.07.87-.15,1.32-.23-.45.08-.89.16-1.32.23Z"/>
    <path class="st0" d="M477.08,348.51c.29-.04.57-.08.87-.12-.3.04-.58.08-.87.12Z"/>
    <path class="st0" d="M478.59,348.29c.3-.04.61-.09.92-.14-.31.05-.62.09-.92.14Z"/>
    <path class="st0" d="M258.07,342.62c.73-1.24,1.45-2.4,2.15-3.48-.7,1.08-1.42,2.25-2.15,3.48Z"/>
    <path class="st0" d="M261.79,336.78c.16-.24.32-.47.48-.69-.16.23-.32.46-.48.69Z"/>
    <path class="st0" d="M480.1,348.06c.5-.08,1.01-.16,1.53-.25-.52.09-1.03.17-1.53.25Z"/>
    <path class="st0" d="M483.88,347.42c.43-.08.86-.16,1.3-.24-.44.08-.87.16-1.3.24Z"/>
    <path class="st0" d="M257.35,343.85c.23-.4.46-.79.68-1.17-.23.38-.45.77-.68,1.17Z"/>
    <path class="st0" d="M485.66,347.09c.59-.11,1.19-.23,1.81-.36-.61.12-1.21.24-1.81.36Z"/>
    <path class="st5" d="M375.9,192.24c-9.93-18.09-26.86-24.51-46.72-19.26-34.3,9.08-62.83,47.36-89.27,69.87-1.54,1.31-9.56,6.65-9.32,7.73,26.04,24.29,63.6,48.11,99.11,27.71,18.51-10.63,29.63-32.3,52.17-35.95-.28-16.8,2.42-34.84-5.97-50.11ZM334.48,257.77c-14.25,0-25.8-12.94-25.8-28.9s11.55-28.9,25.8-28.9,25.8,12.94,25.8,28.9-11.55,28.9-25.8,28.9Z"/>
    <path class="st12" d="M334.48,199.98c-14.25,0-25.8,12.94-25.8,28.9s11.55,28.9,25.8,28.9,25.8-12.94,25.8-28.9-11.55-28.9-25.8-28.9ZM339.92,251.69c-.86,0-1.7-.09-2.52-.26-.95.17-1.93.26-2.92.26-10.77,0-19.49-10.22-19.49-22.82s8.73-22.82,19.49-22.82c9.79,0,17.9,8.45,19.28,19.46.88,2.34,1.37,4.94,1.37,7.68,0,10.21-6.81,18.49-15.22,18.49Z"/>
    <path class="st10" d="M324.7,233.2c0-10.21,6.81-18.49,15.21-18.49,6.15,0,11.44,4.44,13.84,10.82-1.39-11.01-9.49-19.46-19.28-19.46-10.77,0-19.49,10.22-19.49,22.82s8.73,22.82,19.49,22.82c.99,0,1.97-.09,2.92-.26-7.2-1.46-12.7-9.07-12.7-18.24Z"/>
    <path class="st12" d="M353.97,228.87c0,11.44-7.19,20.91-16.57,22.56.82.17,1.66.26,2.52.26,8.4,0,15.22-8.28,15.22-18.49,0-2.74-.49-5.34-1.37-7.68.14,1.1.21,2.22.21,3.36Z"/>
    <path class="st12" d="M353.97,228.87c0-1.14-.07-2.26-.21-3.36-2.4-6.38-7.69-10.82-13.84-10.82-8.4,0-15.21,8.28-15.21,18.49,0,9.17,5.49,16.78,12.7,18.24,9.38-1.65,16.57-11.12,16.57-22.56ZM342.18,229.8c-2.51,0-4.54-2.03-4.54-4.54s2.03-4.54,4.54-4.54,4.54,2.03,4.54,4.54-2.03,4.54-4.54,4.54Z"/>
    <circle class="st10" cx="342.18" cy="225.26" r="4.54" transform="translate(-59.06 307.94) rotate(-45)"/>
    <path class="st4" d="M560.04,390.74l1.1-.35-.07-.13c-.34.16-.69.32-1.04.47Z"/>
    <path class="st13" d="M324.78,348.76c-.23-.03-.46-.06-.69-.09-.31-.04-.64-.09-.96-.13-.19-.03-.38-.05-.58-.08-.49-.07-1-.14-1.53-.22-.21-.03-.42-.07-.64-.1-.39-.06-.78-.12-1.18-.19-.21-.03-.42-.07-.63-.1-.59-.1-1.19-.2-1.8-.31-.12-.02-.25-.05-.38-.07-.52-.09-1.05-.19-1.58-.29-.22-.04-.44-.08-.66-.13-.53-.1-1.06-.21-1.6-.32-.16-.03-.31-.06-.48-.1-.69-.14-1.4-.29-2.12-.45-.17-.04-.35-.08-.53-.12-.58-.13-1.16-.26-1.75-.4-.21-.05-.42-.1-.63-.15-1.52-.36-3.08-.75-4.67-1.17-.21-.06-.43-.11-.64-.17-.65-.17-1.3-.35-1.95-.54-.18-.05-.37-.1-.55-.15-.82-.23-1.65-.48-2.49-.73-.15-.04-.3-.09-.45-.14-.7-.21-1.41-.43-2.13-.66-.23-.07-.47-.15-.7-.22-.77-.25-1.55-.5-2.33-.77-.1-.03-.19-.06-.29-.1-.87-.3-1.75-.6-2.63-.92-.22-.08-.44-.16-.67-.24-.7-.25-1.4-.51-2.11-.78-.23-.09-.46-.17-.7-.26-.9-.34-1.8-.7-2.7-1.06-.1-.04-.21-.09-.32-.13-.8-.33-1.61-.66-2.42-1.01-.26-.11-.52-.22-.78-.33-.75-.32-1.5-.65-2.25-.99-.18-.08-.36-.16-.54-.24-.91-.42-1.83-.84-2.75-1.28-.22-.11-.44-.22-.66-.32-.72-.35-1.45-.71-2.17-1.07-.26-.13-.53-.27-.79-.4-.93-.47-1.85-.96-2.78-1.46-.14.16-.28.34-.44.53-.05.07-.11.14-.17.21-.1.13-.21.26-.32.41-.07.09-.15.19-.22.28-.1.13-.21.27-.32.4-.09.11-.18.23-.27.34-.1.13-.21.27-.32.41-.1.13-.2.26-.3.4-.1.13-.21.28-.31.42-.25.33-.5.68-.76,1.05-.06.09-.13.17-.19.26-.15.21-.3.42-.45.64-.08.12-.16.23-.25.35-.16.23-.32.46-.48.69-.08.11-.16.23-.23.34-.17.25-.34.51-.52.77-.07.1-.13.2-.2.3-.19.29-.38.58-.58.88-.01.02-.03.04-.04.06-.7,1.08-1.42,2.25-2.15,3.48-.01.02-.02.04-.03.05-.23.38-.45.77-.68,1.17-.04.06-.07.13-.11.19-.23.4-.45.8-.68,1.21-.03.05-.06.1-.09.16-1.23,2.24-2.47,4.68-3.65,7.29-.02.04-.04.08-.06.12-.23.5-.45,1.01-.67,1.53-.02.04-.04.09-.05.13-1.15,2.69-2.23,5.55-3.18,8.56-.02.07-.05.14-.07.22-.17.55-.34,1.11-.51,1.67-.03.09-.05.19-.08.28-.17.57-.33,1.15-.48,1.73,0,.03-.01.05-.02.08-.51,1.91-.96,3.86-1.34,5.87,0,0,0,0,0,.01,9.11-8.05,21.8-12.69,35.55-12.69,16.29,0,26.89,5.58,33.72,12.1,1.86-8.16,7.26-17.91,10.56-23.37,0,0,0,0,0,0-.21-.02-.43-.05-.65-.08-.25-.03-.51-.06-.77-.1Z"/>
    <path class="st13" d="M521.79,336.03c-.81.35-1.62.69-2.42,1.03-.23.1-.47.19-.7.29-.61.25-1.21.49-1.81.73-.22.09-.44.18-.66.26-.79.31-1.59.61-2.37.91-.07.02-.13.05-.19.07-.73.27-1.45.53-2.17.79-.22.08-.44.16-.67.23-.61.21-1.21.42-1.81.62-.19.06-.38.13-.57.19-.77.26-1.54.51-2.3.75-.09.03-.18.06-.27.09-.67.21-1.34.42-2,.62-.21.06-.41.12-.62.19-.6.18-1.19.35-1.78.52-.16.04-.31.09-.47.13-.74.21-1.47.41-2.19.61-.11.03-.23.06-.34.09-.61.16-1.22.32-1.82.48-.19.05-.38.1-.57.15-.58.15-1.15.29-1.72.43-.13.03-.25.06-.38.09-.69.17-1.36.32-2.03.48-.13.03-.27.06-.4.09-.54.12-1.07.24-1.59.35-.18.04-.37.08-.55.12-.53.11-1.05.22-1.56.33-.12.02-.23.05-.35.07-.61.12-1.21.24-1.81.36-.16.03-.32.06-.48.09-.44.08-.87.16-1.3.24-.19.03-.38.07-.57.1-.45.08-.89.16-1.32.23-.12.02-.24.04-.36.06-.52.09-1.03.17-1.53.25-.2.03-.39.06-.59.09-.31.05-.62.09-.92.14-.22.03-.43.06-.64.09-.3.04-.58.08-.87.12-.34.05-.66.09-.99.13-.25.03-.5.07-.74.1-.24.03-.48.06-.71.09-.17.02-.33.04-.5.06-.25.03-.5.06-.74.09-.08,0-.16.02-.24.03-.58.07-1.14.12-1.66.18h0c.71,5.56.65,10.97.28,15.65,2.21-.25,4.45-.38,6.73-.38,22.74,0,34.41,10.88,40.19,20,1.62,2.56,2.87,5.12,3.83,7.51,6.56-1.43,12.59-2.97,18.01-4.59-.02-.16-.03-.32-.03-.49-.38-25.09-13.93-44.67-18.74-50.84Z"/>
    <path class="st4" d="M525.34,401.66l2.79-.88c-.93.21-1.88.43-2.83.64.02.08.03.16.04.24Z"/>
    <path class="st5" d="M256.34,93.06c.07.24.16.48.26.71-.11-.23-.19-.46-.26-.71Z"/>
    <path class="st5" d="M257.03,94.51c.14.21.31.4.48.59-.18-.18-.34-.38-.48-.59Z"/>
    <path class="st5" d="M258.11,95.64c-.2-.15-.38-.31-.55-.48.17.17.36.33.55.48Z"/>
    <path class="st5" d="M258.95,96.15c.23.11.48.21.74.29-.26-.08-.5-.17-.74-.29Z"/>
    <path class="st5" d="M258.22,95.72c.2.14.41.27.63.38-.22-.11-.43-.24-.63-.38Z"/>
    <path class="st5" d="M256.64,93.84c.11.23.24.45.38.67-.15-.21-.27-.44-.38-.67Z"/>
    <path class="st5" d="M256.32,92.99c-.14-.52-.2-1.06-.16-1.61h0c-.04.55.02,1.09.16,1.61Z"/>
    <path class="st5" d="M269.18,148.05c-1.02.97-2.09,2.02-3.2,3.16,1.11-1.14,2.18-2.19,3.2-3.16Z"/>
    <path class="st5" d="M263.92,333.79c.1-.14.21-.28.31-.42-.1.13-.21.28-.31.42Z"/>
    <path class="st5" d="M265.65,331.54c.11-.14.22-.28.32-.41-.11.13-.21.26-.32.41Z"/>
    <path class="st5" d="M266.14,330.93c.15-.19.3-.37.44-.53-.14.16-.28.34-.44.53Z"/>
    <path class="st5" d="M309.42,346.08c.18.04.35.08.53.12-.17-.04-.35-.08-.53-.12Z"/>
    <path class="st5" d="M262.27,336.09c.08-.12.16-.23.25-.35-.08.12-.16.23-.25.35Z"/>
    <path class="st5" d="M265.11,332.22c.11-.14.21-.27.32-.4-.1.13-.21.26-.32.4Z"/>
    <path class="st5" d="M264.53,332.98c.11-.14.21-.28.32-.41-.1.13-.21.27-.32.41Z"/>
    <path class="st5" d="M248.21,365.2c.03-.09.05-.19.08-.28-.03.09-.05.19-.08.28Z"/>
    <path class="st5" d="M248.79,363.25c.02-.07.05-.14.07-.22-.02.07-.05.14-.07.22Z"/>
    <path class="st5" d="M252.05,354.47s.04-.09.05-.13c-.02.04-.04.09-.05.13Z"/>
    <path class="st5" d="M261.55,337.12c.08-.12.16-.23.23-.34-.08.11-.16.23-.23.34Z"/>
    <path class="st5" d="M247.7,367.01s.01-.05.02-.08c0,.03-.01.05-.02.08Z"/>
    <path class="st5" d="M252.77,352.82s.04-.08.06-.12c-.02.04-.04.08-.06.12Z"/>
    <polygon class="st5" points="246.36 372.9 246.36 372.9 246.37 372.89 246.36 372.9"/>
    <path class="st5" d="M260.22,339.14s.03-.04.04-.06c-.01.02-.03.04-.04.06Z"/>
    <path class="st5" d="M260.84,338.2c.07-.1.13-.2.2-.3-.07.1-.13.2-.2.3Z"/>
    <path class="st5" d="M256.48,345.4c.03-.05.06-.1.09-.16-.03.05-.06.1-.09.16Z"/>
    <path class="st5" d="M257.24,344.04c.04-.07.07-.13.11-.19-.04.06-.07.13-.11.19Z"/>
    <path class="st5" d="M258.03,342.68s.02-.04.03-.05c-.01.02-.02.04-.03.05Z"/>
    <path class="st5" d="M262.96,335.1c.06-.09.13-.17.19-.26-.06.09-.13.17-.19.26Z"/>
    <path class="st5" d="M318.56,347.85c.21.04.42.07.63.1-.21-.03-.42-.07-.63-.1Z"/>
    <path class="st5" d="M316.38,347.47c.13.02.25.05.38.07-.12-.02-.25-.05-.38-.07Z"/>
    <path class="st5" d="M293.46,341.76c.23.08.47.15.7.22-.23-.07-.47-.15-.7-.22Z"/>
    <path class="st5" d="M296.28,342.64c.15.05.3.09.45.14-.15-.04-.3-.09-.45-.14Z"/>
    <path class="st5" d="M322.54,348.46c.2.03.39.05.58.08-.19-.03-.38-.05-.58-.08Z"/>
    <path class="st5" d="M320.38,348.14c.21.03.43.07.64.1-.21-.03-.42-.07-.64-.1Z"/>
    <path class="st5" d="M290.84,340.9c.1.03.19.06.29.1-.1-.03-.19-.06-.29-.1Z"/>
    <path class="st5" d="M299.23,343.51c.19.05.37.1.55.15-.18-.05-.37-.1-.55-.15Z"/>
    <path class="st5" d="M307.05,345.54c.21.05.42.1.63.15-.21-.05-.42-.1-.63-.15Z"/>
    <path class="st5" d="M312.07,346.64c.16.03.32.06.48.1-.16-.03-.32-.06-.48-.1Z"/>
    <path class="st5" d="M301.73,344.2c.21.06.43.12.64.17-.21-.06-.43-.11-.64-.17Z"/>
    <path class="st5" d="M314.14,347.05c.22.04.44.08.66.13-.22-.04-.44-.08-.66-.13Z"/>
    <path class="st5" d="M272.32,333.32c.22.11.44.22.66.32-.22-.11-.44-.22-.66-.32Z"/>
    <path class="st5" d="M275.74,334.93c.18.08.36.16.54.24-.18-.08-.36-.16-.54-.24Z"/>
    <path class="st5" d="M324.08,348.67c.24.03.47.06.69.09-.23-.03-.46-.06-.69-.09Z"/>
    <path class="st5" d="M326.2,348.93c-.21-.02-.43-.05-.65-.08.22.03.44.05.65.08Z"/>
    <path class="st5" d="M269.36,331.85c.26.14.53.27.79.4-.26-.13-.53-.27-.79-.4Z"/>
    <path class="st5" d="M284.74,338.69c.23.09.46.18.7.26-.23-.09-.46-.17-.7-.26Z"/>
    <path class="st5" d="M278.53,336.16c.26.11.52.22.78.33-.26-.11-.52-.22-.78-.33Z"/>
    <path class="st5" d="M281.72,337.5c.11.04.21.09.32.13-.1-.04-.21-.09-.32-.13Z"/>
    <path class="st5" d="M287.54,339.73c.22.08.45.16.67.24-.22-.08-.44-.16-.67-.24Z"/>
    <path class="st5" d="M498.43,344.16c.11-.03.23-.06.34-.09-.11.03-.23.06-.34.09Z"/>
    <path class="st5" d="M503.21,342.8c.21-.06.41-.12.62-.19-.21.06-.41.12-.62.19Z"/>
    <path class="st5" d="M500.96,343.46c.15-.04.31-.09.47-.13-.16.04-.31.09-.47.13Z"/>
    <path class="st5" d="M516.19,338.33c.22-.09.44-.17.66-.26-.22.09-.44.18-.66.26Z"/>
    <path class="st5" d="M518.66,337.34c.23-.1.47-.19.7-.29-.23.1-.47.19-.7.29Z"/>
    <path class="st5" d="M513.62,339.31c.07-.02.13-.05.19-.07-.07.02-.13.05-.19.07Z"/>
    <path class="st5" d="M540.52,386.87c0,.16.01.33.03.49h0c-.02-.16-.03-.32-.03-.49Z"/>
    <path class="st5" d="M508.4,341.15c.19-.06.38-.13.57-.19-.19.06-.38.13-.57.19Z"/>
    <path class="st5" d="M477.95,348.39c.21-.03.43-.06.64-.09-.22.03-.43.06-.64.09Z"/>
    <path class="st5" d="M505.83,341.99c.09-.03.18-.06.27-.09-.09.03-.18.06-.27.09Z"/>
    <path class="st5" d="M510.78,340.34c.22-.08.44-.16.67-.23-.22.08-.44.16-.67.23Z"/>
    <path class="st5" d="M481.63,347.82c.12-.02.24-.04.36-.06-.12.02-.24.04-.36.06Z"/>
    <path class="st5" d="M485.17,347.18c.16-.03.32-.06.48-.09-.16.03-.32.06-.48.09Z"/>
    <path class="st5" d="M474.64,348.83c.23-.03.47-.06.71-.09-.24.03-.48.06-.71.09Z"/>
    <path class="st5" d="M496.04,344.78c.19-.05.38-.1.57-.15-.19.05-.38.1-.57.15Z"/>
    <path class="st5" d="M476.09,348.64c.32-.04.65-.09.99-.13-.33.05-.66.09-.99.13Z"/>
    <path class="st5" d="M479.51,348.16c.2-.03.39-.06.59-.09-.2.03-.39.06-.59.09Z"/>
    <path class="st5" d="M483.31,347.53c.19-.03.38-.07.57-.1-.19.03-.38.07-.57.1Z"/>
    <path class="st5" d="M473.41,348.98c.24-.03.49-.06.74-.09-.25.03-.5.06-.74.09Z"/>
    <path class="st5" d="M471.51,349.18c.52-.05,1.07-.11,1.66-.18-.58.07-1.14.12-1.66.18Z"/>
    <path class="st5" d="M491.51,345.87c.13-.03.27-.06.4-.09-.13.03-.27.06-.4.09Z"/>
    <path class="st5" d="M487.46,346.74c.12-.02.23-.05.35-.07-.12.02-.23.05-.35.07Z"/>
    <path class="st5" d="M489.37,346.34c.18-.04.37-.08.55-.12-.18.04-.37.08-.55.12Z"/>
    <path class="st5" d="M493.95,345.3c.12-.03.25-.06.38-.09-.13.03-.25.06-.38.09Z"/>
    <path class="st5" d="M469.88,278.3c35.51,20.4,73.07-3.42,99.11-27.71.24-1.09-7.79-6.43-9.32-7.73-26.44-22.52-54.96-60.8-89.27-69.87-19.86-5.25-36.79,1.17-46.72,19.26-8.38,15.27-5.68,33.32-5.97,50.11,22.54,3.65,33.66,25.31,52.17,35.95ZM465.1,199.98c14.25,0,25.8,12.94,25.8,28.9s-11.55,28.9-25.8,28.9-25.8-12.94-25.8-28.9,11.55-28.9,25.8-28.9Z"/>
    <path class="st12" d="M465.1,257.77c14.25,0,25.8-12.94,25.8-28.9s-11.55-28.9-25.8-28.9-25.8,12.94-25.8,28.9,11.55,28.9,25.8,28.9ZM465.1,206.06c10.77,0,19.49,10.22,19.49,22.82s-8.73,22.82-19.49,22.82c-.99,0-1.97-.09-2.92-.26-.82.17-1.66.26-2.52.26-8.4,0-15.21-8.28-15.21-18.49,0-2.74.49-5.34,1.37-7.68,1.39-11.01,9.49-19.46,19.28-19.46Z"/>
    <path class="st10" d="M459.66,214.7c8.4,0,15.22,8.28,15.22,18.49,0,9.17-5.49,16.78-12.7,18.24.95.17,1.93.26,2.92.26,10.77,0,19.49-10.22,19.49-22.82s-8.73-22.82-19.49-22.82c-9.79,0-17.9,8.45-19.28,19.46,2.4-6.38,7.69-10.82,13.84-10.82Z"/>
    <path class="st12" d="M459.66,251.69c.86,0,1.7-.09,2.52-.26-9.38-1.65-16.57-11.12-16.57-22.56,0-1.14.07-2.26.21-3.36-.88,2.34-1.37,4.94-1.37,7.68,0,10.21,6.81,18.49,15.21,18.49Z"/>
    <path class="st12" d="M462.18,251.43c7.21-1.46,12.7-9.07,12.7-18.24,0-10.21-6.81-18.49-15.22-18.49-6.15,0-11.44,4.44-13.84,10.82-.14,1.1-.21,2.22-.21,3.36,0,11.44,7.19,20.91,16.57,22.56ZM457.4,220.72c2.51,0,4.54,2.03,4.54,4.54s-2.03,4.54-4.54,4.54-4.54-2.03-4.54-4.54,2.03-4.54,4.54-4.54Z"/>
    <circle class="st10" cx="457.4" cy="225.26" r="4.54" transform="translate(-25.32 389.41) rotate(-45)"/>
  </g>
  <path class="st5" d="M269.18,148.05c.34-.32.68-.64,1.01-.94,4.49-4.15,8.44-7.09,11.3-9.03l-10.87-15.46c-1.2-1.7-1.19-3.98.02-5.68,1.21-1.7,3.35-2.45,5.36-1.88l16.61,4.75c-7.02-8.37-18.37-19.12-32.91-23.37-.26-.08-.5-.17-.74-.29-.04-.02-.07-.03-.11-.05-.22-.11-.43-.24-.63-.38-.04-.03-.07-.05-.11-.08-.2-.15-.38-.31-.55-.48-.02-.02-.03-.04-.05-.06-.18-.18-.34-.38-.48-.59,0,0,0,0,0,0-.15-.21-.27-.44-.38-.67-.01-.02-.02-.05-.03-.07-.11-.23-.19-.46-.26-.71,0-.02-.01-.05-.02-.07-.14-.52-.2-1.06-.16-1.61-1.32,6.55-3.63,36.29,9.81,59.83,0,0,0,0,0,0,1.11-1.14,2.18-2.19,3.2-3.16Z"/>
  <path class="st11" d="M610.55,242.88c-.41-1.25-1.3-2.28-2.48-2.87-.32-.16-32.34-16.45-48.94-51.97-1.34-2.86-2.72-5.57-4.13-8.15,4.94-10.07,22.09-49.37,13.77-94.32-2.41-13.02-9.56-18.15-15.13-20.16-12.35-4.46-31.15.94-55.9,16.04-13.88,8.47-25.62,17.55-30.36,21.33l-25.54-9.48c.51-1.16.96-2.35,1.32-3.56,1.64-5.43-.62-8.45-2.11-9.77-2.51-2.21-6.5-2.64-10.97-2.11,3.56-4.74,4.6-8.54,3.35-11.9-1.55-4.15-5.96-6.06-13.12-5.69-22.98,1.23-55.88,28.21-61.18,32.69l-26.48,9.83c-4.74-3.79-16.48-12.86-30.36-21.33-24.75-15.11-43.55-20.5-55.9-16.04-10.09,3.65-13.8,12.98-15.13,20.16-8.32,44.94,8.83,84.24,13.77,94.32-1.41,2.58-2.8,5.29-4.13,8.15-16.6,35.53-48.62,51.81-48.94,51.97-1.18.58-2.08,1.62-2.49,2.87s-.3,2.61.3,3.79c6.14,11.94,15.83,19.91,23.92,24.89-3.51.07-5.89-.23-5.93-.23-2-.27-3.97.72-4.96,2.49-.98,1.77-.78,3.96.52,5.52.86,1.04,21.07,25.16,54.66,46.04-6.49,8.08-22.33,30.81-22.8,60.63-.04,2.72,2.12,4.95,4.84,4.99.03,0,.05,0,.08,0,2.68,0,4.87-2.15,4.91-4.84.45-28.25,16.86-50.05,21.59-55.76,33.17,17.85,65.97,19.15,67.44,19.2.06,0,.11,0,.17,0,2.64,0,4.82-2.09,4.91-4.75.09-2.71-2.03-4.99-4.74-5.08-.36-.01-36.22-1.48-69.19-21.5-21.63-13.14-37.95-28.13-46.81-37.13,3.9-.36,8.38-1.17,12.81-2.79,1.97-.72,3.26-2.62,3.22-4.71s-1.41-3.94-3.41-4.58c-.21-.07-19.32-6.39-30.08-22.78,10.13-6.1,34.52-23.26,48.9-54.06,8.66-18.52,19.32-30.66,26.75-37.58,8.06-7.51,14.16-10.68,14.2-10.7,1.27-.64,2.2-1.81,2.55-3.2s.07-2.85-.75-4.02l-5.88-8.37,16.86,4.82c1.92.55,3.98-.12,5.22-1.69,1.23-1.57,1.39-3.73.4-5.47-.71-1.24-17.67-30.51-46.7-39-2.6-.76-5.34.73-6.1,3.34-.76,2.61.73,5.34,3.34,6.1,14.55,4.25,25.9,15,32.91,23.37l-16.61-4.75c-2-.57-4.15.18-5.36,1.88-1.21,1.7-1.21,3.97-.02,5.68l10.87,15.46c-2.87,1.93-6.81,4.88-11.3,9.03-5.35,4.94-12.23,12.35-18.98,22.52-6.06-14.5-16.84-46.91-10.29-82.26,1.27-6.87,4.15-11.02,8.8-12.7,9.12-3.3,25.93,2.08,47.34,15.13,17.15,10.46,31.37,22.24,31.51,22.36,1.35,1.13,3.21,1.44,4.85.83l29.92-11.11c.55-.2,1.06-.5,1.5-.88.34-.3,34.79-29.77,55.97-30.9,1.17-.06,2.05-.04,2.68.02-1.91,3.3-8.12,9.6-14.6,14.64-1.96,1.53-2.48,4.27-1.2,6.41,1.28,2.13,3.94,2.98,6.21,1.97,7.52-3.34,16.09-5.79,19.68-5.75-3.69,11.26-17,20.91-17.13,21.01-2.21,1.58-2.72,4.65-1.14,6.86,1.58,2.21,4.65,2.72,6.86,1.14.47-.34,8.36-6.04,14.59-14.47l29.81,11.06c1.65.61,3.5.3,4.85-.83.14-.12,14.37-11.9,31.51-22.36,21.41-13.05,38.22-18.43,47.34-15.13,4.65,1.68,7.53,5.84,8.8,12.7,6.55,35.35-4.23,67.76-10.29,82.26-6.75-10.18-13.63-17.58-18.98-22.52-4.49-4.15-8.44-7.09-11.3-9.03l10.87-15.46c1.2-1.7,1.19-3.98-.02-5.68s-3.35-2.45-5.36-1.88l-16.61,4.75c7.02-8.37,18.37-19.12,32.91-23.37,2.61-.76,4.1-3.49,3.34-6.1-.76-2.61-3.5-4.1-6.1-3.34-29.03,8.48-45.99,37.75-46.7,39-.99,1.74-.83,3.9.4,5.47,1.23,1.57,3.3,2.24,5.22,1.69l16.86-4.82-5.88,8.37c-.82,1.16-1.09,2.63-.75,4.01s1.27,2.55,2.53,3.2c.06.03,6.16,3.2,14.22,10.71,7.43,6.92,18.1,19.06,26.75,37.58,14.39,30.79,38.77,47.95,48.9,54.06-10.76,16.39-29.87,22.71-30.07,22.78-2,.64-3.38,2.48-3.42,4.58-.05,2.1,1.25,4,3.22,4.72,4.43,1.62,8.9,2.43,12.81,2.79-8.86,9-25.17,24-46.81,37.13-32.97,20.02-68.83,21.49-69.19,21.5-2.71.09-4.84,2.36-4.75,5.08.09,2.66,2.27,4.75,4.91,4.75.06,0,.11,0,.17,0,1.29-.04,26.99-1.06,55.8-13.56,4.81,6.17,18.36,25.75,18.74,50.84.04,2.69,2.23,4.84,4.91,4.84.03,0,.05,0,.08,0,2.72-.04,4.88-2.28,4.84-4.99-.4-26.19-13.13-46.49-19.47-55,3.02-1.55,6.04-3.23,9.05-5.06,34.86-21.16,55.88-46.28,56.76-47.34,1.29-1.56,1.49-3.74.52-5.51-.98-1.77-2.94-2.76-4.95-2.5-.05,0-2.42.3-5.94.23,8.09-4.97,17.78-12.95,23.92-24.89.6-1.17.71-2.53.3-3.78Z"/>
  <path class="st5" d="M530.59,148.05c-.34-.32-.68-.64-1.01-.94-4.49-4.15-8.44-7.09-11.3-9.03l10.87-15.46c1.2-1.7,1.19-3.98-.02-5.68-1.21-1.7-3.35-2.45-5.36-1.88l-16.61,4.75c7.02-8.37,18.37-19.12,32.91-23.37.26-.08.5-.17.74-.29.04-.02.07-.03.11-.05.22-.11.43-.24.63-.38.04-.03.07-.05.11-.08.2-.15.38-.31.55-.48.02-.02.03-.04.05-.06.18-.18.34-.38.48-.59,0,0,0,0,0,0,.15-.21.27-.44.38-.67.01-.02.02-.05.03-.07.11-.23.19-.46.26-.71,0-.02.01-.05.02-.07.14-.52.2-1.06.16-1.61,1.32,6.55,3.63,36.29-9.81,59.83,0,0,0,0,0,0-1.11-1.14-2.18-2.19-3.2-3.16Z"/>
  <g>
    <path class="st13" d="M478.08,365.61c-13.91,0-26.35,5.69-33.26,15.22-4.03,5.56-6.32,12.26-6.27,18.4.01,1.96.34,5.58,2.36,7.79,1.41,1.54,3.84,2.3,6.61,2.1-.57-9.15,3.31-19.27,7.9-25.75,1.33-1.87,2.65-3.44,4.06-4.8,2.12-2.04,5.49-1.98,7.53.14,2.04,2.12,1.98,5.49-.14,7.53-.92.89-1.83,1.96-2.76,3.28-4.11,5.81-7.42,15.51-5.45,22.03.87,2.86,2.65,4.73,5.62,5.87,1.72.66,3.71.46,5.48-.55,1.56-.89,2.71-2.31,3.23-3.89-.46-2-.7-4.15-.7-6.43,0-17.32,9.87-27.12,10.29-27.53,2.11-2.05,5.48-2.01,7.53.1,2.04,2.1,2.01,5.45-.08,7.51-.36.36-7.09,7.34-7.09,19.92,0,4.9,1.55,8.47,4.15,9.55,1.89.78,4.22.11,6.08-1.75,4.42-4.43,4.22-15.9,3.8-19.56-.18-1.57.34-3.14,1.43-4.28,1.09-1.14,2.64-1.75,4.2-1.65l10.75.7c-2.69-8.83-10.87-23.96-35.28-23.96Z"/>
    <path class="st11" d="M525.27,394.95c-.03-.41-.8-10.21-7-19.99-5.78-9.12-17.45-20-40.19-20-17.32,0-32.97,7.33-41.88,19.62-5.42,7.47-8.37,16.25-8.3,24.73.03,4.26.95,10.31,5.15,14.9,3.3,3.61,8.26,5.6,13.68,5.6,1.04,0,2.11-.07,3.18-.22.25-.03.49-.09.72-.16,2.22,3.59,5.55,6.3,9.84,7.94,1.91.73,3.92,1.1,5.93,1.1,2.97,0,5.95-.79,8.66-2.34,1.38-.79,2.63-1.75,3.73-2.83,1.25,1.1,2.66,2,4.23,2.65,1.87.77,3.82,1.15,5.77,1.15,4.26,0,8.52-1.8,11.92-5.21,5.88-5.88,7.07-15.58,7.14-22.01l11.77.77s.08,0,.13,0c.07,0,.14,0,.21,0,.1,0,.19,0,.29,0,.03,0,.07,0,.1,0,.07,0,.14-.02.2-.03.07,0,.15-.02.22-.03.11-.02.22-.04.32-.06.06-.01.13-.03.19-.04.11-.03.22-.06.33-.1.05-.02.11-.03.16-.05.11-.04.23-.09.34-.14.05-.02.09-.04.14-.06.11-.05.22-.11.32-.17.04-.03.09-.05.13-.08.1-.06.2-.12.29-.19.05-.03.09-.07.14-.1.09-.06.17-.13.25-.2.05-.04.1-.09.15-.13.07-.07.14-.13.21-.2.06-.06.11-.11.16-.17.06-.06.11-.13.17-.2.06-.07.11-.14.16-.21.05-.06.09-.13.13-.19.05-.08.1-.16.15-.24.04-.06.08-.13.11-.2.05-.08.09-.17.13-.25.03-.07.06-.14.1-.22.04-.08.07-.17.1-.25.03-.08.06-.16.08-.25.02-.08.05-.16.07-.24.02-.09.04-.19.06-.28.02-.08.03-.15.04-.23.02-.1.03-.2.03-.3,0-.05.01-.1.02-.15,0-.03,0-.06,0-.09,0-.09,0-.18,0-.27,0-.1,0-.19,0-.29,0-.03,0-.06,0-.08ZM502.61,388.87c-1.57-.1-3.11.5-4.2,1.65-1.09,1.14-1.61,2.72-1.43,4.28.42,3.67.63,15.14-3.8,19.56-1.86,1.86-4.19,2.53-6.08,1.75-2.6-1.08-4.15-4.65-4.15-9.55,0-12.58,6.73-19.56,7.09-19.92,2.08-2.05,2.12-5.41.08-7.51-2.05-2.11-5.42-2.15-7.53-.1-.42.41-10.29,10.21-10.29,27.53,0,2.28.24,4.44.7,6.43-.51,1.58-1.67,3-3.23,3.89-1.76,1.01-3.76,1.21-5.48.55-2.97-1.14-4.75-3.01-5.62-5.87-1.97-6.52,1.33-16.22,5.45-22.03.94-1.32,1.84-2.4,2.76-3.28,2.12-2.04,2.18-5.41.14-7.53-2.04-2.12-5.41-2.18-7.53-.14-1.41,1.36-2.74,2.93-4.06,4.8-4.59,6.48-8.48,16.6-7.9,25.75-2.77.2-5.2-.56-6.61-2.1-2.02-2.21-2.35-5.83-2.36-7.79-.05-6.13,2.24-12.84,6.27-18.4,6.91-9.53,19.35-15.22,33.26-15.22,24.41,0,32.58,15.12,35.28,23.96l-10.75-.7Z"/>
  </g>
</svg>