<?xml version="1.0" encoding="UTF-8"?>
<svg id="Racoon" xmlns="http://www.w3.org/2000/svg" version="1.1" viewBox="0 0 1622.96 636.99">
  <!-- Generator: Adobe Illustrator 29.3.1, SVG Export Plug-In . SVG Version: 2.1.0 Build 151)  -->
  <defs>
    <style>
      .st0 {
        fill: #fff5db;
      }
    </style>
  </defs>
  <path class="st0" d="M286.07,110.72c68.81,0,124.75,36.85,145.62,100.33h-71.48c-14.65-29.74-41.29-44.4-74.58-44.4-54.16,0-92.79,39.51-92.79,102.55s38.62,102.55,92.79,102.55c33.3,0,59.93-14.65,74.58-44.84h71.48c-20.87,63.93-76.8,100.33-145.62,100.33-89.23,0-157.16-65.26-157.16-158.05s67.92-158.49,157.16-158.49Z"/>
  <path class="st0" d="M717.14,424.6h-62.6v-31.08c-15.54,20.87-42.62,34.18-73.25,34.18-57.27,0-98.56-37.29-98.56-104.77v-144.28h62.15v135.41c0,39.51,21.75,60.82,54.61,60.82s55.05-21.31,55.05-60.82v-135.41h62.6v245.95Z"/>
  <path class="st0" d="M840.56,424.6h-62.15v-245.95h62.15v38.18c15.54-25.31,41.29-41.73,75.47-41.73v65.26h-16.43c-36.85,0-59.05,14.21-59.05,61.71v122.53Z"/>
  <path class="st0" d="M1101.16,174.65c63.04,0,112.32,49.28,112.32,126.08s-49.28,127.86-112.32,127.86c-38.62,0-66.15-17.76-81.24-39.07v35.07h-62.15V96.07h62.15v118.54c15.09-22.64,43.95-39.96,81.24-39.96ZM1084.73,229.26c-33.3,0-64.82,25.75-64.82,72.36s31.52,72.36,64.82,72.36,65.26-26.64,65.26-73.25-31.52-71.48-65.26-71.48Z"/>
  <path class="st0" d="M1427.9,178.65h66.15l-152.28,362.27h-66.15l53.27-122.53-98.56-239.73h69.7l63.49,171.81,64.37-171.81Z"/>
</svg>