<?xml version="1.0" encoding="UTF-8"?>
<svg id="Racoon" xmlns="http://www.w3.org/2000/svg" version="1.1" viewBox="0 0 2346.04 996.14">
  <!-- Generator: Adobe Illustrator 29.3.1, SVG Export Plug-In . SVG Version: 2.1.0 Build 151)  -->
  <defs>
    <style>
      .st0, .st1 {
        fill: none;
      }

      .st2 {
        fill: #97948d;
      }

      .st3 {
        fill: #98958e;
      }

      .st4 {
        fill: #587652;
      }

      .st5 {
        fill: #2b3c42;
      }

      .st6 {
        fill: #132c33;
      }

      .st7 {
        fill: #fff;
      }

      .st8 {
        fill: #2b3c42;
      }

      .st9 {
        fill: #122933;
      }

      .st1 {
        stroke: #142d34;
        stroke-miterlimit: 10;
        stroke-width: 11px;
      }

      .st10 {
        fill: #475856;
      }

      .st11 {
        fill: #374933;
      }

      .st12 {
        fill: #8c9893;
      }

      .st13 {
        fill: #374f34;
      }

      .st14 {
        fill: #374f34;
      }

      .st15 {
        fill: #142d34;
      }

      .st16 {
        fill: #435a3e;
      }

      .st17 {
        fill: #fff5db;
      }
    </style>
  </defs>
  <g>
    <g>
      <path class="st4" d="M431.14,536.49c-61.5,0-119.71-5.52-165.53-15.63-3.78-.83-7.49-1.7-11.1-2.59-4.59-1.14-8.96-2.32-13.17-3.53-6.75-1.95-13-3.99-18.75-6.12-13.47-5-24.19-10.52-32.16-16.53v8.79c0,2.58.53,5.16,1.53,7.74.98,2.51,2.41,5.02,4.3,7.5,1.86,2.44,4.17,4.86,6.88,7.25,11.48,10.11,30.42,19.65,55.6,27.7,46.21,14.78,107.77,22.91,173.34,22.91,50.87,0,99.32-4.9,140.07-14l2.68-34.82c-41.85,7.36-91.59,11.32-143.69,11.32Z"/>
      <path class="st4" d="M619.17,546.29s.02,0,.04-.01l.32-2.71-.36,2.73Z"/>
      <path class="st4" d="M577.08,496.01c-39.81,6.79-90.6,10.86-145.94,10.86-115.67,0-211.5-17.77-228.56-40.98-1.47-2-2.36-4.05-2.62-6.12-.05-.43-.08-.86-.08-1.3,0-1.63.39-3.24,1.14-4.82,11.56-24.47,110.18-43.58,230.13-43.58,59.74,0,114.15,4.75,155.19,12.53l3.9-5.75c-42.86-9.06-98.39-14.53-159.09-14.53-122.44,0-223.95,22.24-242.57,51.33-1.29,2.01-2.17,4.05-2.65,6.12-.27,1.16-.42,2.34-.42,3.52,0,4.18,1.7,8.25,4.92,12.2,10.67,13.05,38.13,24.58,76.52,33.15,10.09,2.25,20.94,4.3,32.44,6.12,15.82,2.5,32.88,4.56,50.89,6.12,25.33,2.19,52.53,3.39,80.87,3.39s55.54-1.19,80.87-3.39c18.01-1.56,35.07-3.62,50.89-6.12,4.4-.7,8.7-1.43,12.91-2.19l.3-3.93.97-12.62Z"/>
      <path class="st4" d="M614.65,584.58l2.93-24.68c-.07.02-.13.05-.2.07l-2.87,24.51s.09.07.14.1Z"/>
      <path class="st4" d="M432.08,586.23c-66.8,0-129.68-8.34-177.07-23.49-20.79-6.65-37.64-14.37-50.21-22.88l27.18,269.83c36.8,31.79,115.63,52.34,200.84,52.34,37.93,0,74.25-3.95,106.23-11.13l18.88-275.51c-37.84,7.07-80.95,10.84-125.85,10.84ZM285.93,819.82c-.51.04-1.02.06-1.53.06-4.33,0-8.49-1.52-11.84-4.37-3.75-3.18-6.03-7.61-6.43-12.49l-16.62-201.82c-.4-4.87,1.13-9.62,4.3-13.37,3.18-3.75,7.61-6.03,12.49-6.43,4.89-.41,9.62,1.13,13.37,4.3,3.75,3.18,6.03,7.61,6.44,12.49l16.62,201.82c.83,10.09-6.7,18.98-16.79,19.81ZM364.09,830.4l-3.16.13c-.26,0-.52.02-.77.02-9.78,0-17.93-7.74-18.34-17.6l-7.94-191.52c-.42-10.12,7.47-18.69,17.58-19.11l3.16-.13c4.88-.22,9.57,1.52,13.18,4.85,3.62,3.33,5.72,7.85,5.92,12.74l7.94,191.52c.42,10.12-7.47,18.69-17.58,19.11ZM454.02,815.54c0,10.12-8.24,18.36-18.36,18.36h-3.16c-10.12,0-18.36-8.24-18.36-18.36v-191.69c0-10.12,8.24-18.36,18.36-18.36h3.16c10.12,0,18.36,8.24,18.36,18.36v191.69ZM527.61,812.95c-.41,9.86-8.56,17.6-18.34,17.6-.26,0-.51,0-.77-.02l-3.16-.13c-4.89-.2-9.41-2.31-12.74-5.92-3.33-3.62-5.05-8.3-4.85-13.19l7.94-191.52c.2-4.89,2.31-9.41,5.92-12.74,3.62-3.33,8.29-5.03,13.19-4.85l3.16.13c10.12.42,18.01,8.99,17.59,19.11l-7.94,191.52Z"/>
      <path class="st4" d="M538.18,863.56c-32.05,6.92-68,10.71-105.36,10.71-82.54,0-157.14-18.1-199.15-47.77l2.07,20.58.05.37c2.04,16.44,23.15,32.9,57.92,45.16,37.07,13.08,85.88,20.28,137.43,20.28,40.62,0,79.51-4.47,112.3-12.75l-7.87,1.49,2.61-38.06Z"/>
      <path class="st4" d="M578.88,888.68s.05-.02.07-.03l.93-8.53-1,8.56Z"/>
      <path class="st16" d="M623.03,514.12c-.69.21-1.37.42-2.08.62-4.2,1.21-8.58,2.39-13.17,3.53-3.61.9-7.32,1.76-11.1,2.59-7,1.54-14.3,2.98-21.84,4.3l-2.68,34.82c11.77-2.63,22.91-5.6,33.27-8.92,4.82-1.54,9.4-3.14,13.75-4.78l.36-2.73,3.5-29.44Z"/>
      <path class="st16" d="M577.08,496.01l-.97,12.62-.3,3.93c6.78-1.23,13.3-2.54,19.53-3.93,10.65-2.38,20.43-4.98,29.27-7.79l1.96-16.49c-13.41,4.43-30.15,8.36-49.49,11.66Z"/>
      <path class="st16" d="M583.08,850.86c-13.78,4.96-28.84,9.23-44.9,12.7l-2.61,38.06,7.87-1.49c9.02-2.28,17.58-4.84,25.58-7.69,3.42-1.21,6.7-2.47,9.85-3.76l1-8.56,3.2-29.26Z"/>
      <path class="st11" d="M623.43,514l-.1.74-.81,6.12-3,22.7-.32,2.71c17.07-6.45,30.51-13.63,39.77-21.17,2.6-2.12,4.87-4.26,6.8-6.42,2.97-3.32,5.13-6.69,6.44-10.07,1-2.58,1.53-5.16,1.53-7.74v-10.26c-8.13,6.58-19.48,12.59-34.04,17.99-5.03,1.87-10.47,3.66-16.27,5.38Z"/>
      <path class="st11" d="M614.65,584.58c5.25,3.61,8.48,9.84,7.92,16.63l-16.62,201.82c-.4,4.88-2.69,9.31-6.44,12.49-3.36,2.84-7.51,4.37-11.84,4.37-.25,0-.49-.02-.74-.03l-2.03,17.36c17.93-6.95,33.26-15.2,45.11-24.53l27.34-271.49c-10.53,6.81-23.85,13.09-39.77,18.7l-2.93,24.68Z"/>
      <path class="st11" d="M579.88,880.12l-.93,8.53c28.84-11.84,46.02-26.75,47.59-41.61l.34-3.19,1.51-14.95c-12.56,8.3-27.8,15.63-45.06,21.87l-3.44,29.35Z"/>
      <path class="st11" d="M622.52,520.86l.81-6.12.1-.74c-.13.04-.27.08-.4.12l-3.5,29.44,3-22.7Z"/>
      <path class="st11" d="M626.57,484.35l-1.96,16.49c.19-.06.39-.12.58-.18l2.19-16.57c-.27.09-.54.18-.81.26Z"/>
      <path class="st16" d="M583.32,850.77c-.08.03-.16.06-.24.09l-3.2,29.26,3.44-29.35Z"/>
      <path class="st13" d="M273.91,599.2c-.13-1.62-.9-3.09-2.15-4.15-1.12-.95-2.51-1.46-3.95-1.46-.17,0-.33,0-.5.02-1.62.13-3.09.9-4.16,2.15-1.06,1.25-1.57,2.84-1.44,4.45l16.62,201.82c.13,1.62.9,3.09,2.15,4.15,1.26,1.06,2.84,1.58,4.45,1.44,3.36-.28,5.87-3.24,5.6-6.6l-16.62-201.82Z"/>
      <rect class="st14" x="426.37" y="617.74" width="15.4" height="203.93" rx="6.12" ry="6.12"/>
      <path class="st14" d="M355.39,614.41c-.08,0-.17,0-.26,0l-3.16.13c-3.37.14-6,3-5.86,6.37l7.94,191.52c.14,3.37,2.99,6,6.37,5.86l3.16-.13c1.62-.07,3.12-.77,4.24-1.98,1.11-1.21,1.69-2.77,1.62-4.39l-7.94-191.52c-.14-3.29-2.85-5.87-6.11-5.87Z"/>
      <path class="st14" d="M517.46,614.54l-3.16-.13c-.09,0-.17,0-.26,0-3.26,0-5.98,2.58-6.11,5.87l-7.94,191.52c-.07,1.62.51,3.18,1.62,4.39,1.11,1.21,2.62,1.91,4.24,1.98l3.16.13c3.38.15,6.23-2.49,6.37-5.86l7.94-191.52c.14-3.37-2.49-6.23-5.86-6.37Z"/>
      <path class="st14" d="M604.78,593.6c-.17-.01-.34-.02-.5-.02-1.44,0-2.83.51-3.95,1.46-1.25,1.06-2.02,2.54-2.15,4.15l-16.62,201.82c-.28,3.36,2.23,6.33,5.6,6.6h0c.24.02.48.02.72.01.17,0,.33-.01.5-.03,1.18-.14,2.3-.63,3.23-1.42,1.25-1.06,2.02-2.54,2.15-4.16l11.19-135.87.18-2.2,5.25-63.76c.28-3.36-2.23-6.33-5.6-6.6Z"/>
      <path class="st16" d="M586.47,819.83c-.1,0-.21,0-.31-.01-4.87-.4-9.31-2.69-12.49-6.43-3.18-3.75-4.71-8.5-4.31-13.37l16.62-201.82c.4-4.87,2.69-9.31,6.43-12.49,3.75-3.18,8.49-4.71,13.37-4.3,3.24.27,6.21,1.37,8.73,3.07l2.87-24.51c-2.68.94-5.42,1.87-8.24,2.77-15.54,4.97-32.75,9.2-51.22,12.65l-18.88,275.51c16.45-3.69,31.74-8.24,45.51-13.55.12-.05.24-.09.36-.13l2.03-17.36c-.16,0-.32-.01-.48-.02Z"/>
      <path class="st16" d="M631.21,434.17l.54-6.08c-11.9-4.17-25.87-7.95-41.52-11.26l-3.9,5.75c17.65,3.35,32.84,7.25,44.88,11.59Z"/>
      <path class="st11" d="M676.36,459.76c-.47-2.07-1.36-4.11-2.65-6.12-5.39-8.43-17.78-16.28-35.58-23.19-2.06-.8-4.18-1.59-6.38-2.36l-.54,6.08c1.29.46,2.53.93,3.74,1.41,14.06,5.47,23.25,11.58,26.32,18.06.75,1.59,1.14,3.19,1.14,4.82,0,.43-.03.87-.08,1.3-.26,2.08-1.15,4.12-2.62,6.12-4.85,6.6-16.08,12.76-32.33,18.2l-2.19,16.57c24.82-7.93,41.94-17.42,48.54-27.78,1.99-3.13,3.04-6.33,3.04-9.6,0-1.18-.15-2.35-.42-3.52Z"/>
      <g>
        <path class="st15" d="M607.78,408.28c-47.33-11.75-110.06-18.22-176.64-18.22s-129.31,6.47-176.64,18.22c-53.9,13.38-81.24,31.88-81.24,54.99,0,5.66,1.65,11.04,4.92,16.14v21.46c0,9.78,4.52,19.22,13.21,28.04l32.22,319.89.57,5.51h.57c5.61,19.4,28.34,36.94,64.89,49.83,38.34,13.53,88.6,20.97,141.51,20.97s103.58-7.51,141.98-21.14c36.61-13,59.22-30.65,64.55-50.17h.5l32.51-322.86c10.05-9.4,15.29-19.53,15.29-30.06v-24.78c2.02-4.1,3.04-8.38,3.04-12.82,0-23.11-27.33-41.61-81.24-54.99ZM626.88,843.86l-.34,3.19c-1.57,14.86-18.75,29.76-47.59,41.61-.02,0-.05.02-.07.03-3.15,1.29-6.43,2.55-9.85,3.76-8.01,2.84-16.57,5.41-25.58,7.69-32.8,8.28-71.68,12.75-112.3,12.75-51.56,0-100.37-7.2-137.43-20.28-34.77-12.27-55.88-28.73-57.92-45.16l-.05-.37-2.07-20.58c42.02,29.67,116.61,47.77,199.15,47.77,37.36,0,73.31-3.78,105.36-10.71,16.06-3.47,31.12-7.73,44.9-12.7.08-.03.16-.06.24-.09,17.26-6.23,32.5-13.57,45.06-21.87l-1.51,14.95ZM630.02,812.68c-11.85,9.34-27.17,17.58-45.11,24.53-.12.05-.24.09-.36.13-13.76,5.31-29.05,9.86-45.51,13.55-31.97,7.18-68.3,11.13-106.23,11.13-85.21,0-164.05-20.54-200.84-52.34l-27.18-269.83c12.58,8.5,29.43,16.23,50.21,22.88,47.38,15.15,110.27,23.49,177.07,23.49,44.89,0,88.01-3.77,125.85-10.84,18.46-3.45,35.68-7.68,51.22-12.65,2.82-.9,5.56-1.83,8.24-2.77.07-.02.13-.05.2-.07,15.91-5.61,29.23-11.9,39.77-18.7l-27.34,271.49ZM673.74,500.89c0,2.58-.53,5.16-1.53,7.74-1.31,3.38-3.47,6.75-6.44,10.07-1.93,2.16-4.2,4.3-6.8,6.42-9.26,7.54-22.69,14.72-39.77,21.17-.01,0-.02,0-.04.01-4.35,1.64-8.93,3.24-13.75,4.78-10.36,3.31-21.5,6.29-33.27,8.92-40.75,9.1-89.2,14-140.07,14-65.57,0-127.13-8.14-173.34-22.91-25.19-8.05-44.13-17.59-55.6-27.7-2.71-2.39-5.02-4.81-6.88-7.25-1.9-2.49-3.33-4.99-4.3-7.5-1-2.58-1.53-5.16-1.53-7.74v-8.79c7.97,6.01,18.69,11.53,32.16,16.53,5.75,2.13,12.01,4.17,18.75,6.12,4.2,1.21,8.58,2.39,13.17,3.53,3.61.9,7.32,1.76,11.1,2.59,45.83,10.1,104.04,15.63,165.53,15.63,52.1,0,101.84-3.97,143.69-11.32,7.55-1.33,14.84-2.76,21.84-4.3,3.78-.83,7.49-1.7,11.1-2.59,4.59-1.14,8.96-2.32,13.17-3.53.71-.2,1.39-.41,2.08-.62.13-.04.27-.08.4-.12,5.79-1.72,11.24-3.51,16.27-5.38,14.56-5.4,25.91-11.41,34.04-17.99v10.26ZM673.74,472.88c-6.6,10.36-23.72,19.85-48.54,27.78-.19.06-.39.12-.58.18-8.84,2.8-18.63,5.41-29.27,7.79-6.23,1.39-12.75,2.7-19.53,3.93-4.2.76-8.51,1.49-12.91,2.19-15.82,2.5-32.88,4.56-50.89,6.12-25.33,2.19-52.53,3.39-80.87,3.39s-55.54-1.19-80.87-3.39c-18.01-1.56-35.07-3.62-50.89-6.12-11.5-1.82-22.34-3.87-32.44-6.12-38.4-8.57-65.85-20.1-76.52-33.15-3.22-3.94-4.92-8.02-4.92-12.2,0-1.18.15-2.35.42-3.52.47-2.07,1.36-4.11,2.65-6.12,18.62-29.09,120.12-51.33,242.57-51.33,60.7,0,116.23,5.47,159.09,14.53,15.65,3.31,29.62,7.09,41.52,11.26,2.2.77,4.32,1.56,6.38,2.36,17.81,6.9,30.19,14.76,35.58,23.19,1.29,2.01,2.17,4.05,2.65,6.12.27,1.16.42,2.34.42,3.52,0,3.27-1.05,6.47-3.04,9.6Z"/>
        <path class="st15" d="M634.95,435.58c-1.22-.47-2.45-.94-3.74-1.41-12.04-4.34-27.23-8.24-44.88-11.59-41.03-7.78-95.45-12.53-155.19-12.53-119.95,0-218.56,19.11-230.13,43.58-.75,1.59-1.14,3.19-1.14,4.82,0,.43.03.87.08,1.3.26,2.08,1.15,4.12,2.62,6.12,17.06,23.21,112.89,40.98,228.56,40.98,55.34,0,106.13-4.07,145.94-10.86,19.34-3.3,36.08-7.24,49.49-11.66.27-.09.54-.18.81-.26,16.24-5.44,27.47-11.6,32.33-18.2,1.47-2,2.36-4.05,2.62-6.12.05-.43.08-.86.08-1.3,0-1.63-.39-3.24-1.14-4.82-3.06-6.48-12.26-12.58-26.32-18.06Z"/>
        <path class="st15" d="M286.1,598.2c-.4-4.88-2.69-9.31-6.44-12.49-3.75-3.18-8.49-4.72-13.37-4.3-4.87.4-9.31,2.69-12.49,6.43-3.18,3.75-4.71,8.5-4.3,13.37l16.62,201.82c.4,4.87,2.69,9.31,6.43,12.49,3.36,2.84,7.51,4.37,11.84,4.37.51,0,1.02-.02,1.53-.06,10.09-.83,17.62-9.71,16.79-19.81l-16.62-201.82ZM284.93,807.62c-1.62.14-3.2-.38-4.45-1.44-1.25-1.06-2.02-2.54-2.15-4.15l-16.62-201.82c-.13-1.62.38-3.2,1.44-4.45,1.06-1.25,2.54-2.02,4.16-2.15.17-.01.33-.02.5-.02,1.44,0,2.82.51,3.95,1.46,1.25,1.06,2.02,2.54,2.15,4.15l16.62,201.82c.28,3.36-2.23,6.33-5.6,6.6Z"/>
        <path class="st15" d="M614.65,584.58s-.09-.07-.14-.1c-2.52-1.7-5.49-2.81-8.73-3.07-4.88-.41-9.62,1.13-13.37,4.3-3.75,3.18-6.03,7.61-6.43,12.49l-16.62,201.82c-.4,4.88,1.13,9.62,4.31,13.37,3.18,3.75,7.61,6.03,12.49,6.43.1,0,.21,0,.31.01.16,0,.32.01.48.02.25,0,.49.03.74.03,4.33,0,8.49-1.52,11.84-4.37,3.75-3.18,6.03-7.61,6.44-12.49l16.62-201.82c.56-6.79-2.68-13.02-7.92-16.63ZM610.38,600.21l-5.25,63.76-.18,2.2-11.19,135.87c-.13,1.62-.9,3.09-2.15,4.16-.93.79-2.06,1.28-3.23,1.42-.17.02-.33.03-.5.03-.24,0-.48,0-.72-.01h0c-3.36-.28-5.87-3.24-5.6-6.6l16.62-201.82c.13-1.62.9-3.09,2.15-4.15,1.12-.95,2.51-1.46,3.95-1.46.17,0,.33,0,.5.02,3.36.28,5.87,3.24,5.6,6.6Z"/>
        <path class="st15" d="M435.65,605.49h-3.16c-10.12,0-18.36,8.24-18.36,18.36v191.69c0,10.12,8.24,18.36,18.36,18.36h3.16c10.12,0,18.36-8.24,18.36-18.36v-191.69c0-10.12-8.24-18.36-18.36-18.36ZM441.78,815.54c0,3.38-2.75,6.12-6.12,6.12h-3.16c-3.38,0-6.12-2.75-6.12-6.12v-191.69c0-3.38,2.75-6.12,6.12-6.12h3.16c3.38,0,6.12,2.75,6.12,6.12v191.69Z"/>
        <path class="st15" d="M367.81,607.03c-3.62-3.33-8.31-5.06-13.18-4.85l-3.16.13c-10.12.42-18,8.99-17.58,19.11l7.94,191.52c.41,9.86,8.56,17.6,18.34,17.6.26,0,.51,0,.77-.02l3.16-.13c10.12-.42,18-8.99,17.58-19.11l-7.94-191.52c-.2-4.89-2.31-9.41-5.92-12.74ZM367.82,816.19c-1.11,1.21-2.62,1.91-4.24,1.98l-3.16.13c-3.38.14-6.23-2.49-6.37-5.86l-7.94-191.52c-.14-3.37,2.49-6.23,5.86-6.37l3.16-.13c.09,0,.17,0,.26,0,3.26,0,5.98,2.58,6.11,5.87l7.94,191.52c.07,1.62-.51,3.18-1.62,4.39Z"/>
        <path class="st15" d="M517.97,602.31l-3.16-.13c-4.9-.18-9.57,1.52-13.19,4.85-3.62,3.33-5.72,7.85-5.92,12.74l-7.94,191.52c-.2,4.89,1.52,9.57,4.85,13.19,3.33,3.62,7.85,5.72,12.74,5.92l3.16.13c.26,0,.52.02.77.02,9.78,0,17.93-7.74,18.34-17.6l7.94-191.52c.42-10.12-7.47-18.69-17.59-19.11ZM515.38,812.44c-.14,3.37-2.99,6.01-6.37,5.86l-3.16-.13c-1.62-.07-3.13-.77-4.24-1.98-1.11-1.21-1.69-2.77-1.62-4.39l7.94-191.52c.14-3.29,2.85-5.87,6.11-5.87.08,0,.17,0,.26,0l3.16.13c3.37.14,6,3,5.86,6.37l-7.94,191.52Z"/>
      </g>
    </g>
    <g>
      <g>
        <g>
          <path class="st3" d="M591.14,314.68c-3.43,16.23-6.39,32.47-9.23,48.06-.11.59-.22,1.18-.32,1.77,14.08,4.68,50.12,22.3,47.57,79.77,17.22-7.06,32.37-16.64,45.34-28.67,3.12-27.04-2.53-78.73-83.35-100.94Z"/>
          <path class="st3" d="M608.43,250.66c20.28,1.46,70.43,11.86,112.61,75.57,4.88-24.68,6.4-50.66,7.29-75.64-35.06-41.8-76.77-50.01-93.9-51.59-3.86,5.22-7.45,10.85-10.75,16.88-5.85,10.7-10.87,22.42-15.25,34.77Z"/>
          <path class="st3" d="M608.43,250.66c-7.17,20.19-12.65,42.08-17.28,64.01,80.82,22.21,86.47,73.9,83.35,100.94,7.34-6.81,13.99-14.39,19.93-22.76,13.83-19.51,21.84-42.44,26.62-66.63-42.19-63.71-92.33-74.11-112.61-75.57Z"/>
          <path class="st8" d="M608.43,250.66c-7.17,20.19-12.65,42.08-17.28,64.01,80.82,22.21,86.47,73.9,83.35,100.94,7.34-6.81,13.99-14.39,19.93-22.76,13.83-19.51,21.84-42.44,26.62-66.63-42.19-63.71-92.33-74.11-112.61-75.57Z"/>
          <path class="st3" d="M581.59,364.51c-7.53,41.29-13.87,75.37-25.88,93.79,10.11.01,26-.82,44.01-4.85,10.4-2.33,20.22-5.39,29.44-9.17,2.56-57.47-33.49-75.1-47.57-79.77Z"/>
          <path class="st8" d="M581.59,364.51c-7.53,41.29-13.87,75.37-25.88,93.79,10.11.01,26-.82,44.01-4.85,10.4-2.33,20.22-5.39,29.44-9.17,2.56-57.47-33.49-75.1-47.57-79.77Z"/>
          <path class="st3" d="M728.33,250.6c.19-5.22.35-10.41.5-15.52,1.07-34.68,2-65.24,11.21-84.92-8.38-.44-22.3-.26-38.12,3.67-27.74,6.88-50.37,22.05-67.49,45.19,17.13,1.57,58.84,9.79,93.9,51.59Z"/>
          <path class="st8" d="M728.33,250.6c.19-5.22.35-10.41.5-15.52,1.07-34.68,2-65.24,11.21-84.92-8.38-.44-22.3-.26-38.12,3.67-27.74,6.88-50.37,22.05-67.49,45.19,17.13,1.57,58.84,9.79,93.9,51.59Z"/>
        </g>
        <path class="st15" d="M754.59,143.26c-.73-1.81-2.34-3.12-4.27-3.46-.92-.16-22.82-3.89-50.65,2.91-25.74,6.29-61.53,23.14-85.92,67.74-23.37,42.73-33.78,99.85-42.98,150.25-8.17,44.79-15.89,87.1-30.6,98.27-1.85,1.4-2.65,3.79-2.03,6.03.62,2.23,2.55,3.86,4.85,4.11.11.01.5.05,1.15.11,5.39.44,28.65,1.8,57.65-4.63,43.19-9.58,78.41-32.12,101.85-65.18,32.88-46.36,34.88-111.58,36.49-163.98,1.17-38.01,2.18-70.83,13.77-86.71,1.15-1.58,1.41-3.64.68-5.45ZM721.04,326.23c-4.78,24.18-12.78,47.12-26.62,66.63-5.93,8.37-12.58,15.95-19.93,22.76-12.98,12.03-28.12,21.61-45.34,28.67-9.22,3.78-19.04,6.85-29.44,9.17-18.01,4.03-33.89,4.86-44.01,4.85,12.01-18.42,18.35-52.51,25.88-93.79.11-.59.21-1.18.32-1.77,2.84-15.59,5.81-31.84,9.23-48.06,4.63-21.93,10.11-43.82,17.28-64.01,4.39-12.35,9.4-24.07,15.25-34.77,3.3-6.03,6.88-11.66,10.75-16.88,17.12-23.14,39.75-38.31,67.49-45.19,15.82-3.92,29.74-4.11,38.12-3.67-9.2,19.68-10.14,50.25-11.21,84.92-.16,5.12-.32,10.3-.5,15.52-.89,24.98-2.41,50.96-7.29,75.64Z"/>
      </g>
      <g>
        <path class="st7" d="M617.84,235.44c-10.77-23.06-24.06-38.17-33.3-46.78-10.03-9.35-17.62-13.29-17.7-13.33-1.57-.81-2.73-2.26-3.15-3.98s-.09-3.54.93-4.99l7.32-10.42-20.99,6c-2.39.68-4.96-.15-6.5-2.11-1.54-1.96-1.73-4.65-.5-6.81.88-1.55,21.99-37.99,58.13-48.54,3.24-.95,6.64.91,7.59,4.16.95,3.24-.91,6.64-4.16,7.59-18.11,5.29-32.24,18.68-40.97,29.09l20.68-5.91c2.49-.71,5.17.22,6.67,2.34s1.51,4.95.02,7.07l-13.53,19.24c3.57,2.41,8.48,6.08,14.07,11.24,6.66,6.16,15.22,15.37,23.63,28.04,7.55-18.05,20.96-58.4,12.81-102.4-1.58-8.55-5.17-13.72-10.96-15.81-11.35-4.11-32.28,2.58-58.93,18.83-21.34,13.02-39.05,27.69-39.23,27.84-1.68,1.4-3.99,1.8-6.04,1.03l-37.11-13.77c-7.75,10.49-17.57,17.59-18.16,18.01-2.75,1.96-6.57,1.33-8.54-1.42-1.97-2.75-1.33-6.57,1.42-8.54.16-.12,16.72-12.13,21.32-26.15-4.47-.05-15.13,3-24.5,7.15-2.83,1.26-6.15.2-7.74-2.45-1.59-2.65-.95-6.08,1.5-7.97,8.06-6.27,15.8-14.12,18.17-18.22-.79-.07-1.88-.1-3.34-.02-26.37,1.41-69.25,38.09-69.68,38.46-.55.47-1.18.85-1.87,1.1l-37.25,13.82c-2.05.76-4.36.37-6.04-1.03-.18-.15-17.89-14.82-39.23-27.84-26.65-16.25-47.58-22.94-58.93-18.83-5.79,2.09-9.37,7.27-10.96,15.81-8.15,44.01,5.26,84.35,12.81,102.4,8.41-12.67,16.97-21.88,23.63-28.04,5.59-5.16,10.5-8.83,14.07-11.24l-13.53-19.24c-1.49-2.12-1.48-4.95.02-7.07,1.5-2.11,4.18-3.05,6.67-2.34l20.68,5.91c-8.74-10.42-22.87-23.8-40.97-29.09-3.24-.95-5.11-4.35-4.16-7.59.95-3.25,4.35-5.11,7.59-4.16,36.14,10.56,57.25,47,58.13,48.54,1.23,2.16,1.03,4.85-.5,6.81-1.54,1.96-4.11,2.79-6.5,2.11l-20.99-6,7.32,10.42c1.02,1.45,1.36,3.28.93,5s-1.59,3.18-3.17,3.98c-.06.03-7.65,3.98-17.68,13.33-9.24,8.61-22.53,23.72-33.3,46.78-17.91,38.33-48.27,59.69-60.88,67.29,13.39,20.4,37.19,28.28,37.45,28.36,2.49.8,4.19,3.09,4.25,5.71s-1.55,4.97-4.01,5.87c-5.51,2.02-11.08,3.02-15.94,3.48,11.03,11.2,31.34,29.87,58.27,46.22,41.04,24.92,85.68,26.75,86.13,26.76,3.38.12,6.02,2.95,5.91,6.33-.11,3.31-2.83,5.91-6.11,5.91-.07,0-.14,0-.21,0-.51-.02-4.03-.16-9.73-.82,0,0,0,0,0,0-4.11,6.8-10.82,18.93-13.14,29.1,3.37,3.22,6,6.61,8.05,9.84,7.72,12.18,8.68,24.37,8.72,24.89,0,.03,0,.07,0,.1,0,.12,0,.24,0,.36,0,.11,0,.23,0,.34,0,.04,0,.07,0,.11,0,.06-.02.13-.02.19-.01.13-.02.25-.04.37-.01.1-.03.19-.05.29,0,.02,0,.03-.01.05,23.95,1.74,49.39,2.64,75.51,2.64,16.57,0,32.86-.37,48.68-1.08,1.24-8.18,4.6-16.31,9.8-23.47,9.63-13.28,25.61-21.9,43.77-23.94,0,0,0,0,0,0,.46-5.83.52-12.56-.35-19.48h0c-4.01.4-6.46.5-6.88.51-.07,0-.14,0-.21,0-3.29,0-6-2.61-6.11-5.92-.11-3.38,2.53-6.21,5.91-6.32.45-.02,45.09-1.85,86.13-26.76,26.93-16.35,47.24-35.02,58.27-46.22-4.86-.45-10.43-1.46-15.94-3.48-2.46-.9-4.07-3.26-4.01-5.88.06-2.62,1.77-4.91,4.26-5.7.25-.08,24.04-7.95,37.44-28.36-12.61-7.6-42.97-28.96-60.88-67.29Z"/>
        <path class="st7" d="M461.36,218.56c13.55-25.99,36.66-35.21,63.76-27.66.46.13.92.26,1.38.4,10.99,3.25,21.33,8.36,30.87,14.67,39.54,26.14,64.99,68.52,106.18,92.8,2.9,1.71,10.69,4.89,11.79,8.36,1.1,3.49-2.98,6.15-5.25,8.03-4.22,3.49-8.98,6.24-13.46,9.36-36.78,25.55-90.84,42.69-132.22,17.67-25.26-15.28-40.44-46.4-71.2-51.64.39-24.13-3.3-50.05,8.14-71.99ZM408.54,290.55c-30.76,5.24-45.94,36.36-71.2,51.64-41.37,25.02-95.44,7.88-132.22-17.67-4.49-3.12-9.24-5.86-13.46-9.36-2.27-1.88-6.35-4.54-5.25-8.03s8.89-6.65,11.79-8.36c41.19-24.28,66.63-66.66,106.18-92.8,9.54-6.31,19.88-11.42,30.87-14.67.46-.14.92-.27,1.38-.4,27.1-7.55,50.21,1.67,63.76,27.66,11.44,21.94,7.76,47.86,8.14,71.99Z"/>
        <g>
          <path class="st5" d="M284.15,457.71c-17.32,0-32.8,7.08-41.41,18.95-5.02,6.92-7.87,15.27-7.81,22.9.02,2.44.42,6.95,2.94,9.7,1.76,1.92,4.78,2.86,8.23,2.62-.71-11.39,4.12-23.99,9.84-32.06,1.65-2.33,3.3-4.28,5.06-5.97,2.64-2.54,6.83-2.46,9.38.17,2.54,2.64,2.46,6.83-.17,9.38-1.15,1.11-2.27,2.44-3.44,4.09-5.12,7.23-9.24,19.31-6.78,27.43,1.08,3.57,3.3,5.89,7,7.31,2.14.82,4.62.58,6.82-.68,1.94-1.11,3.38-2.87,4.02-4.84-.57-2.49-.87-5.17-.87-8.01,0-21.56,12.28-33.76,12.81-34.27,2.62-2.55,6.82-2.5,9.38.13,2.54,2.61,2.5,6.79-.1,9.35-.44.45-8.83,9.14-8.83,24.8,0,6.11,1.93,10.55,5.16,11.89,2.35.97,5.25.14,7.57-2.18,5.51-5.51,5.25-19.79,4.73-24.36-.22-1.95.43-3.91,1.78-5.33,1.36-1.42,3.28-2.17,5.23-2.05l13.38.88c-3.35-11-13.53-29.82-43.91-29.82Z"/>
          <path class="st6" d="M342.89,494.23c-.04-.51-1-12.71-8.72-24.89-7.2-11.36-21.72-24.9-50.03-24.9-21.56,0-41.05,9.13-52.14,24.42-6.75,9.3-10.42,20.23-10.34,30.79.04,5.31,1.19,12.83,6.42,18.55,4.11,4.49,10.28,6.97,17.03,6.97,1.3,0,2.62-.09,3.95-.28.31-.04.6-.11.89-.2,2.77,4.46,6.91,7.84,12.25,9.89,2.38.91,4.87,1.37,7.38,1.37,3.69,0,7.41-.98,10.78-2.91,1.72-.99,3.27-2.17,4.64-3.52,1.56,1.37,3.32,2.49,5.26,3.3,2.32.96,4.75,1.43,7.18,1.43,5.3,0,10.6-2.24,14.84-6.48,7.32-7.32,8.81-19.4,8.89-27.4l14.65.96c.05,0,.1,0,.16,0,.09,0,.18,0,.27,0,.12,0,.24,0,.36,0,.04,0,.08,0,.13,0,.09,0,.17-.02.25-.03.09-.01.18-.02.27-.03.14-.02.27-.05.4-.08.08-.02.16-.03.23-.05.14-.04.28-.08.42-.12.07-.02.13-.04.2-.07.14-.05.28-.11.42-.17.06-.03.12-.05.17-.08.14-.07.27-.14.4-.21.06-.03.11-.06.17-.1.12-.08.25-.15.37-.24.06-.04.12-.08.17-.12.11-.08.21-.16.32-.25.06-.05.13-.11.19-.16.09-.08.18-.17.26-.25.07-.07.14-.14.2-.21.07-.08.14-.16.21-.24.07-.09.14-.17.2-.26.06-.08.11-.16.17-.24.07-.1.13-.2.19-.3.05-.08.09-.16.14-.25.06-.1.11-.21.16-.32.04-.09.08-.18.12-.27.04-.1.09-.21.13-.32.04-.1.07-.21.1-.31.03-.1.06-.2.09-.3.03-.12.05-.23.08-.35.02-.1.04-.19.05-.29.02-.12.03-.25.04-.37,0-.06.02-.13.02-.19,0-.04,0-.07,0-.11,0-.11,0-.23,0-.34,0-.12,0-.24,0-.36,0-.03,0-.07,0-.1ZM314.68,486.66c-1.95-.12-3.88.63-5.23,2.05-1.36,1.42-2.01,3.38-1.78,5.33.52,4.57.78,18.85-4.73,24.36-2.32,2.32-5.22,3.15-7.57,2.18-3.23-1.34-5.16-5.78-5.16-11.89,0-15.66,8.38-24.35,8.83-24.8,2.59-2.56,2.64-6.73.1-9.35-2.55-2.63-6.75-2.68-9.38-.13-.52.51-12.81,12.71-12.81,34.27,0,2.84.3,5.52.87,8.01-.64,1.97-2.08,3.73-4.02,4.84-2.19,1.26-4.67,1.5-6.82.68-3.69-1.42-5.92-3.74-7-7.31-2.46-8.12,1.66-20.19,6.78-27.43,1.16-1.64,2.29-2.98,3.44-4.09,2.64-2.54,2.71-6.74.17-9.38-2.54-2.64-6.74-2.71-9.38-.17-1.75,1.69-3.41,3.64-5.06,5.97-5.71,8.07-10.55,20.66-9.84,32.06-3.45.24-6.48-.7-8.23-2.62-2.52-2.75-2.92-7.26-2.94-9.7-.06-7.63,2.79-15.98,7.81-22.9,8.61-11.86,24.09-18.95,41.41-18.95,30.39,0,40.56,18.83,43.91,29.82l-13.38-.88Z"/>
        </g>
        <g>
          <path class="st5" d="M408.57,297.74c-28.06,4.54-41.9,31.51-64.94,44.75-44.2,25.39-90.96-4.25-123.37-34.49-.3-1.35,9.69-8,11.61-9.63,32.91-28.03,68.42-75.68,111.12-86.98,24.72-6.54,45.8,1.45,58.16,23.97,10.43,19.01,7.07,41.47,7.43,62.38Z"/>
          <g>
            <ellipse class="st9" cx="349.58" cy="280.96" rx="32.12" ry="35.97"/>
            <ellipse class="st7" cx="349.58" cy="280.96" rx="24.27" ry="28.4"/>
            <ellipse class="st9" cx="356.35" cy="286.34" rx="18.94" ry="23.02"/>
            <circle class="st7" cx="359.17" cy="276.46" r="5.65"/>
          </g>
          <g>
            <path class="st12" d="M265.05,407.33c-4.93,5.94-20.04,25.93-25.16,52.91,11.34-10.03,27.14-15.8,44.26-15.8,20.27,0,33.48,6.95,41.98,15.06,2.32-10.16,9.03-22.3,13.14-29.1-14.82-1.73-44.4-7.03-74.22-23.08Z"/>
            <path class="st12" d="M606.08,477.64c-.48-31.23-17.34-55.61-23.33-63.29-26.61,11.54-51.07,15.22-62.58,16.37.88,6.92.81,13.65.35,19.48,2.75-.31,5.54-.48,8.37-.48,28.31,0,42.83,13.54,50.03,24.9,2.02,3.18,3.57,6.37,4.77,9.35,8.17-1.78,15.68-3.7,22.43-5.72-.02-.2-.04-.4-.04-.61Z"/>
          </g>
          <g>
            <path class="st5" d="M460.62,235.36c12.36-22.52,33.44-30.51,58.16-23.97,42.7,11.3,78.21,58.95,111.12,86.98,1.91,1.63,11.9,8.27,11.61,9.63-32.41,30.24-79.17,59.89-123.37,34.49-23.04-13.24-36.88-40.21-64.94-44.75.35-20.91-3.01-43.37,7.43-62.38Z"/>
            <g>
              <ellipse class="st9" cx="512.19" cy="280.96" rx="32.12" ry="35.97"/>
              <ellipse class="st7" cx="512.19" cy="280.96" rx="24.27" ry="28.4"/>
              <ellipse class="st9" cx="505.41" cy="286.34" rx="18.94" ry="23.02"/>
              <circle class="st7" cx="502.6" cy="276.46" r="5.65"/>
            </g>
          </g>
        </g>
        <path class="st15" d="M487.25,351.18c-3.59-.73-7.08,1.55-7.81,5.14-.23,1.03-5.95,23.91-45.97,28.76,6.65-12.56,5.54-27.34,5.47-28.18-.31-3.64-3.51-6.34-7.14-6.04-3.64.3-6.36,3.49-6.07,7.14.02.2,1.4,19.63-9.63,27.59-19.82-1.91-33.53-12.88-40.77-20.43l3.46-2.41c1.97-1.38,2.96-3.78,2.51-6.15-.44-2.37-2.23-4.25-4.57-4.82-4.85-1.17-11.83-.39-16.98,4.55-.61.47-1.11,1.03-1.51,1.64-1.87,2.29-3.39,5.27-4.31,9.07-.6,2.47.39,5.06,2.49,6.49,1.04.71,2.25,1.07,3.45,1.07s2.45-.37,3.5-1.1l.98-.68c9.17,10.03,28.57,26.32,57.73,26.32,1.5,0,3.04-.04,4.59-.13,57.62-3.33,65.43-38.46,65.73-39.96.73-3.59-1.58-7.13-5.17-7.86Z"/>
        <path class="st3" d="M617.84,235.44c-10.77-23.06-24.06-38.17-33.3-46.78-10.03-9.35-17.62-13.29-17.7-13.33-1.57-.81-2.73-2.26-3.15-3.98s-.09-3.54.93-4.99l7.32-10.42-20.99,6c-2.39.68-4.96-.15-6.5-2.11-1.54-1.96-1.73-4.65-.5-6.81.88-1.55,21.99-37.99,58.13-48.54,3.24-.95,6.64.91,7.59,4.16.95,3.24-.91,6.64-4.16,7.59-18.11,5.29-32.24,18.68-40.97,29.09l20.68-5.91c2.49-.71,5.17.22,6.67,2.34s1.51,4.95.02,7.07l-13.53,19.24c3.57,2.41,8.48,6.08,14.07,11.24,6.66,6.16,15.22,15.37,23.63,28.04,7.55-18.05,20.96-58.4,12.81-102.4-1.58-8.55-5.17-13.72-10.96-15.81-11.35-4.11-32.28,2.58-58.93,18.83-21.34,13.02-39.05,27.69-39.23,27.84-1.68,1.4-3.99,1.8-6.04,1.03l-37.11-13.77c-7.75,10.49-17.57,17.59-18.16,18.01-2.75,1.96-6.57,1.33-8.54-1.42-1.97-2.75-1.33-6.57,1.42-8.54.16-.12,16.72-12.13,21.32-26.15-4.47-.05-15.13,3-24.5,7.15-2.83,1.26-6.15.2-7.74-2.45-1.59-2.65-.95-6.08,1.5-7.97,8.06-6.27,15.8-14.12,18.17-18.22-.79-.07-1.88-.1-3.34-.02-26.37,1.41-69.25,38.09-69.68,38.46-.55.47-1.18.85-1.87,1.1l-37.25,13.82c-2.05.76-4.36.37-6.04-1.03-.18-.15-17.89-14.82-39.23-27.84-26.65-16.25-47.58-22.94-58.93-18.83-5.79,2.09-9.37,7.27-10.96,15.81-8.15,44.01,5.26,84.35,12.81,102.4,8.41-12.67,16.97-21.88,23.63-28.04,5.59-5.16,10.5-8.83,14.07-11.24l-13.53-19.24c-1.49-2.12-1.48-4.95.02-7.07,1.5-2.11,4.18-3.05,6.67-2.34l20.68,5.91c-8.74-10.42-22.87-23.8-40.97-29.09-3.24-.95-5.11-4.35-4.16-7.59.95-3.25,4.35-5.11,7.59-4.16,36.14,10.56,57.25,47,58.13,48.54,1.23,2.16,1.03,4.85-.5,6.81-1.54,1.96-4.11,2.79-6.5,2.11l-20.99-6,7.32,10.42c1.02,1.45,1.36,3.28.93,5s-1.59,3.18-3.17,3.98c-.06.03-7.65,3.98-17.68,13.33-9.24,8.61-22.53,23.72-33.3,46.78-17.91,38.33-48.27,59.69-60.88,67.29,1.07,1.63,2.21,3.17,3.39,4.64.02-.08.03-.16.06-.25,1.1-3.48,8.89-6.65,11.79-8.36,41.19-24.28,66.63-66.66,106.18-92.8,9.54-6.31,19.88-11.42,30.87-14.67.46-.14.92-.27,1.38-.4,27.1-7.55,50.21,1.67,63.76,27.66,8.16,15.65,8.62,33.33,8.36,50.94.22,9.43-.35,18.98-.19,28.23-.1.02-.2.04-.3.06-.22,4.34-.55,8.9-1.06,13.22,6.35-4.27,14.67-6.87,23.78-6.87s17.41,2.59,23.76,6.85c-.52-3.62-.97-7.98-1.3-13.21-.08-.01-.16-.04-.25-.05.02-1.39.03-2.79.02-4.19-.3-6.68-.41-14.62-.22-24.05-.26-17.61.2-35.29,8.36-50.94,13.55-25.99,36.66-35.21,63.76-27.66.46.13.92.26,1.38.4,10.99,3.25,21.33,8.36,30.87,14.67,39.54,26.14,64.99,68.52,106.18,92.8,2.9,1.71,10.69,4.89,11.79,8.36.02.06.03.12.04.18,1.16-1.45,2.29-2.97,3.34-4.57-12.61-7.6-42.97-28.96-60.88-67.29Z"/>
        <g>
          <path class="st0" d="M264.3,408.25c.07-.09.14-.17.21-.26-.07.08-.14.17-.21.26Z"/>
          <path class="st0" d="M252.29,111.8s.01.06.02.09c0-.03-.02-.06-.02-.09Z"/>
          <path class="st0" d="M263.62,409.11c.09-.12.19-.24.28-.35-.09.11-.18.23-.28.35Z"/>
          <path class="st0" d="M252.64,112.77s.03.06.04.09c-.01-.03-.03-.06-.04-.09Z"/>
          <path class="st0" d="M269.5,409.65c.9.46,1.81.9,2.71,1.34-.9-.44-1.8-.88-2.71-1.34Z"/>
          <path class="st0" d="M265.05,407.33c1.16.62,2.31,1.22,3.46,1.81-1.15-.59-2.31-1.19-3.46-1.81Z"/>
          <path class="st0" d="M262.89,410.04c.11-.15.22-.29.33-.43-.11.14-.22.28-.33.43Z"/>
          <path class="st0" d="M522.23,430.5c.1-.01.2-.02.3-.03-.1.01-.2.02-.3.03Z"/>
          <path class="st0" d="M253.15,113.69s0,0,0,0c0,0,0,0,0,0Z"/>
          <path class="st0" d="M262.12,411.05c.13-.17.25-.33.38-.5-.12.16-.25.33-.38.5Z"/>
          <path class="st0" d="M523.44,430.36c.2-.02.41-.05.62-.07-.21.03-.41.05-.62.07Z"/>
          <path class="st0" d="M260.79,412.87c.33-.45.64-.89.95-1.3-.31.41-.62.85-.95,1.3Z"/>
          <path class="st0" d="M316.21,426.37c.73.17,1.46.33,2.17.49-.72-.16-1.44-.32-2.17-.49Z"/>
          <path class="st0" d="M254.51,115.1s.09.06.13.1c-.04-.03-.09-.06-.13-.1Z"/>
          <path class="st0" d="M269.54,179.16c-.41.38-.83.77-1.25,1.18.43-.4.84-.8,1.25-1.18Z"/>
          <path class="st0" d="M253.82,114.5s-.04-.05-.06-.07c.02.02.04.05.06.07Z"/>
          <path class="st0" d="M302.59,422.75c1.05.31,2.08.62,3.11.91-1.02-.29-2.06-.59-3.11-.91Z"/>
          <path class="st0" d="M325.08,428.23c.67.13,1.33.25,1.97.36-.65-.12-1.3-.24-1.97-.36Z"/>
          <path class="st0" d="M273.03,411.38c1.14.55,2.28,1.08,3.42,1.6-1.14-.52-2.28-1.05-3.42-1.6Z"/>
          <path class="st0" d="M295.62,420.53c.97.33,1.94.65,2.9.95-.96-.31-1.93-.63-2.9-.95Z"/>
          <path class="st0" d="M299.38,421.76c.89.28,1.77.56,2.65.82-.88-.27-1.76-.54-2.65-.82Z"/>
          <path class="st0" d="M330.55,429.19c.5.08.99.16,1.47.23-.48-.07-.97-.15-1.47-.23Z"/>
          <path class="st0" d="M319.05,427c.89.19,1.77.38,2.63.56-.86-.18-1.74-.36-2.63-.56Z"/>
          <path class="st0" d="M309.61,424.73c1.99.53,3.93,1.01,5.82,1.45-1.89-.44-3.83-.93-5.82-1.45Z"/>
          <path class="st0" d="M306.38,423.85c.82.23,1.63.45,2.43.67-.8-.22-1.61-.44-2.43-.67Z"/>
          <path class="st0" d="M322.27,427.68c.67.14,1.34.27,1.99.39-.65-.13-1.32-.26-1.99-.39Z"/>
          <path class="st0" d="M327.52,428.68c.77.14,1.51.26,2.24.38-.73-.12-1.48-.25-2.24-.38Z"/>
          <path class="st0" d="M524.95,430.17c.3-.04.61-.08.92-.12-.31.04-.62.08-.92.12Z"/>
          <path class="st0" d="M284.3,416.34c1.13.45,2.25.89,3.36,1.32-1.12-.43-2.24-.87-3.36-1.32Z"/>
          <path class="st0" d="M280.9,414.93c1.01.43,2.01.85,3.01,1.25-1-.41-2-.82-3.01-1.25Z"/>
          <path class="st0" d="M277.12,413.28c.94.42,1.87.83,2.81,1.24-.93-.4-1.87-.81-2.81-1.24Z"/>
          <path class="st0" d="M288.53,417.99c.88.33,1.75.66,2.62.97-.87-.32-1.74-.64-2.62-.97Z"/>
          <path class="st0" d="M291.98,419.26c1.1.39,2.19.78,3.28,1.15-1.08-.37-2.18-.75-3.28-1.15Z"/>
          <path class="st0" d="M337.5,430.19c.33.04.65.08.96.12-.32-.04-.63-.08-.96-.12Z"/>
          <path class="st0" d="M335.43,429.92c.41.06.81.11,1.2.16-.39-.05-.79-.11-1.2-.16Z"/>
          <path class="st0" d="M332.82,429.54c.65.1,1.28.19,1.9.28-.62-.09-1.25-.18-1.9-.28Z"/>
          <path class="st0" d="M255.42,115.67s.09.04.13.06c-.04-.02-.09-.04-.13-.06Z"/>
          <path class="st0" d="M242.28,450.32c.2-.7.41-1.39.63-2.08-.22.69-.43,1.38-.63,2.08Z"/>
          <path class="st0" d="M554.09,424.35c.9-.24,1.81-.5,2.73-.76-.92.26-1.83.52-2.73.76Z"/>
          <path class="st0" d="M243,447.97c1.19-3.75,2.53-7.31,3.96-10.66-1.43,3.35-2.77,6.91-3.96,10.66Z"/>
          <path class="st0" d="M551.41,425.06c.75-.19,1.5-.39,2.26-.6-.76.2-1.52.4-2.26.6Z"/>
          <path class="st0" d="M241.58,452.82c.19-.72.39-1.44.6-2.15-.21.71-.41,1.43-.6,2.15Z"/>
          <path class="st0" d="M548.56,425.78c.71-.17,1.42-.35,2.14-.53-.72.18-1.43.36-2.14.53Z"/>
          <path class="st0" d="M545.56,426.49c.83-.19,1.68-.39,2.53-.6-.85.21-1.7.4-2.53.6Z"/>
          <path class="st0" d="M247.94,435.09c1.47-3.25,3-6.28,4.54-9.07-1.54,2.79-3.07,5.82-4.54,9.07Z"/>
          <path class="st0" d="M543.09,427.04c.65-.14,1.31-.29,1.98-.44-.67.15-1.33.3-1.98.44Z"/>
          <path class="st0" d="M247.03,437.15c.28-.64.55-1.28.84-1.9-.28.63-.56,1.26-.84,1.9Z"/>
          <path class="st0" d="M259.99,413.99c.19-.27.38-.54.56-.79-.18.26-.37.52-.56.79Z"/>
          <path class="st0" d="M576.6,416.89c.75-.3,1.5-.6,2.25-.91-.75.31-1.5.61-2.25.91Z"/>
          <path class="st0" d="M569.88,419.42c.9-.32,1.8-.65,2.7-.98-.91.34-1.81.66-2.7.98Z"/>
          <path class="st0" d="M572.82,418.35c.98-.36,1.97-.74,2.95-1.13-.99.39-1.97.76-2.95,1.13Z"/>
          <path class="st0" d="M579.73,415.63c1-.42,2.01-.84,3.02-1.28-1.01.44-2.02.86-3.02,1.28Z"/>
          <path class="st0" d="M540.46,427.59c.64-.13,1.29-.27,1.94-.41-.66.14-1.3.28-1.94.41Z"/>
          <path class="st0" d="M239.89,460.23c.47-2.5,1.04-4.94,1.67-7.31-.63,2.37-1.19,4.81-1.67,7.31Z"/>
          <path class="st0" d="M566.8,420.49c.75-.25,1.5-.51,2.25-.77-.75.26-1.5.52-2.25.77Z"/>
          <path class="st0" d="M560.39,422.54c.83-.25,1.66-.51,2.49-.77-.84.27-1.67.52-2.49.77Z"/>
          <path class="st0" d="M563.22,421.66c.95-.3,1.91-.62,2.87-.94-.96.32-1.92.64-2.87.94Z"/>
          <path class="st0" d="M557.4,423.43c.73-.21,1.47-.43,2.22-.65-.74.22-1.48.44-2.22.65Z"/>
          <path class="st0" d="M257.18,418.14c.24-.37.48-.74.72-1.1-.24.36-.48.72-.72,1.1Z"/>
          <path class="st0" d="M252.58,425.83c.28-.51.56-1.01.84-1.5-.28.49-.56.99-.84,1.5Z"/>
          <path class="st0" d="M258.15,416.67c.22-.33.43-.64.64-.95-.21.31-.43.63-.64.95Z"/>
          <path class="st0" d="M533.21,428.95c.54-.09,1.09-.19,1.64-.28-.56.1-1.1.19-1.64.28Z"/>
          <path class="st0" d="M527.09,429.89c.36-.05.71-.1,1.08-.15-.37.05-.73.1-1.08.15Z"/>
          <path class="st0" d="M528.97,429.62c.38-.06.76-.11,1.15-.17-.39.06-.77.12-1.15.17Z"/>
          <path class="st0" d="M254.45,422.55c.91-1.54,1.81-2.98,2.68-4.33-.87,1.35-1.77,2.8-2.68,4.33Z"/>
          <path class="st0" d="M259.09,415.29c.2-.29.4-.58.6-.86-.2.28-.4.57-.6.86Z"/>
          <path class="st0" d="M530.86,429.33c.62-.1,1.25-.2,1.9-.31-.65.11-1.28.21-1.9.31Z"/>
          <path class="st0" d="M535.56,428.53c.53-.1,1.07-.2,1.61-.3-.54.1-1.08.2-1.61.3Z"/>
          <path class="st0" d="M253.57,424.08c.28-.49.57-.98.85-1.46-.28.48-.56.96-.85,1.46Z"/>
          <path class="st0" d="M537.77,428.12c.74-.14,1.49-.29,2.25-.44-.76.15-1.51.3-2.25.44Z"/>
          <path class="st5" d="M401.14,235.36c-12.36-22.52-33.44-30.51-58.16-23.97-42.7,11.3-78.21,58.95-111.12,86.98-1.91,1.63-11.9,8.27-11.61,9.63,32.41,30.24,79.17,59.89,123.37,34.49,23.04-13.24,36.88-40.21,64.94-44.75-.35-20.91,3.01-43.37-7.43-62.38ZM349.58,316.93c-17.74,0-32.12-16.11-32.12-35.97s14.38-35.97,32.12-35.97,32.12,16.11,32.12,35.97-14.38,35.97-32.12,35.97Z"/>
          <path class="st7" d="M337.41,286.34c0-12.71,8.48-23.02,18.94-23.02,7.65,0,14.24,5.52,17.23,13.46-1.73-13.71-11.81-24.23-24-24.23-13.4,0-24.27,12.72-24.27,28.4s10.86,28.4,24.27,28.4c1.24,0,2.45-.11,3.64-.32-8.97-1.82-15.81-11.29-15.81-22.7Z"/>
          <path class="st9" d="M349.58,244.98c-17.74,0-32.12,16.11-32.12,35.97s14.38,35.97,32.12,35.97,32.12-16.11,32.12-35.97-14.38-35.97-32.12-35.97ZM349.58,309.36c-13.4,0-24.27-12.72-24.27-28.4s10.86-28.4,24.27-28.4c12.19,0,22.28,10.52,24,24.23.17,1.36.26,2.76.26,4.18,0,14.24-8.95,26.03-20.63,28.08-1.19.21-2.4.32-3.64.32Z"/>
          <path class="st9" d="M373.84,280.96c0-1.42-.09-2.81-.26-4.18-2.99-7.94-9.58-13.46-17.23-13.46-10.46,0-18.94,10.31-18.94,23.02,0,11.42,6.84,20.89,15.81,22.7,11.67-2.06,20.63-13.85,20.63-28.08ZM359.17,282.11c-3.12,0-5.65-2.53-5.65-5.65s2.53-5.65,5.65-5.65,5.65,2.53,5.65,5.65-2.53,5.65-5.65,5.65Z"/>
          <circle class="st7" cx="359.17" cy="276.46" r="5.65" transform="translate(-90.29 334.94) rotate(-45)"/>
          <path class="st2" d="M337.5,430.19c-.28-.04-.57-.07-.86-.11-.39-.05-.79-.11-1.2-.16-.24-.03-.47-.06-.72-.1-.62-.09-1.25-.18-1.9-.28-.26-.04-.53-.08-.79-.12-.48-.07-.97-.15-1.47-.23-.26-.04-.52-.08-.79-.13-.73-.12-1.48-.25-2.24-.38-.15-.03-.32-.06-.47-.09-.65-.12-1.3-.24-1.97-.36-.27-.05-.54-.1-.82-.16-.65-.13-1.32-.26-1.99-.39-.2-.04-.39-.08-.59-.12-.86-.18-1.74-.36-2.63-.56-.22-.05-.44-.1-.66-.15-.72-.16-1.44-.32-2.17-.49-.26-.06-.52-.12-.78-.18-1.89-.44-3.83-.93-5.82-1.45-.26-.07-.53-.14-.8-.21-.8-.22-1.61-.44-2.43-.67-.23-.06-.46-.13-.69-.19-1.03-.29-2.06-.59-3.11-.91-.19-.06-.37-.11-.56-.17-.88-.27-1.76-.54-2.65-.82-.29-.09-.58-.18-.87-.28-.96-.31-1.92-.63-2.9-.95-.12-.04-.24-.08-.36-.12-1.08-.37-2.18-.75-3.28-1.15-.28-.1-.55-.2-.83-.3-.87-.32-1.74-.64-2.62-.97-.29-.11-.58-.22-.87-.33-1.12-.43-2.24-.87-3.36-1.32-.13-.05-.26-.11-.39-.16-1-.41-2-.82-3.01-1.25-.32-.14-.64-.28-.97-.41-.93-.4-1.87-.81-2.81-1.24-.22-.1-.45-.2-.67-.3-1.14-.52-2.28-1.05-3.42-1.6-.28-.13-.55-.27-.83-.4-.9-.44-1.8-.88-2.71-1.34-.33-.17-.66-.33-.99-.5-1.15-.59-2.31-1.19-3.46-1.81-.17.2-.35.43-.54.66-.07.08-.14.17-.21.26-.13.16-.26.33-.4.5-.09.11-.18.23-.28.35-.13.16-.26.33-.39.5-.11.14-.22.28-.33.43-.13.17-.26.34-.39.52-.12.16-.25.33-.38.5-.12.17-.26.34-.38.52-.31.41-.62.85-.95,1.3-.08.11-.16.21-.24.33-.18.26-.37.52-.56.79-.1.14-.2.29-.31.44-.2.28-.4.57-.6.86-.1.14-.19.28-.29.43-.21.31-.43.63-.64.95-.08.12-.17.25-.25.38-.24.36-.48.72-.72,1.1-.02.03-.03.05-.05.08-.87,1.35-1.77,2.8-2.68,4.33-.01.02-.03.05-.04.07-.28.48-.56.96-.85,1.46-.05.08-.09.16-.14.24-.28.49-.56.99-.84,1.5-.04.06-.07.13-.11.19-1.54,2.79-3.07,5.82-4.54,9.07-.02.05-.05.1-.07.15-.28.63-.56,1.26-.84,1.9-.02.05-.05.11-.07.16-1.43,3.35-2.78,6.91-3.96,10.66-.03.09-.06.18-.09.27-.22.69-.43,1.38-.63,2.08-.03.12-.07.23-.1.35-.21.71-.41,1.43-.6,2.15,0,.03-.02.07-.03.1-.63,2.37-1.19,4.81-1.67,7.31,0,0,0,0,0,.01,11.34-10.03,27.14-15.8,44.26-15.8,20.27,0,33.48,6.95,41.98,15.06,2.32-10.16,9.03-22.3,13.14-29.1,0,0,0,0,0,0-.26-.03-.54-.06-.81-.1-.32-.04-.63-.08-.96-.12Z"/>
          <path class="st2" d="M582.75,414.35c-1.01.44-2.02.86-3.02,1.28-.29.12-.58.24-.87.36-.75.31-1.5.61-2.25.91-.28.11-.55.22-.83.33-.99.39-1.97.76-2.95,1.13-.08.03-.16.06-.24.09-.91.34-1.81.66-2.7.98-.28.1-.55.2-.83.29-.75.26-1.5.52-2.25.77-.24.08-.47.16-.71.24-.96.32-1.92.64-2.87.94-.11.04-.23.07-.34.11-.84.27-1.67.52-2.49.77-.26.08-.51.15-.77.23-.75.22-1.48.44-2.22.65-.19.06-.39.11-.58.17-.92.26-1.83.52-2.73.76-.14.04-.28.07-.42.11-.76.2-1.52.4-2.26.6-.24.06-.47.12-.71.18-.72.18-1.43.36-2.14.53-.16.04-.31.08-.47.12-.85.21-1.7.4-2.53.6-.17.04-.33.07-.5.11-.67.15-1.33.3-1.98.44-.23.05-.46.1-.68.15-.66.14-1.3.28-1.94.41-.14.03-.29.06-.44.09-.76.15-1.51.3-2.25.44-.2.04-.4.08-.6.11-.54.1-1.08.2-1.61.3-.24.04-.47.09-.71.13-.56.1-1.1.19-1.64.28-.15.03-.3.05-.45.08-.65.11-1.28.21-1.9.31-.25.04-.49.08-.74.11-.39.06-.77.12-1.15.17-.27.04-.54.08-.8.12-.37.05-.73.1-1.08.15-.42.06-.83.11-1.23.17-.31.04-.62.08-.92.12-.3.04-.59.07-.89.11-.21.03-.41.05-.62.07-.31.04-.62.07-.92.11-.1.01-.2.02-.3.03-.73.08-1.41.15-2.06.22h0c.88,6.92.81,13.65.35,19.48,2.75-.31,5.54-.48,8.37-.48,28.31,0,42.83,13.54,50.03,24.9,2.02,3.18,3.57,6.37,4.77,9.35,8.17-1.78,15.68-3.7,22.43-5.72-.02-.2-.04-.4-.04-.61-.48-31.23-17.34-55.61-23.33-63.29Z"/>
          <path class="st5" d="M252.31,111.89c.09.3.2.6.33.88-.13-.28-.24-.58-.33-.88Z"/>
          <path class="st5" d="M253.16,113.69c.18.26.38.5.6.73-.22-.23-.42-.47-.6-.73Z"/>
          <path class="st5" d="M254.51,115.1c-.24-.18-.48-.38-.69-.6.21.22.44.41.69.6Z"/>
          <path class="st5" d="M255.56,115.73c.29.14.6.26.92.36-.32-.09-.62-.22-.92-.36Z"/>
          <path class="st5" d="M254.64,115.19c.25.18.51.34.78.47-.28-.14-.54-.3-.78-.47Z"/>
          <path class="st5" d="M252.68,112.86c.14.29.29.57.48.83-.18-.26-.34-.54-.48-.83Z"/>
          <path class="st5" d="M252.29,111.8c-.17-.64-.25-1.32-.2-2h0c-.05.68.03,1.36.2,2Z"/>
          <path class="st5" d="M268.29,180.34c-1.27,1.21-2.6,2.52-3.98,3.94,1.38-1.42,2.71-2.73,3.98-3.94Z"/>
          <path class="st5" d="M261.74,411.57c.13-.17.26-.35.38-.52-.13.17-.26.34-.38.52Z"/>
          <path class="st5" d="M263.89,408.76c.14-.18.27-.34.4-.5-.13.16-.26.33-.4.5Z"/>
          <path class="st5" d="M264.51,408c.19-.24.37-.46.54-.66-.17.2-.35.43-.54.66Z"/>
          <path class="st5" d="M318.39,426.86c.22.05.44.1.66.15-.22-.05-.44-.1-.66-.15Z"/>
          <path class="st5" d="M259.68,414.42c.1-.15.2-.29.31-.44-.1.14-.2.29-.31.44Z"/>
          <path class="st5" d="M263.23,409.61c.13-.17.27-.34.39-.5-.13.16-.26.33-.39.5Z"/>
          <path class="st5" d="M262.5,410.55c.13-.17.27-.35.39-.52-.13.17-.26.34-.39.52Z"/>
          <path class="st5" d="M242.18,450.67c.03-.12.07-.23.1-.35-.03.12-.07.23-.1.35Z"/>
          <path class="st5" d="M242.91,448.24c.03-.09.06-.18.09-.27-.03.09-.06.18-.09.27Z"/>
          <path class="st5" d="M246.96,437.31c.02-.05.05-.11.07-.16-.02.05-.05.11-.07.16Z"/>
          <path class="st5" d="M258.8,415.71c.1-.14.19-.29.29-.43-.1.14-.19.28-.29.43Z"/>
          <path class="st5" d="M241.56,452.92s.02-.07.03-.1c0,.03-.02.07-.03.1Z"/>
          <path class="st5" d="M247.87,435.25c.02-.05.05-.1.07-.15-.02.05-.05.1-.07.15Z"/>
          <path class="st5" d="M239.89,460.24h0s0,0,0-.01c0,0,0,0,0,.01Z"/>
          <path class="st5" d="M257.13,418.22s.03-.05.05-.08c-.02.03-.03.05-.05.08Z"/>
          <path class="st5" d="M257.9,417.05c.08-.13.17-.25.25-.38-.08.12-.17.25-.25.38Z"/>
          <path class="st5" d="M252.48,426.02c.04-.06.07-.13.11-.19-.04.06-.07.13-.11.19Z"/>
          <path class="st5" d="M253.43,424.32c.05-.08.09-.16.14-.24-.05.08-.09.16-.14.24Z"/>
          <path class="st5" d="M254.41,422.62s.03-.05.04-.07c-.01.02-.03.05-.04.07Z"/>
          <path class="st5" d="M260.55,413.19c.08-.11.16-.22.24-.33-.08.11-.16.21-.24.33Z"/>
          <path class="st5" d="M329.77,429.06c.27.04.52.09.79.13-.26-.04-.52-.08-.79-.13Z"/>
          <path class="st5" d="M327.05,428.59c.16.03.32.06.47.09-.15-.03-.32-.06-.47-.09Z"/>
          <path class="st5" d="M298.51,421.48c.29.09.58.19.87.28-.29-.09-.58-.18-.87-.28Z"/>
          <path class="st5" d="M302.03,422.58c.19.06.37.11.56.17-.18-.06-.37-.11-.56-.17Z"/>
          <path class="st5" d="M334.71,429.82c.25.03.48.07.72.1-.24-.03-.47-.06-.72-.1Z"/>
          <path class="st5" d="M332.02,429.42c.27.04.53.08.79.12-.26-.04-.53-.08-.79-.12Z"/>
          <path class="st5" d="M295.26,420.41c.12.04.24.08.36.12-.12-.04-.24-.08-.36-.12Z"/>
          <path class="st5" d="M305.69,423.66c.23.07.46.13.69.19-.23-.06-.46-.13-.69-.19Z"/>
          <path class="st5" d="M315.43,426.18c.26.06.52.12.78.18-.26-.06-.52-.12-.78-.18Z"/>
          <path class="st5" d="M321.68,427.56c.2.04.39.08.59.12-.2-.04-.39-.08-.59-.12Z"/>
          <path class="st5" d="M308.81,424.52c.27.07.53.14.8.21-.26-.07-.53-.14-.8-.21Z"/>
          <path class="st5" d="M324.26,428.07c.27.05.55.11.82.16-.27-.05-.54-.1-.82-.16Z"/>
          <path class="st5" d="M272.21,410.98c.28.13.55.27.83.4-.28-.13-.55-.27-.83-.4Z"/>
          <path class="st5" d="M276.45,412.98c.22.1.45.2.67.3-.22-.1-.45-.2-.67-.3Z"/>
          <path class="st5" d="M336.64,430.08c.29.04.58.08.86.11-.28-.04-.57-.07-.86-.11Z"/>
          <path class="st5" d="M339.27,430.41c-.26-.03-.54-.06-.81-.1.27.03.54.07.81.1Z"/>
          <path class="st5" d="M268.51,409.15c.33.17.66.33.99.5-.33-.17-.66-.33-.99-.5Z"/>
          <path class="st5" d="M287.66,417.66c.29.11.58.22.87.33-.29-.11-.58-.22-.87-.33Z"/>
          <path class="st5" d="M279.93,414.52c.32.14.65.28.97.41-.32-.14-.64-.28-.97-.41Z"/>
          <path class="st5" d="M283.91,416.18c.13.05.26.11.39.16-.13-.05-.26-.11-.39-.16Z"/>
          <path class="st5" d="M291.15,418.96c.28.1.55.2.83.3-.28-.1-.55-.2-.83-.3Z"/>
          <path class="st5" d="M553.67,424.47c.14-.04.28-.07.42-.11-.14.04-.28.07-.42.11Z"/>
          <path class="st5" d="M559.62,422.77c.26-.08.51-.15.77-.23-.26.08-.51.15-.77.23Z"/>
          <path class="st5" d="M556.82,423.59c.19-.05.39-.11.58-.17-.19.06-.39.11-.58.17Z"/>
          <path class="st5" d="M575.78,417.22c.27-.11.55-.22.83-.33-.28.11-.55.22-.83.33Z"/>
          <path class="st5" d="M578.86,415.99c.29-.12.58-.24.87-.36-.29.12-.58.24-.87.36Z"/>
          <path class="st5" d="M572.58,418.44c.08-.03.16-.06.24-.09-.08.03-.16.06-.24.09Z"/>
          <path class="st5" d="M606.08,477.64c0,.2.02.41.04.61h0c-.02-.2-.04-.4-.04-.61Z"/>
          <path class="st5" d="M566.09,420.73c.24-.08.47-.16.71-.24-.24.08-.47.16-.71.24Z"/>
          <path class="st5" d="M528.18,429.74c.26-.04.53-.08.8-.12-.27.04-.54.08-.8.12Z"/>
          <path class="st5" d="M562.88,421.77c.11-.04.23-.07.34-.11-.11.04-.23.07-.34.11Z"/>
          <path class="st5" d="M569.05,419.71c.28-.1.55-.19.83-.29-.28.1-.55.2-.83.29Z"/>
          <path class="st5" d="M532.76,429.02c.15-.02.3-.05.45-.08-.15.03-.3.05-.45.08Z"/>
          <path class="st5" d="M537.17,428.24c.2-.04.4-.07.6-.11-.2.04-.4.08-.6.11Z"/>
          <path class="st5" d="M524.06,430.28c.29-.04.58-.07.89-.11-.3.04-.59.07-.89.11Z"/>
          <path class="st5" d="M550.7,425.24c.23-.06.47-.12.71-.18-.24.06-.47.12-.71.18Z"/>
          <path class="st5" d="M525.87,430.05c.4-.05.81-.11,1.23-.17-.42.06-.83.11-1.23.17Z"/>
          <path class="st5" d="M530.12,429.45c.24-.04.49-.07.74-.11-.25.04-.49.08-.74.11Z"/>
          <path class="st5" d="M534.85,428.66c.23-.04.47-.08.71-.13-.24.04-.47.09-.71.13Z"/>
          <path class="st5" d="M522.53,430.47c.3-.03.61-.07.92-.11-.31.04-.62.07-.92.11Z"/>
          <path class="st5" d="M520.17,430.72c.65-.06,1.34-.14,2.06-.22-.72.08-1.42.15-2.06.22Z"/>
          <path class="st5" d="M545.06,426.6c.17-.04.33-.07.5-.11-.17.04-.33.07-.5.11Z"/>
          <path class="st5" d="M540.02,427.68c.14-.03.29-.06.44-.09-.14.03-.29.06-.44.09Z"/>
          <path class="st5" d="M542.4,427.19c.23-.05.46-.1.68-.15-.23.05-.46.1-.68.15Z"/>
          <path class="st5" d="M548.09,425.89c.16-.04.31-.08.47-.12-.16.04-.31.08-.47.12Z"/>
          <path class="st5" d="M518.14,342.49c44.2,25.39,90.96-4.25,123.37-34.49.3-1.35-9.69-8-11.61-9.63-32.91-28.03-68.42-75.68-111.12-86.98-24.72-6.54-45.8,1.45-58.16,23.97-10.43,19.01-7.07,41.47-7.43,62.38,28.06,4.54,41.9,31.51,64.94,44.75ZM512.19,244.98c17.74,0,32.12,16.11,32.12,35.97s-14.38,35.97-32.12,35.97-32.12-16.11-32.12-35.97,14.38-35.97,32.12-35.97Z"/>
          <path class="st7" d="M505.41,263.31c10.46,0,18.94,10.31,18.94,23.02,0,11.42-6.84,20.89-15.81,22.7,1.19.21,2.4.32,3.64.32,13.4,0,24.27-12.72,24.27-28.4s-10.86-28.4-24.27-28.4c-12.19,0-22.28,10.52-24,24.23,2.99-7.94,9.58-13.46,17.23-13.46Z"/>
          <path class="st9" d="M512.19,244.98c-17.74,0-32.12,16.11-32.12,35.97s14.38,35.97,32.12,35.97,32.12-16.11,32.12-35.97-14.38-35.97-32.12-35.97ZM512.19,309.36c-1.24,0-2.45-.11-3.64-.32-11.67-2.06-20.63-13.85-20.63-28.08,0-1.42.09-2.81.26-4.18,1.73-13.71,11.81-24.23,24-24.23,13.4,0,24.27,12.72,24.27,28.4s-10.86,28.4-24.27,28.4Z"/>
          <path class="st9" d="M508.55,309.04c8.97-1.82,15.81-11.29,15.81-22.7,0-12.71-8.48-23.02-18.94-23.02-7.65,0-14.24,5.52-17.23,13.46-.17,1.36-.26,2.76-.26,4.18,0,14.24,8.95,26.03,20.63,28.08ZM502.6,270.81c3.12,0,5.65,2.53,5.65,5.65s-2.53,5.65-5.65,5.65-5.65-2.53-5.65-5.65,2.53-5.65,5.65-5.65Z"/>
          <circle class="st7" cx="502.6" cy="276.46" r="5.65" transform="translate(-48.28 436.36) rotate(-45)"/>
        </g>
        <path class="st5" d="M268.29,180.34c.43-.4.84-.8,1.25-1.18,5.59-5.16,10.5-8.83,14.07-11.24l-13.53-19.24c-1.49-2.12-1.48-4.95.02-7.07,1.5-2.11,4.18-3.05,6.67-2.34l20.68,5.91c-8.74-10.42-22.87-23.8-40.97-29.09-.32-.09-.62-.22-.92-.36-.04-.02-.09-.04-.13-.06-.28-.14-.53-.3-.78-.47-.04-.03-.09-.06-.13-.1-.24-.18-.48-.38-.69-.6-.02-.02-.04-.05-.06-.07-.22-.23-.42-.47-.6-.73,0,0,0,0,0,0-.18-.26-.34-.54-.48-.83-.01-.03-.03-.06-.04-.09-.13-.28-.24-.58-.33-.88,0-.03-.02-.06-.02-.09-.17-.64-.25-1.32-.2-2-1.65,8.16-4.52,45.17,12.22,74.47,0,0,0,0,0,0,1.38-1.42,2.71-2.73,3.98-3.94Z"/>
        <path class="st6" d="M693.24,298.4c-.51-1.56-1.62-2.84-3.09-3.57-.4-.2-40.26-20.47-60.93-64.7-1.66-3.56-3.39-6.93-5.15-10.15,6.15-12.54,27.5-61.46,17.14-117.41-3-16.2-11.9-22.59-18.83-25.1-15.37-5.56-38.78,1.16-69.58,19.97-17.28,10.55-31.9,21.84-37.8,26.55l-31.79-11.8c.63-1.45,1.19-2.93,1.65-4.44,2.04-6.76-.77-10.52-2.63-12.17-3.12-2.75-8.09-3.29-13.66-2.62,4.44-5.9,5.73-10.64,4.17-14.82-1.93-5.17-7.42-7.55-16.33-7.08-28.61,1.53-69.56,35.12-76.17,40.69l-32.96,12.23c-5.9-4.71-20.51-16.01-37.8-26.55-30.81-18.81-54.22-25.52-69.58-19.97-12.57,4.54-17.18,16.15-18.83,25.1-10.36,55.95,10.99,104.87,17.14,117.41-1.76,3.22-3.48,6.59-5.15,10.15-20.66,44.23-60.53,64.5-60.92,64.69-1.47.73-2.59,2.01-3.1,3.57s-.38,3.25.37,4.71c7.64,14.86,19.7,24.79,29.77,30.98-4.37.09-7.33-.28-7.38-.29-2.49-.33-4.95.89-6.17,3.1-1.22,2.21-.97,4.93.64,6.87,1.07,1.29,26.23,31.32,68.05,57.31-8.08,10.06-27.8,38.35-28.39,75.47-.05,3.38,2.64,6.16,6.02,6.22.03,0,.07,0,.1,0,3.34,0,6.06-2.68,6.12-6.02.56-35.17,20.99-62.31,26.87-69.41,41.29,22.22,82.13,23.83,83.95,23.9.07,0,.14,0,.21,0,3.28,0,6-2.6,6.11-5.91.12-3.38-2.53-6.21-5.91-6.33-.45-.02-45.09-1.85-86.13-26.76-26.93-16.35-47.24-35.02-58.27-46.22,4.86-.45,10.43-1.46,15.94-3.48,2.45-.9,4.06-3.26,4.01-5.87s-1.76-4.9-4.25-5.71c-.26-.08-24.05-7.96-37.45-28.36,12.61-7.6,42.97-28.96,60.88-67.29,10.77-23.06,24.06-38.17,33.3-46.78,10.03-9.35,17.62-13.29,17.68-13.33,1.59-.8,2.74-2.25,3.17-3.98s.09-3.55-.93-5l-7.32-10.42,20.99,6c2.39.68,4.96-.15,6.5-2.11,1.54-1.96,1.73-4.65.5-6.81-.88-1.55-21.99-37.99-58.13-48.54-3.24-.95-6.64.91-7.59,4.16-.95,3.24.91,6.64,4.16,7.59,18.11,5.29,32.24,18.68,40.97,29.09l-20.68-5.91c-2.49-.71-5.17.22-6.67,2.34-1.5,2.11-1.51,4.95-.02,7.07l13.53,19.24c-3.57,2.41-8.48,6.08-14.07,11.24-6.66,6.16-15.22,15.37-23.63,28.04-7.55-18.05-20.96-58.4-12.81-102.4,1.58-8.55,5.17-13.72,10.96-15.81,11.35-4.11,32.28,2.58,58.93,18.83,21.34,13.02,39.05,27.69,39.23,27.84,1.68,1.4,3.99,1.79,6.04,1.03l37.25-13.82c.68-.25,1.31-.63,1.87-1.1.43-.37,43.31-37.06,69.68-38.46,1.46-.08,2.55-.05,3.34.02-2.38,4.1-10.11,11.95-18.17,18.22-2.44,1.9-3.08,5.32-1.5,7.97,1.59,2.65,4.91,3.71,7.74,2.45,9.36-4.15,20.03-7.21,24.5-7.15-4.6,14.02-21.16,26.03-21.32,26.15-2.75,1.96-3.39,5.79-1.42,8.54,1.96,2.75,5.79,3.39,8.54,1.42.59-.42,10.41-7.52,18.16-18.01l37.11,13.77c2.06.76,4.36.37,6.04-1.03.18-.15,17.89-14.82,39.23-27.84,26.65-16.25,47.58-22.94,58.93-18.83,5.79,2.09,9.37,7.27,10.96,15.81,8.15,44.01-5.26,84.35-12.81,102.4-8.41-12.67-16.97-21.88-23.63-28.04-5.59-5.16-10.5-8.83-14.07-11.24l13.53-19.24c1.49-2.12,1.48-4.95-.02-7.07s-4.17-3.05-6.67-2.34l-20.68,5.91c8.74-10.42,22.87-23.81,40.97-29.09,3.24-.95,5.11-4.35,4.16-7.59-.95-3.25-4.35-5.11-7.59-4.16-36.14,10.56-57.25,47-58.13,48.54-1.23,2.16-1.03,4.85.5,6.81,1.54,1.96,4.1,2.79,6.5,2.11l20.99-6-7.32,10.42c-1.02,1.45-1.35,3.27-.93,4.99s1.58,3.17,3.15,3.98c.08.04,7.66,3.98,17.7,13.33,9.24,8.61,22.53,23.72,33.3,46.78,17.91,38.33,48.27,59.69,60.88,67.29-13.39,20.4-37.19,28.28-37.44,28.36-2.49.79-4.21,3.08-4.26,5.7-.06,2.62,1.56,4.98,4.01,5.88,5.51,2.02,11.08,3.02,15.94,3.48-11.03,11.2-31.34,29.87-58.27,46.22-41.04,24.92-85.68,26.75-86.13,26.76-3.38.11-6.02,2.94-5.91,6.32.11,3.31,2.83,5.92,6.11,5.92.07,0,.14,0,.21,0,1.61-.05,33.6-1.32,69.46-16.88,5.98,7.68,22.85,32.06,23.33,63.29.05,3.35,2.78,6.03,6.12,6.03.03,0,.06,0,.1,0,3.38-.05,6.08-2.83,6.03-6.21-.5-32.6-16.35-57.87-24.23-68.46,3.75-1.93,7.52-4.02,11.27-6.3,43.39-26.35,69.57-57.61,70.66-58.93,1.61-1.94,1.86-4.66.64-6.86-1.22-2.2-3.66-3.44-6.16-3.11-.06,0-3.01.37-7.4.29,10.07-6.19,22.13-16.12,29.77-30.98.75-1.46.88-3.15.37-4.71Z"/>
        <path class="st5" d="M593.71,180.34c-.43-.4-.84-.8-1.25-1.18-5.59-5.16-10.5-8.83-14.07-11.24l13.53-19.24c1.49-2.12,1.48-4.95-.02-7.07-1.5-2.11-4.18-3.05-6.67-2.34l-20.68,5.91c8.74-10.42,22.87-23.8,40.97-29.09.32-.09.62-.22.92-.36.04-.02.09-.04.13-.06.28-.14.53-.3.78-.47.04-.03.09-.06.13-.1.24-.18.48-.38.69-.6.02-.02.04-.05.06-.07.22-.23.42-.47.6-.73,0,0,0,0,0,0,.18-.26.34-.54.48-.83.01-.03.03-.06.04-.09.13-.28.24-.58.33-.88,0-.03.02-.06.02-.09.17-.64.25-1.32.2-2,1.65,8.16,4.52,45.17-12.22,74.47,0,0,0,0,0,0-1.38-1.42-2.71-2.73-3.98-3.94Z"/>
        <g>
          <path class="st5" d="M522.5,461.57c-17.04,3.1-31.01,12.83-37.35,26.04-3.7,7.71-5.01,16.43-3.59,23.93.45,2.4,1.66,6.76,4.63,9.02,2.07,1.57,5.22,1.96,8.57,1.1-2.74-11.08-.23-24.34,3.95-33.3,1.21-2.59,2.49-4.81,3.91-6.78,2.14-2.97,6.28-3.64,9.26-1.51,2.97,2.14,3.64,6.28,1.5,9.26-.93,1.29-1.8,2.81-2.65,4.64-3.75,8.03-5.64,20.65-1.77,28.2,1.7,3.32,4.3,5.2,8.19,5.94,2.25.43,4.65-.26,6.59-1.89,1.71-1.44,2.81-3.43,3.09-5.48-1-2.34-1.78-4.93-2.29-7.72-3.85-21.21,6.05-35.42,6.47-36.01,2.13-2.98,6.27-3.68,9.25-1.55,2.97,2.12,3.67,6.23,1.58,9.21-.36.52-7.05,10.57-4.25,25.98,1.09,6.01,3.78,10.03,7.2,10.77,2.49.54,5.19-.8,7.06-3.49,4.43-6.4,1.63-20.41.3-24.81-.57-1.88-.28-3.92.8-5.57,1.08-1.64,2.84-2.72,4.78-2.95l13.33-1.53c-5.26-10.22-18.64-26.92-48.54-21.49Z"/>
          <path class="st6" d="M586.83,487c-.13-.5-3.26-12.33-13.02-22.93-9.11-9.89-25.82-20.62-53.67-15.56-21.21,3.85-38.75,16.32-46.94,33.34-4.97,10.35-6.63,21.77-4.67,32.14.99,5.21,3.46,12.41,9.63,17.11,4.84,3.68,11.36,5.02,18,3.82,1.28-.23,2.56-.56,3.84-.98.29-.1.57-.22.84-.35,3.52,3.9,8.2,6.48,13.82,7.54,2.5.47,5.04.47,7.51.03,3.63-.66,7.11-2.29,10.09-4.8,1.52-1.28,2.83-2.72,3.94-4.29,1.78,1.07,3.71,1.86,5.77,2.31,2.46.53,4.93.56,7.32.13,5.22-.95,10.03-4.1,13.45-9.03,5.9-8.51,5.2-20.66,3.85-28.55l14.58-1.68c.05,0,.1-.02.15-.03.09-.01.18-.03.26-.04.12-.02.24-.04.35-.07.04,0,.08-.01.12-.02.08-.02.16-.05.24-.08.09-.03.18-.05.26-.08.13-.04.26-.09.38-.15.07-.03.15-.06.22-.09.13-.06.26-.13.39-.2.06-.03.12-.07.18-.1.13-.08.26-.16.38-.24.05-.04.1-.07.16-.11.12-.09.24-.18.36-.28.05-.04.1-.08.15-.12.11-.1.21-.2.32-.3.05-.05.1-.1.15-.15.09-.1.18-.2.27-.3.05-.06.11-.13.16-.2.07-.1.14-.19.21-.29.06-.08.11-.16.16-.24.06-.09.11-.18.16-.28.05-.1.11-.19.15-.29.04-.09.08-.18.12-.26.05-.11.09-.22.13-.33.03-.09.06-.18.09-.27.04-.11.07-.23.1-.34.03-.09.05-.19.07-.29.02-.11.05-.22.07-.33.02-.11.03-.21.04-.32.01-.1.02-.21.03-.31,0-.12.01-.24.01-.36,0-.1,0-.2,0-.29,0-.12-.01-.25-.02-.38,0-.06,0-.13-.01-.19,0-.04-.01-.07-.02-.11-.01-.11-.04-.22-.06-.34-.02-.12-.04-.23-.07-.35,0-.03-.01-.07-.02-.1ZM557.72,484.59c-1.94.23-3.7,1.31-4.78,2.95-1.08,1.64-1.37,3.68-.8,5.57,1.33,4.4,4.14,18.4-.3,24.81-1.87,2.69-4.57,4.03-7.06,3.49-3.42-.74-6.11-4.77-7.2-10.77-2.8-15.41,3.89-25.46,4.25-25.98,2.09-2.98,1.39-7.1-1.58-9.21-2.98-2.13-7.12-1.43-9.25,1.55-.42.59-10.33,14.8-6.47,36.01.51,2.8,1.28,5.38,2.29,7.72-.28,2.05-1.38,4.04-3.09,5.48-1.93,1.63-4.33,2.31-6.59,1.89-3.89-.74-6.49-2.63-8.19-5.94-3.87-7.55-1.97-20.16,1.77-28.2.85-1.83,1.72-3.34,2.65-4.64,2.14-2.97,1.47-7.12-1.5-9.26-2.97-2.14-7.12-1.47-9.26,1.51-1.42,1.98-2.7,4.2-3.91,6.78-4.18,8.96-6.69,22.21-3.95,33.3-3.35.86-6.5.47-8.57-1.1-2.97-2.26-4.17-6.62-4.63-9.02-1.42-7.5-.11-16.22,3.59-23.93,6.35-13.21,20.31-22.94,37.35-26.04,29.9-5.43,43.27,11.27,48.54,21.49l-13.33,1.53Z"/>
        </g>
        <path class="st1" d="M315.82,499.82c30.88,3.2,65.67,5,102.46,5,20.29,0,39.98-.55,58.73-1.57"/>
        <g>
          <ellipse class="st15" cx="430.99" cy="331.8" rx="36.08" ry="27.65"/>
          <ellipse class="st10" cx="435.29" cy="323.63" rx="17.55" ry="8.17"/>
        </g>
      </g>
    </g>
  </g>
  <g>
    <path class="st17" d="M969.32,394.4c68.81,0,124.75,36.85,145.62,100.33h-71.48c-14.65-29.74-41.29-44.4-74.58-44.4-54.16,0-92.79,39.51-92.79,102.55s38.62,102.55,92.79,102.55c33.3,0,59.93-14.65,74.58-44.84h71.48c-20.87,63.93-76.8,100.33-145.62,100.33-89.23,0-157.16-65.26-157.16-158.05s67.92-158.49,157.16-158.49Z"/>
    <path class="st17" d="M1400.4,708.27h-62.6v-31.08c-15.54,20.87-42.62,34.18-73.25,34.18-57.27,0-98.56-37.29-98.56-104.77v-144.28h62.15v135.41c0,39.51,21.75,60.82,54.61,60.82s55.05-21.31,55.05-60.82v-135.41h62.6v245.95Z"/>
    <path class="st17" d="M1523.81,708.27h-62.15v-245.95h62.15v38.18c15.54-25.31,41.29-41.73,75.47-41.73v65.26h-16.43c-36.85,0-59.05,14.21-59.05,61.71v122.53Z"/>
    <path class="st17" d="M1784.41,458.33c63.04,0,112.32,49.28,112.32,126.08s-49.28,127.86-112.32,127.86c-38.62,0-66.15-17.76-81.24-39.07v35.07h-62.15v-328.53h62.15v118.54c15.09-22.64,43.95-39.96,81.24-39.96ZM1767.99,512.94c-33.3,0-64.82,25.75-64.82,72.36s31.52,72.36,64.82,72.36,65.26-26.64,65.26-73.25-31.52-71.48-65.26-71.48Z"/>
    <path class="st17" d="M2111.16,462.32h66.15l-152.28,362.27h-66.15l53.27-122.53-98.56-239.73h69.7l63.49,171.81,64.37-171.81Z"/>
  </g>
</svg>